SplineFontDB: 3.0
FontName: RisingSun-Hairline
FullName: Rising Sun Hairline Regular
FamilyName: Rising Sun Hairline
Weight: Thin
Copyright: Copyright (c) 2010 - 2013, Matt McInerney (matt@pixelspread.com), Pablo Impallari (impallari@gmail.com), Rodrigo Fuenzalida (hello@rfuenzalida.com) with Reserved Font Name RALEWAY.\nCopyright (c) 2016, Cristiano Sobral (cssobral2013@gmail.com), with Reserved Font Name RISING SUN.
Version: 1.000
ItalicAngle: 0
UnderlinePosition: -100
UnderlineWidth: 50
Ascent: 800
Descent: 200
InvalidEm: 0
sfntRevision: 0x00010000
LayerCount: 2
Layer: 0 1 "Back" 1
Layer: 1 1 "Fore" 0
XUID: [1021 368 144034212 2276]
StyleMap: 0x0000
FSType: 4
OS2Version: 3
OS2_WeightWidthSlopeOnly: 0
OS2_UseTypoMetrics: 0
CreationTime: 1380014460
ModificationTime: 1473778417
PfmFamily: 17
TTFWeight: 100
TTFWidth: 5
LineGap: 0
VLineGap: 0
Panose: 2 11 2 3 3 1 1 6 0 3
OS2TypoAscent: 800
OS2TypoAOffset: 0
OS2TypoDescent: -200
OS2TypoDOffset: 0
OS2TypoLinegap: 0
OS2WinAscent: 940
OS2WinAOffset: 0
OS2WinDescent: 243
OS2WinDOffset: 0
HheadAscent: 940
HheadAOffset: 0
HheadDescent: -243
HheadDOffset: 0
OS2SubXSize: 700
OS2SubYSize: 650
OS2SubXOff: 0
OS2SubYOff: 140
OS2SupXSize: 700
OS2SupYSize: 650
OS2SupXOff: 0
OS2SupYOff: 477
OS2StrikeYSize: 50
OS2StrikeYPos: 250
OS2CapHeight: 710
OS2XHeight: 519
OS2Vendor: 'pyrs'
OS2CodePages: 20000097.00000000
OS2UnicodeRanges: a00002ff.5000205b.00000000.00000000
Lookup: 1 0 0 "'aalt' Access All Alternates in Latin lookup 0" { "'aalt' Access All Alternates in Latin lookup 0 subtable"  } ['aalt' ('latn' <'dflt' > ) ]
Lookup: 3 0 0 "'aalt' Access All Alternates in Latin lookup 1" { "'aalt' Access All Alternates in Latin lookup 1 subtable"  } ['aalt' ('latn' <'dflt' > ) ]
Lookup: 1 0 0 "'smcp' Lowercase to Small Capitals in Latin lookup 2" { "'smcp' Lowercase to Small Capitals in Latin lookup 2 subtable"  } ['smcp' ('latn' <'dflt' > ) ]

StartChar: exclam
Encoding: 33 33 5
Width: 228
GlyphClass: 2
Flags: W
LayerCount: 2
Fore
SplineSet
104 200 m 1,0,-1
 104 717 l 1,1,-1
 124 717 l 1,2,-1
 124 200 l 1,3,-1
 104 200 l 1,0,-1
104 0 m 1,4,-1
 104 84 l 1,5,-1
 124 84 l 1,6,-1
 124 0 l 1,7,-1
 104 0 l 1,4,-1
EndSplineSet
EndChar

StartChar: quotedbl
Encoding: 34 34 6
Width: 216
GlyphClass: 2
Flags: W
LayerCount: 2
Fore
SplineSet
73 570 m 1,0,-1
 73 710 l 1,1,-1
 93 710 l 1,2,-1
 93 570 l 1,3,-1
 73 570 l 1,0,-1
123 570 m 1,4,-1
 123 710 l 1,5,-1
 143 710 l 1,6,-1
 143 570 l 1,7,-1
 123 570 l 1,4,-1
EndSplineSet
EndChar

StartChar: numbersign
Encoding: 35 35 7
Width: 650
GlyphClass: 2
Flags: W
LayerCount: 2
Fore
SplineSet
612 481 m 1,0,-1
 494 481 l 1,1,-1
 436 241 l 1,2,-1
 572 241 l 1,3,-1
 572 221 l 1,4,-1
 431 221 l 1,5,-1
 378 0 l 1,6,-1
 357 0 l 1,7,-1
 411 221 l 1,8,-1
 171 221 l 1,9,-1
 118 0 l 1,10,-1
 97 0 l 1,11,-1
 151 221 l 1,12,-1
 38 221 l 1,13,-1
 38 241 l 1,14,-1
 156 241 l 1,15,-1
 214 481 l 1,16,-1
 78 481 l 1,17,-1
 78 501 l 1,18,-1
 219 501 l 1,19,-1
 270 710 l 1,20,-1
 291 710 l 1,21,-1
 239 501 l 1,22,-1
 479 501 l 1,23,-1
 530 710 l 1,24,-1
 551 710 l 1,25,-1
 499 501 l 1,26,-1
 612 501 l 1,27,-1
 612 481 l 1,0,-1
416 241 m 1,28,-1
 474 481 l 1,29,-1
 234 481 l 1,30,-1
 176 241 l 1,31,-1
 416 241 l 1,28,-1
EndSplineSet
EndChar

StartChar: dollar
Encoding: 36 36 8
Width: 613
GlyphClass: 2
Flags: W
LayerCount: 2
Fore
SplineSet
516 616 m 1,0,1
 474 662 474 662 428.5 679 c 128,-1,2
 383 696 383 696 320 696 c 1,3,-1
 320 363 l 1,4,5
 378 351 378 351 424.5 337.5 c 128,-1,6
 471 324 471 324 504 303 c 128,-1,7
 537 282 537 282 554.5 251 c 128,-1,8
 572 220 572 220 572 174 c 0,9,10
 572 87 572 87 505.5 41 c 128,-1,11
 439 -5 439 -5 322 -5 c 2,12,-1
 320 -5 l 1,13,-1
 320 -93 l 1,14,-1
 300 -93 l 1,15,-1
 300 -4 l 1,16,17
 222 -1 222 -1 161 25.5 c 128,-1,18
 100 52 100 52 46 105 c 1,19,-1
 61 118 l 1,20,21
 112 66 112 66 169.5 41 c 128,-1,22
 227 16 227 16 300 12 c 1,23,-1
 300 349 l 1,24,25
 244 360 244 360 201.5 372.5 c 128,-1,26
 159 385 159 385 129.5 404.5 c 128,-1,27
 100 424 100 424 85 452.5 c 128,-1,28
 70 481 70 481 70 524 c 0,29,30
 70 613 70 613 132 661.5 c 128,-1,31
 194 710 194 710 300 714 c 1,32,-1
 300 815 l 1,33,-1
 320 815 l 1,34,-1
 320 715 l 1,35,36
 387 714 387 714 437 694.5 c 128,-1,37
 487 675 487 675 529 630 c 1,38,-1
 516 616 l 1,0,1
552 171 m 0,39,40
 552 210 552 210 538 238 c 128,-1,41
 524 266 524 266 495.5 285.5 c 128,-1,42
 467 305 467 305 423.5 319 c 128,-1,43
 380 333 380 333 320 345 c 1,44,-1
 320 12 l 1,45,-1
 323 12 l 2,46,47
 429 12 429 12 490.5 51.5 c 128,-1,48
 552 91 552 91 552 171 c 0,39,40
90 526 m 256,49,50
 90 489 90 489 102 464 c 128,-1,51
 114 439 114 439 139.5 421.5 c 128,-1,52
 165 404 165 404 204.5 392 c 128,-1,53
 244 380 244 380 300 368 c 1,54,-1
 300 695 l 1,55,56
 244 693 244 693 204.5 680 c 128,-1,57
 165 667 165 667 139.5 645 c 128,-1,58
 114 623 114 623 102 593 c 128,-1,59
 90 563 90 563 90 526 c 256,49,50
EndSplineSet
EndChar

StartChar: percent
Encoding: 37 37 9
Width: 670
GlyphClass: 2
Flags: W
LayerCount: 2
Fore
SplineSet
186 444 m 0,0,1
 157 444 157 444 132 455 c 128,-1,2
 107 466 107 466 88.5 484.5 c 128,-1,3
 70 503 70 503 59 528 c 128,-1,4
 48 553 48 553 48 582 c 0,5,6
 48 610 48 610 59 635.5 c 128,-1,7
 70 661 70 661 88.5 679.5 c 128,-1,8
 107 698 107 698 132 709 c 128,-1,9
 157 720 157 720 186 720 c 0,10,11
 214 720 214 720 239.5 709 c 128,-1,12
 265 698 265 698 283.5 679.5 c 128,-1,13
 302 661 302 661 313 635.5 c 128,-1,14
 324 610 324 610 324 582 c 0,15,16
 324 553 324 553 313 528 c 128,-1,17
 302 503 302 503 283.5 484.5 c 128,-1,18
 265 466 265 466 239.5 455 c 128,-1,19
 214 444 214 444 186 444 c 0,0,1
186 464 m 0,20,21
 211 464 211 464 232.5 473.5 c 128,-1,22
 254 483 254 483 270 499.5 c 128,-1,23
 286 516 286 516 295 537.5 c 128,-1,24
 304 559 304 559 304 582 c 0,25,26
 304 607 304 607 294.5 628.5 c 128,-1,27
 285 650 285 650 268.5 666 c 128,-1,28
 252 682 252 682 230.5 691 c 128,-1,29
 209 700 209 700 186 700 c 0,30,31
 161 700 161 700 139.5 690.5 c 128,-1,32
 118 681 118 681 102 664.5 c 128,-1,33
 86 648 86 648 77 626.5 c 128,-1,34
 68 605 68 605 68 582 c 0,35,36
 68 557 68 557 77.5 535.5 c 128,-1,37
 87 514 87 514 103 498 c 128,-1,38
 119 482 119 482 140.5 473 c 128,-1,39
 162 464 162 464 186 464 c 0,20,21
485 -10 m 0,40,41
 456 -10 456 -10 431 0.5 c 128,-1,42
 406 11 406 11 387.5 30 c 128,-1,43
 369 49 369 49 358 74 c 128,-1,44
 347 99 347 99 347 128 c 0,45,46
 347 156 347 156 358 181.5 c 128,-1,47
 369 207 369 207 387.5 225.5 c 128,-1,48
 406 244 406 244 431 255 c 128,-1,49
 456 266 456 266 485 266 c 0,50,51
 513 266 513 266 538.5 255 c 128,-1,52
 564 244 564 244 582.5 225.5 c 128,-1,53
 601 207 601 207 612 181.5 c 128,-1,54
 623 156 623 156 623 128 c 0,55,56
 623 99 623 99 612 74 c 128,-1,57
 601 49 601 49 582.5 30 c 128,-1,58
 564 11 564 11 538.5 0.5 c 128,-1,59
 513 -10 513 -10 485 -10 c 0,40,41
485 10 m 0,60,61
 510 10 510 10 531.5 19.5 c 128,-1,62
 553 29 553 29 569 45.5 c 128,-1,63
 585 62 585 62 594 83 c 128,-1,64
 603 104 603 104 603 128 c 256,65,66
 603 152 603 152 593.5 173.5 c 128,-1,67
 584 195 584 195 567.5 211 c 128,-1,68
 551 227 551 227 529.5 236.5 c 128,-1,69
 508 246 508 246 485 246 c 0,70,71
 460 246 460 246 438.5 236.5 c 128,-1,72
 417 227 417 227 401 210.5 c 128,-1,73
 385 194 385 194 376 172.5 c 128,-1,74
 367 151 367 151 367 128 c 0,75,76
 367 103 367 103 376.5 81.5 c 128,-1,77
 386 60 386 60 402 44 c 128,-1,78
 418 28 418 28 439.5 19 c 128,-1,79
 461 10 461 10 485 10 c 0,60,61
48 11 m 1,80,-1
 606 711 l 1,81,-1
 622 699 l 1,82,-1
 64 -1 l 1,83,-1
 48 11 l 1,80,-1
EndSplineSet
EndChar

StartChar: ampersand
Encoding: 38 38 10
Width: 635
GlyphClass: 2
Flags: W
LayerCount: 2
Fore
SplineSet
598 0 m 1,0,-1
 492 110 l 1,1,2
 454 56 454 56 398 23 c 128,-1,3
 342 -10 342 -10 270 -10 c 0,4,5
 229 -10 229 -10 190.5 1.5 c 128,-1,6
 152 13 152 13 121 36 c 128,-1,7
 90 59 90 59 71.5 92.5 c 128,-1,8
 53 126 53 126 53 170 c 0,9,10
 53 207 53 207 66.5 237 c 128,-1,11
 80 267 80 267 103 293 c 128,-1,12
 126 319 126 319 157 343 c 128,-1,13
 188 367 188 367 223 391 c 1,14,15
 191 424 191 424 169.5 450 c 128,-1,16
 148 476 148 476 135 497.5 c 128,-1,17
 122 519 122 519 116 537.5 c 128,-1,18
 110 556 110 556 110 574 c 0,19,20
 110 602 110 602 123 628.5 c 128,-1,21
 136 655 136 655 158.5 675 c 128,-1,22
 181 695 181 695 211.5 707 c 128,-1,23
 242 719 242 719 277 719 c 0,24,25
 310 719 310 719 337 708.5 c 128,-1,26
 364 698 364 698 384 680.5 c 128,-1,27
 404 663 404 663 415 640 c 128,-1,28
 426 617 426 617 426 591 c 0,29,30
 426 560 426 560 411 533.5 c 128,-1,31
 396 507 396 507 371.5 482.5 c 128,-1,32
 347 458 347 458 315.5 435 c 128,-1,33
 284 412 284 412 250 389 c 1,34,-1
 490 140 l 1,35,36
 515 182 515 182 528.5 231.5 c 128,-1,37
 542 281 542 281 542 333 c 1,38,-1
 562 333 l 1,39,40
 562 278 562 278 547 224.5 c 128,-1,41
 532 171 532 171 503 126 c 1,42,-1
 625 0 l 1,43,-1
 598 0 l 1,0,-1
273 8 m 0,44,45
 339 8 339 8 391.5 40 c 128,-1,46
 444 72 444 72 479 124 c 1,47,-1
 235 379 l 1,48,49
 203 356 203 356 173.5 333.5 c 128,-1,50
 144 311 144 311 121.5 285.5 c 128,-1,51
 99 260 99 260 86 231 c 128,-1,52
 73 202 73 202 73 168 c 0,53,54
 73 127 73 127 91.5 97 c 128,-1,55
 110 67 110 67 138.5 47 c 128,-1,56
 167 27 167 27 202.5 17.5 c 128,-1,57
 238 8 238 8 273 8 c 0,44,45
130 573 m 0,58,59
 130 559 130 559 134 544 c 128,-1,60
 138 529 138 529 150 509 c 128,-1,61
 162 489 162 489 183 463 c 128,-1,62
 204 437 204 437 238 401 c 1,63,64
 277 427 277 427 308 450 c 128,-1,65
 339 473 339 473 360.5 495 c 128,-1,66
 382 517 382 517 394 540 c 128,-1,67
 406 563 406 563 406 589 c 0,68,69
 406 637 406 637 369.5 668 c 128,-1,70
 333 699 333 699 276 699 c 0,71,72
 245 699 245 699 218.5 689 c 128,-1,73
 192 679 192 679 172.5 662 c 128,-1,74
 153 645 153 645 141.5 622 c 128,-1,75
 130 599 130 599 130 573 c 0,58,59
EndSplineSet
EndChar

StartChar: quotesingle
Encoding: 39 39 11
Width: 166
GlyphClass: 2
Flags: W
LayerCount: 2
Fore
SplineSet
73 569 m 1,0,-1
 73 710 l 1,1,-1
 93 710 l 1,2,-1
 93 569 l 1,3,-1
 73 569 l 1,0,-1
EndSplineSet
EndChar

StartChar: parenleft
Encoding: 40 40 12
Width: 234
GlyphClass: 2
Flags: W
LayerCount: 2
Fore
SplineSet
50 345 m 0,0,1
 50 396 50 396 60.5 444.5 c 128,-1,2
 71 493 71 493 89 540.5 c 128,-1,3
 107 588 107 588 131.5 634 c 128,-1,4
 156 680 156 680 183 726 c 1,5,-1
 199 714 l 1,6,7
 175 679 175 679 151.5 633.5 c 128,-1,8
 128 588 128 588 110 538.5 c 128,-1,9
 92 489 92 489 80.5 438 c 128,-1,10
 69 387 69 387 69 342 c 0,11,12
 69 304 69 304 77.5 260 c 128,-1,13
 86 216 86 216 102.5 170 c 128,-1,14
 119 124 119 124 143.5 77 c 128,-1,15
 168 30 168 30 199 -14 c 1,16,-1
 183 -26 l 1,17,18
 118 69 118 69 84 161.5 c 128,-1,19
 50 254 50 254 50 345 c 0,0,1
EndSplineSet
EndChar

StartChar: parenright
Encoding: 41 41 13
Width: 233
GlyphClass: 2
Flags: W
LayerCount: 2
Fore
SplineSet
184 345 m 0,0,1
 184 254 184 254 150 161.5 c 128,-1,2
 116 69 116 69 51 -26 c 1,3,-1
 35 -14 l 1,4,5
 66 30 66 30 90.5 77 c 128,-1,6
 115 124 115 124 131.5 170 c 128,-1,7
 148 216 148 216 156.5 260 c 128,-1,8
 165 304 165 304 165 342 c 0,9,10
 165 387 165 387 153.5 438 c 128,-1,11
 142 489 142 489 124 538.5 c 128,-1,12
 106 588 106 588 82.5 633.5 c 128,-1,13
 59 679 59 679 35 714 c 1,14,-1
 51 726 l 1,15,16
 78 680 78 680 102.5 634 c 128,-1,17
 127 588 127 588 145 540.5 c 128,-1,18
 163 493 163 493 173.5 444.5 c 128,-1,19
 184 396 184 396 184 345 c 0,0,1
EndSplineSet
EndChar

StartChar: asterisk
Encoding: 42 42 14
Width: 302
GlyphClass: 2
Flags: W
LayerCount: 2
Fore
SplineSet
94 564 m 1,0,-1
 135 621 l 1,1,-1
 68 643 l 1,2,-1
 74 662 l 1,3,-1
 141 640 l 1,4,-1
 141 710 l 1,5,-1
 161 710 l 1,6,-1
 161 640 l 1,7,-1
 228 662 l 1,8,-1
 234 643 l 1,9,-1
 167 621 l 1,10,-1
 209 564 l 1,11,-1
 192 552 l 1,12,-1
 151 609 l 1,13,-1
 110 552 l 1,14,-1
 94 564 l 1,0,-1
EndSplineSet
EndChar

StartChar: plus
Encoding: 43 43 15
Width: 412
GlyphClass: 2
Flags: W
LayerCount: 2
Fore
SplineSet
356 365 m 1,0,-1
 356 345 l 1,1,-1
 216 345 l 1,2,-1
 216 195 l 1,3,-1
 196 195 l 1,4,-1
 196 345 l 1,5,-1
 56 345 l 1,6,-1
 56 365 l 1,7,-1
 196 365 l 1,8,-1
 196 515 l 1,9,-1
 216 515 l 1,10,-1
 216 365 l 1,11,-1
 356 365 l 1,0,-1
EndSplineSet
EndChar

StartChar: comma
Encoding: 44 44 16
Width: 260
GlyphClass: 2
Flags: W
LayerCount: 2
Fore
SplineSet
116 -81 m 1,0,-1
 126 -10 l 1,1,-1
 117 -10 l 1,2,-1
 117 64 l 1,3,-1
 143 64 l 1,4,-1
 143 -10 l 1,5,-1
 130 -81 l 1,6,-1
 116 -81 l 1,0,-1
EndSplineSet
EndChar

StartChar: hyphen
Encoding: 45 45 17
Width: 421
GlyphClass: 2
Flags: W
LayerCount: 2
Fore
SplineSet
69 261 m 1,0,-1
 69 281 l 1,1,-1
 352 281 l 1,2,-1
 352 261 l 1,3,-1
 69 261 l 1,0,-1
EndSplineSet
EndChar

StartChar: period
Encoding: 46 46 18
Width: 158
GlyphClass: 2
Flags: W
LayerCount: 2
Fore
SplineSet
69 0 m 1,0,-1
 69 64 l 1,1,-1
 89 64 l 1,2,-1
 89 0 l 1,3,-1
 69 0 l 1,0,-1
EndSplineSet
EndChar

StartChar: slash
Encoding: 47 47 19
Width: 536
GlyphClass: 2
Flags: W
LayerCount: 2
Fore
SplineSet
508 710 m 1,0,-1
 52 0 l 1,1,-1
 27 0 l 1,2,-1
 482 710 l 1,3,-1
 508 710 l 1,0,-1
EndSplineSet
EndChar

StartChar: zero
Encoding: 48 48 20
Width: 668
GlyphClass: 2
Flags: W
LayerCount: 2
Fore
SplineSet
334 -10 m 0,0,1
 264 -8 264 -8 211.5 26 c 128,-1,2
 159 60 159 60 123.5 112 c 128,-1,3
 88 164 88 164 70 227 c 128,-1,4
 52 290 52 290 52 350 c 0,5,6
 52 414 52 414 71.5 478.5 c 128,-1,7
 91 543 91 543 127.5 594.5 c 128,-1,8
 164 646 164 646 216.5 678 c 128,-1,9
 269 710 269 710 334 710 c 0,10,11
 404 710 404 710 456.5 675.5 c 128,-1,12
 509 641 509 641 544.5 588 c 128,-1,13
 580 535 580 535 598 471.5 c 128,-1,14
 616 408 616 408 616 350 c 0,15,16
 616 285 616 285 596.5 221 c 128,-1,17
 577 157 577 157 540.5 106 c 128,-1,18
 504 55 504 55 451.5 23 c 128,-1,19
 399 -9 399 -9 334 -10 c 0,0,1
72 350 m 0,20,21
 74 290 74 290 92 229.5 c 128,-1,22
 110 169 110 169 143 120.5 c 128,-1,23
 176 72 176 72 223.5 41 c 128,-1,24
 271 10 271 10 334 10 c 0,25,26
 399 10 399 10 448 43 c 128,-1,27
 497 76 497 76 530 126 c 128,-1,28
 563 176 563 176 579.5 236 c 128,-1,29
 596 296 596 296 596 350 c 0,30,31
 596 410 596 410 578 470.5 c 128,-1,32
 560 531 560 531 526 579.5 c 128,-1,33
 492 628 492 628 443.5 659 c 128,-1,34
 395 690 395 690 334 690 c 0,35,36
 269 690 269 690 220 657 c 128,-1,37
 171 624 171 624 138 573.5 c 128,-1,38
 105 523 105 523 88.5 463.5 c 128,-1,39
 72 404 72 404 72 350 c 0,20,21
EndSplineSet
Substitution2: "'lnum' Lining Figures in Latin lookup 3 subtable" zero.lnum
Substitution2: "'aalt' Access All Alternates in Latin lookup 0 subtable" zero.lnum
EndChar

StartChar: one
Encoding: 49 49 21
Width: 357
GlyphClass: 2
Flags: W
LayerCount: 2
Fore
SplineSet
341 20 m 1,0,-1
 341 0 l 1,1,-1
 62 0 l 1,2,-1
 62 20 l 1,3,-1
 194 20 l 1,4,-1
 194 687 l 1,5,6
 186 675 186 675 168 660.5 c 128,-1,7
 150 646 150 646 128.5 632.5 c 128,-1,8
 107 619 107 619 83 610 c 128,-1,9
 59 601 59 601 39 601 c 1,10,-1
 39 621 l 1,11,12
 65 621 65 621 92 636 c 128,-1,13
 119 651 119 651 141.5 669 c 128,-1,14
 164 687 164 687 178.5 702.5 c 128,-1,15
 193 718 193 718 194 720 c 2,16,-1
 214 720 l 1,17,-1
 214 20 l 1,18,-1
 341 20 l 1,0,-1
EndSplineSet
Substitution2: "'lnum' Lining Figures in Latin lookup 3 subtable" one.lnum
Substitution2: "'aalt' Access All Alternates in Latin lookup 0 subtable" one.lnum
EndChar

StartChar: two
Encoding: 50 50 22
Width: 561
GlyphClass: 2
Flags: W
LayerCount: 2
Fore
SplineSet
52 0 m 1,0,1
 51 8 51 8 51 15.5 c 128,-1,2
 51 23 51 23 51 31 c 0,3,4
 51 92 51 92 66.5 138 c 128,-1,5
 82 184 82 184 109 218.5 c 128,-1,6
 136 253 136 253 173 277.5 c 128,-1,7
 210 302 210 302 253 319 c 0,8,9
 290 334 290 334 330.5 348.5 c 128,-1,10
 371 363 371 363 405 385 c 128,-1,11
 439 407 439 407 461.5 439.5 c 128,-1,12
 484 472 484 472 484 522 c 0,13,14
 484 555 484 555 472.5 587 c 128,-1,15
 461 619 461 619 437.5 644 c 128,-1,16
 414 669 414 669 377.5 684 c 128,-1,17
 341 699 341 699 292 699 c 0,18,19
 246 699 246 699 210.5 686.5 c 128,-1,20
 175 674 175 674 149 656 c 128,-1,21
 123 638 123 638 105.5 618 c 128,-1,22
 88 598 88 598 78 583 c 1,23,-1
 61 593 l 2,24,25
 61 594 61 594 75 614 c 128,-1,26
 89 634 89 634 118 657 c 128,-1,27
 147 680 147 680 190.5 699.5 c 128,-1,28
 234 719 234 719 294 719 c 0,29,30
 348 719 348 719 387.5 702 c 128,-1,31
 427 685 427 685 453 657 c 128,-1,32
 479 629 479 629 491.5 593.5 c 128,-1,33
 504 558 504 558 504 521 c 0,34,35
 504 465 504 465 479 429 c 128,-1,36
 454 393 454 393 417 369 c 128,-1,37
 380 345 380 345 337.5 330 c 128,-1,38
 295 315 295 315 261 301 c 0,39,40
 193 274 193 274 155 237.5 c 128,-1,41
 117 201 117 201 98.5 162.5 c 128,-1,42
 80 124 80 124 75.5 86.5 c 128,-1,43
 71 49 71 49 71 20 c 1,44,-1
 505 20 l 1,45,-1
 505 0 l 1,46,-1
 52 0 l 1,0,1
EndSplineSet
Substitution2: "'lnum' Lining Figures in Latin lookup 3 subtable" two.lnum
Substitution2: "'aalt' Access All Alternates in Latin lookup 0 subtable" two.lnum
EndChar

StartChar: three
Encoding: 51 51 23
Width: 583
GlyphClass: 2
Flags: W
LayerCount: 2
Fore
SplineSet
295 -9 m 0,0,1
 244 -9 244 -9 200.5 5 c 128,-1,2
 157 19 157 19 125 43.5 c 128,-1,3
 93 68 93 68 74 102 c 128,-1,4
 55 136 55 136 54 176 c 1,5,-1
 74 176 l 1,6,7
 75 141 75 141 93 111 c 128,-1,8
 111 81 111 81 141 58.5 c 128,-1,9
 171 36 171 36 211 23.5 c 128,-1,10
 251 11 251 11 296 11 c 0,11,12
 342 11 342 11 381 23.5 c 128,-1,13
 420 36 420 36 448.5 58.5 c 128,-1,14
 477 81 477 81 493 112 c 128,-1,15
 509 143 509 143 509 179 c 0,16,17
 509 218 509 218 491.5 249.5 c 128,-1,18
 474 281 474 281 441.5 303.5 c 128,-1,19
 409 326 409 326 364 338 c 128,-1,20
 319 350 319 350 264 350 c 2,21,-1
 229 350 l 1,22,-1
 229 370 l 1,23,-1
 264 370 l 2,24,25
 374 370 374 370 431.5 408.5 c 128,-1,26
 489 447 489 447 489 521 c 0,27,28
 489 560 489 560 473.5 592.5 c 128,-1,29
 458 625 458 625 430 648.5 c 128,-1,30
 402 672 402 672 364 685.5 c 128,-1,31
 326 699 326 699 281 699 c 0,32,33
 212 699 212 699 158.5 668 c 128,-1,34
 105 637 105 637 84 584 c 1,35,-1
 66 592 l 1,36,37
 78 621 78 621 99 644.5 c 128,-1,38
 120 668 120 668 148 684.5 c 128,-1,39
 176 701 176 701 210 710 c 128,-1,40
 244 719 244 719 281 719 c 0,41,42
 330 719 330 719 372 704 c 128,-1,43
 414 689 414 689 444.5 662.5 c 128,-1,44
 475 636 475 636 492 599.5 c 128,-1,45
 509 563 509 563 509 521 c 0,46,47
 509 396 509 396 365 359 c 1,48,49
 402 352 402 352 432.5 335.5 c 128,-1,50
 463 319 463 319 484.5 295 c 128,-1,51
 506 271 506 271 517.5 241.5 c 128,-1,52
 529 212 529 212 529 178 c 0,53,54
 529 138 529 138 511 104 c 128,-1,55
 493 70 493 70 461.5 45 c 128,-1,56
 430 20 430 20 387.5 5.5 c 128,-1,57
 345 -9 345 -9 295 -9 c 0,0,1
EndSplineSet
Substitution2: "'lnum' Lining Figures in Latin lookup 3 subtable" three.lnum
Substitution2: "'aalt' Access All Alternates in Latin lookup 0 subtable" three.lnum
EndChar

StartChar: four
Encoding: 52 52 24
Width: 550
GlyphClass: 2
Flags: W
LayerCount: 2
Fore
SplineSet
409 0 m 1,0,-1
 409 211 l 1,1,-1
 24 211 l 1,2,-1
 24 228 l 1,3,-1
 415 710 l 1,4,-1
 429 710 l 1,5,-1
 429 231 l 1,6,-1
 517 231 l 1,7,-1
 517 211 l 1,8,-1
 429 211 l 1,9,-1
 429 0 l 1,10,-1
 409 0 l 1,0,-1
52 231 m 1,11,-1
 409 231 l 1,12,-1
 409 673 l 1,13,-1
 52 231 l 1,11,-1
EndSplineSet
Substitution2: "'lnum' Lining Figures in Latin lookup 3 subtable" four.lnum
Substitution2: "'aalt' Access All Alternates in Latin lookup 0 subtable" four.lnum
EndChar

StartChar: five
Encoding: 53 53 25
Width: 550
GlyphClass: 2
Flags: W
LayerCount: 2
Fore
SplineSet
275 445 m 0,0,1
 322 445 322 445 364 428.5 c 128,-1,2
 406 412 406 412 437.5 382.5 c 128,-1,3
 469 353 469 353 487 311.5 c 128,-1,4
 505 270 505 270 505 221 c 0,5,6
 505 169 505 169 486 126.5 c 128,-1,7
 467 84 467 84 434.5 53.5 c 128,-1,8
 402 23 402 23 359.5 6.5 c 128,-1,9
 317 -10 317 -10 270 -10 c 0,10,11
 232 -10 232 -10 198 0.5 c 128,-1,12
 164 11 164 11 135 30.5 c 128,-1,13
 106 50 106 50 83.5 76.5 c 128,-1,14
 61 103 61 103 46 136 c 1,15,-1
 68 136 l 1,16,17
 95 79 95 79 149 44.5 c 128,-1,18
 203 10 203 10 270 10 c 0,19,20
 315 10 315 10 354 25.5 c 128,-1,21
 393 41 393 41 422 69 c 128,-1,22
 451 97 451 97 468 135.5 c 128,-1,23
 485 174 485 174 485 221 c 0,24,25
 485 266 485 266 468.5 303.5 c 128,-1,26
 452 341 452 341 423.5 368 c 128,-1,27
 395 395 395 395 357 410 c 128,-1,28
 319 425 319 425 275 425 c 0,29,30
 218 425 218 425 167 400 c 128,-1,31
 116 375 116 375 83 327 c 1,32,-1
 59 327 l 1,33,34
 61 336 61 336 65.5 357 c 128,-1,35
 70 378 70 378 76 406.5 c 128,-1,36
 82 435 82 435 88.5 468.5 c 128,-1,37
 95 502 95 502 102 536 c 0,38,39
 118 615 118 615 137 710 c 1,40,-1
 474 710 l 1,41,-1
 474 690 l 1,42,-1
 154 690 l 1,43,-1
 89 365 l 1,44,45
 125 404 125 404 173.5 424.5 c 128,-1,46
 222 445 222 445 275 445 c 0,0,1
EndSplineSet
Substitution2: "'lnum' Lining Figures in Latin lookup 3 subtable" five.lnum
Substitution2: "'aalt' Access All Alternates in Latin lookup 0 subtable" five.lnum
EndChar

StartChar: six
Encoding: 54 54 26
Width: 595
GlyphClass: 2
Flags: W
LayerCount: 2
Fore
SplineSet
552 232 m 256,0,1
 552 182 552 182 533 138 c 128,-1,2
 514 94 514 94 480.5 61 c 128,-1,3
 447 28 447 28 402 9 c 128,-1,4
 357 -10 357 -10 306 -10 c 0,5,6
 253 -10 253 -10 207.5 9 c 128,-1,7
 162 28 162 28 128 64 c 128,-1,8
 94 100 94 100 75 151 c 128,-1,9
 56 202 56 202 56 266 c 0,10,11
 56 383 56 383 74.5 467.5 c 128,-1,12
 93 552 93 552 126.5 607 c 128,-1,13
 160 662 160 662 206 688.5 c 128,-1,14
 252 715 252 715 308 715 c 0,15,16
 381 715 381 715 436.5 675.5 c 128,-1,17
 492 636 492 636 514 568 c 1,18,-1
 495 561 l 1,19,20
 486 591 486 591 467.5 615.5 c 128,-1,21
 449 640 449 640 424.5 658 c 128,-1,22
 400 676 400 676 370.5 685.5 c 128,-1,23
 341 695 341 695 309 695 c 0,24,25
 257 695 257 695 214.5 669 c 128,-1,26
 172 643 172 643 141.5 593.5 c 128,-1,27
 111 544 111 544 94.5 472 c 128,-1,28
 78 400 78 400 78 308 c 1,29,30
 90 345 90 345 112.5 376 c 128,-1,31
 135 407 135 407 166 429 c 128,-1,32
 197 451 197 451 233.5 463 c 128,-1,33
 270 475 270 475 310 475 c 0,34,35
 360 475 360 475 404 456 c 128,-1,36
 448 437 448 437 481 404 c 128,-1,37
 514 371 514 371 533 326.5 c 128,-1,38
 552 282 552 282 552 232 c 256,0,1
308 10 m 256,39,40
 354 10 354 10 395 27.5 c 128,-1,41
 436 45 436 45 466.5 75 c 128,-1,42
 497 105 497 105 514.5 145.5 c 128,-1,43
 532 186 532 186 532 231 c 0,44,45
 532 277 532 277 514 317.5 c 128,-1,46
 496 358 496 358 465 388.5 c 128,-1,47
 434 419 434 419 393.5 437 c 128,-1,48
 353 455 353 455 307 455 c 256,49,50
 261 455 261 455 220 437 c 128,-1,51
 179 419 179 419 148.5 388.5 c 128,-1,52
 118 358 118 358 100 317.5 c 128,-1,53
 82 277 82 277 82 232 c 256,54,55
 82 187 82 187 100 146.5 c 128,-1,56
 118 106 118 106 149 75.5 c 128,-1,57
 180 45 180 45 221 27.5 c 128,-1,58
 262 10 262 10 308 10 c 256,39,40
EndSplineSet
Substitution2: "'lnum' Lining Figures in Latin lookup 3 subtable" six.lnum
Substitution2: "'aalt' Access All Alternates in Latin lookup 0 subtable" six.lnum
EndChar

StartChar: seven
Encoding: 55 55 27
Width: 491
GlyphClass: 2
Flags: W
LayerCount: 2
Fore
SplineSet
456 690 m 1,0,-1
 29 690 l 1,1,-1
 29 710 l 1,2,-1
 489 710 l 1,3,-1
 125 0 l 1,4,-1
 102 0 l 1,5,-1
 456 690 l 1,0,-1
EndSplineSet
Substitution2: "'lnum' Lining Figures in Latin lookup 3 subtable" seven.lnum
Substitution2: "'aalt' Access All Alternates in Latin lookup 0 subtable" seven.lnum
EndChar

StartChar: eight
Encoding: 56 56 28
Width: 581
GlyphClass: 2
Flags: W
LayerCount: 2
Fore
SplineSet
528 188 m 0,0,1
 528 143 528 143 508.5 107 c 128,-1,2
 489 71 489 71 455.5 45.5 c 128,-1,3
 422 20 422 20 378.5 6.5 c 128,-1,4
 335 -7 335 -7 287 -7 c 0,5,6
 233 -7 233 -7 190 9.5 c 128,-1,7
 147 26 147 26 116.5 53 c 128,-1,8
 86 80 86 80 69.5 115.5 c 128,-1,9
 53 151 53 151 53 190 c 0,10,11
 53 227 53 227 67 258.5 c 128,-1,12
 81 290 81 290 104.5 314.5 c 128,-1,13
 128 339 128 339 157.5 356 c 128,-1,14
 187 373 187 373 217 381 c 1,15,16
 189 391 189 391 164 406 c 128,-1,17
 139 421 139 421 120 441 c 128,-1,18
 101 461 101 461 90 486 c 128,-1,19
 79 511 79 511 79 541 c 0,20,21
 79 582 79 582 97.5 613.5 c 128,-1,22
 116 645 116 645 146 666.5 c 128,-1,23
 176 688 176 688 214 699 c 128,-1,24
 252 710 252 710 291 710 c 256,25,26
 330 710 330 710 368 699 c 128,-1,27
 406 688 406 688 435.5 666.5 c 128,-1,28
 465 645 465 645 483.5 613.5 c 128,-1,29
 502 582 502 582 502 541 c 0,30,31
 502 511 502 511 490.5 486 c 128,-1,32
 479 461 479 461 460 441 c 128,-1,33
 441 421 441 421 416 406 c 128,-1,34
 391 391 391 391 363 381 c 1,35,36
 398 371 398 371 428 353 c 128,-1,37
 458 335 458 335 480.5 310 c 128,-1,38
 503 285 503 285 515.5 254.5 c 128,-1,39
 528 224 528 224 528 188 c 0,0,1
508 191 m 0,40,41
 508 234 508 234 488 267.5 c 128,-1,42
 468 301 468 301 436 324 c 128,-1,43
 404 347 404 347 365 359 c 128,-1,44
 326 371 326 371 289 371 c 0,45,46
 250 371 250 371 211.5 358 c 128,-1,47
 173 345 173 345 142 321 c 128,-1,48
 111 297 111 297 92 263.5 c 128,-1,49
 73 230 73 230 73 189 c 0,50,51
 73 146 73 146 93 113 c 128,-1,52
 113 80 113 80 145 57 c 128,-1,53
 177 34 177 34 215.5 22 c 128,-1,54
 254 10 254 10 292 10 c 0,55,56
 331 10 331 10 369.5 22.5 c 128,-1,57
 408 35 408 35 438.5 58.5 c 128,-1,58
 469 82 469 82 488.5 115.5 c 128,-1,59
 508 149 508 149 508 191 c 0,40,41
99 539 m 256,60,61
 99 503 99 503 116.5 475.5 c 128,-1,62
 134 448 134 448 162 429.5 c 128,-1,63
 190 411 190 411 223.5 401 c 128,-1,64
 257 391 257 391 290 391 c 256,65,66
 323 391 323 391 357 401 c 128,-1,67
 391 411 391 411 419 430.5 c 128,-1,68
 447 450 447 450 464.5 477.5 c 128,-1,69
 482 505 482 505 482 541 c 256,70,71
 482 577 482 577 465.5 604.5 c 128,-1,72
 449 632 449 632 422 651 c 128,-1,73
 395 670 395 670 360 680 c 128,-1,74
 325 690 325 690 289 690 c 256,75,76
 253 690 253 690 218.5 680 c 128,-1,77
 184 670 184 670 157.5 650.5 c 128,-1,78
 131 631 131 631 115 603 c 128,-1,79
 99 575 99 575 99 539 c 256,60,61
EndSplineSet
Substitution2: "'lnum' Lining Figures in Latin lookup 3 subtable" eight.lnum
Substitution2: "'aalt' Access All Alternates in Latin lookup 0 subtable" eight.lnum
EndChar

StartChar: nine
Encoding: 57 57 29
Width: 595
GlyphClass: 2
Flags: W
LayerCount: 2
Fore
SplineSet
43 473 m 256,0,1
 43 523 43 523 62 567 c 128,-1,2
 81 611 81 611 114.5 644 c 128,-1,3
 148 677 148 677 193 696 c 128,-1,4
 238 715 238 715 289 715 c 0,5,6
 342 715 342 715 387.5 696 c 128,-1,7
 433 677 433 677 467 641 c 128,-1,8
 501 605 501 605 520 554 c 128,-1,9
 539 503 539 503 539 439 c 0,10,11
 539 322 539 322 520.5 237.5 c 128,-1,12
 502 153 502 153 468.5 98 c 128,-1,13
 435 43 435 43 388.5 16.5 c 128,-1,14
 342 -10 342 -10 287 -10 c 0,15,16
 214 -10 214 -10 158.5 29.5 c 128,-1,17
 103 69 103 69 81 137 c 1,18,-1
 100 144 l 1,19,20
 109 114 109 114 127.5 89.5 c 128,-1,21
 146 65 146 65 170.5 47 c 128,-1,22
 195 29 195 29 224.5 19.5 c 128,-1,23
 254 10 254 10 286 10 c 0,24,25
 338 10 338 10 380.5 36 c 128,-1,26
 423 62 423 62 453.5 111.5 c 128,-1,27
 484 161 484 161 500.5 233 c 128,-1,28
 517 305 517 305 517 397 c 1,29,30
 505 360 505 360 482.5 329 c 128,-1,31
 460 298 460 298 429 276 c 128,-1,32
 398 254 398 254 361.5 242 c 128,-1,33
 325 230 325 230 285 230 c 0,34,35
 235 230 235 230 191 249 c 128,-1,36
 147 268 147 268 114 301 c 128,-1,37
 81 334 81 334 62 378.5 c 128,-1,38
 43 423 43 423 43 473 c 256,0,1
287 695 m 256,39,40
 241 695 241 695 200 677.5 c 128,-1,41
 159 660 159 660 128.5 630 c 128,-1,42
 98 600 98 600 80.5 559.5 c 128,-1,43
 63 519 63 519 63 474 c 0,44,45
 63 428 63 428 81 387.5 c 128,-1,46
 99 347 99 347 129.5 316.5 c 128,-1,47
 160 286 160 286 201 268 c 128,-1,48
 242 250 242 250 288 250 c 256,49,50
 334 250 334 250 375 268 c 128,-1,51
 416 286 416 286 446.5 316.5 c 128,-1,52
 477 347 477 347 495 387.5 c 128,-1,53
 513 428 513 428 513 473 c 256,54,55
 513 518 513 518 495 558.5 c 128,-1,56
 477 599 477 599 446 629.5 c 128,-1,57
 415 660 415 660 374 677.5 c 128,-1,58
 333 695 333 695 287 695 c 256,39,40
EndSplineSet
Substitution2: "'lnum' Lining Figures in Latin lookup 3 subtable" nine.lnum
Substitution2: "'aalt' Access All Alternates in Latin lookup 0 subtable" nine.lnum
EndChar

StartChar: colon
Encoding: 58 58 30
Width: 158
GlyphClass: 2
Flags: W
LayerCount: 2
Fore
SplineSet
69 453 m 1,0,-1
 69 517 l 1,1,-1
 89 517 l 1,2,-1
 89 453 l 1,3,-1
 69 453 l 1,0,-1
69 0 m 1,4,-1
 69 64 l 1,5,-1
 89 64 l 1,6,-1
 89 0 l 1,7,-1
 69 0 l 1,4,-1
EndSplineSet
EndChar

StartChar: semicolon
Encoding: 59 59 31
Width: 168
GlyphClass: 2
Flags: W
LayerCount: 2
Fore
SplineSet
73 453 m 1,0,-1
 73 517 l 1,1,-1
 93 517 l 1,2,-1
 93 453 l 1,3,-1
 73 453 l 1,0,-1
70 -81 m 1,4,-1
 80 -10 l 1,5,-1
 71 -10 l 1,6,-1
 71 64 l 1,7,-1
 97 64 l 1,8,-1
 97 -10 l 1,9,-1
 84 -81 l 1,10,-1
 70 -81 l 1,4,-1
EndSplineSet
EndChar

StartChar: less
Encoding: 60 60 32
Width: 502
GlyphClass: 2
Flags: W
LayerCount: 2
Fore
SplineSet
34 268 m 1,0,-1
 451 517 l 1,1,-1
 451 495 l 1,2,-1
 63 259 l 1,3,-1
 451 22 l 1,4,-1
 451 0 l 1,5,-1
 34 250 l 1,6,-1
 34 268 l 1,0,-1
EndSplineSet
EndChar

StartChar: equal
Encoding: 61 61 33
Width: 435
GlyphClass: 2
Flags: W
LayerCount: 2
Fore
SplineSet
71 231 m 1,0,-1
 71 251 l 1,1,-1
 364 251 l 1,2,-1
 364 231 l 1,3,-1
 71 231 l 1,0,-1
71 301 m 1,4,-1
 71 321 l 1,5,-1
 364 321 l 1,6,-1
 364 301 l 1,7,-1
 71 301 l 1,4,-1
EndSplineSet
EndChar

StartChar: greater
Encoding: 62 62 34
Width: 502
GlyphClass: 2
Flags: W
LayerCount: 2
Fore
SplineSet
468 250 m 1,0,-1
 51 0 l 1,1,-1
 51 22 l 1,2,-1
 439 259 l 1,3,-1
 51 495 l 1,4,-1
 51 517 l 1,5,-1
 468 268 l 1,6,-1
 468 250 l 1,0,-1
EndSplineSet
EndChar

StartChar: question
Encoding: 63 63 35
Width: 468
GlyphClass: 2
Flags: W
LayerCount: 2
Fore
SplineSet
178 179 m 1,0,1
 178 227 178 227 184.5 258.5 c 128,-1,2
 191 290 191 290 202.5 311 c 128,-1,3
 214 332 214 332 230 344.5 c 128,-1,4
 246 357 246 357 264 366 c 0,5,6
 288 378 288 378 313.5 390 c 128,-1,7
 339 402 339 402 360.5 420 c 128,-1,8
 382 438 382 438 396 465 c 128,-1,9
 410 492 410 492 410 535 c 256,10,11
 410 578 410 578 396 609 c 128,-1,12
 382 640 382 640 358.5 660 c 128,-1,13
 335 680 335 680 305 689.5 c 128,-1,14
 275 699 275 699 244 699 c 0,15,16
 214 699 214 699 185 691 c 128,-1,17
 156 683 156 683 131 667.5 c 128,-1,18
 106 652 106 652 86 630.5 c 128,-1,19
 66 609 66 609 53 582 c 1,20,-1
 35 590 l 1,21,22
 49 621 49 621 71.5 645 c 128,-1,23
 94 669 94 669 121.5 685.5 c 128,-1,24
 149 702 149 702 180.5 710.5 c 128,-1,25
 212 719 212 719 243 719 c 0,26,27
 279 719 279 719 313 707 c 128,-1,28
 347 695 347 695 373 671.5 c 128,-1,29
 399 648 399 648 414.5 613 c 128,-1,30
 430 578 430 578 430 532 c 0,31,32
 430 487 430 487 415.5 457.5 c 128,-1,33
 401 428 401 428 378 408.5 c 128,-1,34
 355 389 355 389 327 375.5 c 128,-1,35
 299 362 299 362 272 347 c 0,36,37
 256 338 256 338 242.5 327.5 c 128,-1,38
 229 317 229 317 219 298.5 c 128,-1,39
 209 280 209 280 203.5 251.5 c 128,-1,40
 198 223 198 223 198 179 c 1,41,-1
 178 179 l 1,0,1
178 0 m 1,42,-1
 178 84 l 1,43,-1
 198 84 l 1,44,-1
 198 0 l 1,45,-1
 178 0 l 1,42,-1
EndSplineSet
EndChar

StartChar: at
Encoding: 64 64 36
Width: 830
GlyphClass: 2
Flags: W
LayerCount: 2
Fore
SplineSet
413 603 m 0,0,1
 487 603 487 603 552 573 c 128,-1,2
 617 543 617 543 665 491.5 c 128,-1,3
 713 440 713 440 741 370.5 c 128,-1,4
 769 301 769 301 769 222 c 0,5,6
 769 208 769 208 767.5 184.5 c 128,-1,7
 766 161 766 161 761 134.5 c 128,-1,8
 756 108 756 108 747 81 c 128,-1,9
 738 54 738 54 722.5 32.5 c 128,-1,10
 707 11 707 11 684 -2.5 c 128,-1,11
 661 -16 661 -16 629 -16 c 0,12,13
 605 -16 605 -16 591 -8.5 c 128,-1,14
 577 -1 577 -1 569.5 12.5 c 128,-1,15
 562 26 562 26 559 44.5 c 128,-1,16
 556 63 556 63 554 84 c 1,17,18
 528 55 528 55 483.5 33.5 c 128,-1,19
 439 12 439 12 387 12 c 0,20,21
 354 12 354 12 327 21.5 c 128,-1,22
 300 31 300 31 281 48 c 128,-1,23
 262 65 262 65 251.5 88.5 c 128,-1,24
 241 112 241 112 241 140 c 0,25,26
 241 176 241 176 257 200 c 128,-1,27
 273 224 273 224 299 238.5 c 128,-1,28
 325 253 325 253 357.5 259 c 128,-1,29
 390 265 390 265 422 265 c 0,30,31
 467 265 467 265 504 256.5 c 128,-1,32
 541 248 541 248 558 242 c 1,33,34
 558 283 558 283 552 317.5 c 128,-1,35
 546 352 546 352 531 376.5 c 128,-1,36
 516 401 516 401 490.5 415 c 128,-1,37
 465 429 465 429 426 429 c 0,38,39
 388 429 388 429 351 416.5 c 128,-1,40
 314 404 314 404 282 381 c 1,41,-1
 270 397 l 1,42,43
 305 420 305 420 343.5 434.5 c 128,-1,44
 382 449 382 449 427 449 c 0,45,46
 476 449 476 449 505.5 431.5 c 128,-1,47
 535 414 535 414 551 385.5 c 128,-1,48
 567 357 567 357 572 321 c 128,-1,49
 577 285 577 285 577 248 c 2,50,-1
 577 95 l 2,51,52
 577 50 577 50 586.5 27 c 128,-1,53
 596 4 596 4 630 4 c 256,54,55
 664 4 664 4 687 26.5 c 128,-1,56
 710 49 710 49 724 82 c 128,-1,57
 738 115 738 115 743.5 153 c 128,-1,58
 749 191 749 191 749 223 c 0,59,60
 749 298 749 298 722.5 363.5 c 128,-1,61
 696 429 696 429 650.5 477.5 c 128,-1,62
 605 526 605 526 543.5 554.5 c 128,-1,63
 482 583 482 583 413 583 c 0,64,65
 346 583 346 583 284 556.5 c 128,-1,66
 222 530 222 530 174.5 483 c 128,-1,67
 127 436 127 436 98.5 371.5 c 128,-1,68
 70 307 70 307 70 230 c 0,69,70
 70 156 70 156 97 91 c 128,-1,71
 124 26 124 26 170.5 -22 c 128,-1,72
 217 -70 217 -70 279 -98 c 128,-1,73
 341 -126 341 -126 412 -126 c 0,74,75
 451 -126 451 -126 489.5 -117 c 128,-1,76
 528 -108 528 -108 564 -88 c 1,77,-1
 574 -106 l 1,78,79
 497 -146 497 -146 412 -146 c 0,80,81
 338 -146 338 -146 272 -117 c 128,-1,82
 206 -88 206 -88 156.5 -37 c 128,-1,83
 107 14 107 14 78.5 82.5 c 128,-1,84
 50 151 50 151 50 230 c 0,85,86
 50 312 50 312 80.5 380.5 c 128,-1,87
 111 449 111 449 161 498.5 c 128,-1,88
 211 548 211 548 276.5 575.5 c 128,-1,89
 342 603 342 603 413 603 c 0,0,1
484 55 m 0,90,91
 509 67 509 67 523.5 81 c 128,-1,92
 538 95 538 95 545.5 110.5 c 128,-1,93
 553 126 553 126 555 142.5 c 128,-1,94
 557 159 557 159 557 174 c 2,95,-1
 557 221 l 1,96,97
 551 221 551 221 539 224.5 c 128,-1,98
 527 228 527 228 509.5 232.5 c 128,-1,99
 492 237 492 237 468.5 241 c 128,-1,100
 445 245 445 245 417 245 c 0,101,102
 388 245 388 245 360.5 240 c 128,-1,103
 333 235 333 235 310.5 223 c 128,-1,104
 288 211 288 211 274.5 190.5 c 128,-1,105
 261 170 261 170 261 140 c 0,106,107
 261 114 261 114 271.5 93.5 c 128,-1,108
 282 73 282 73 299.5 59.5 c 128,-1,109
 317 46 317 46 339.5 39 c 128,-1,110
 362 32 362 32 387 32 c 0,111,112
 413 32 413 32 439 39 c 128,-1,113
 465 46 465 46 484 55 c 0,90,91
EndSplineSet
EndChar

StartChar: A
Encoding: 65 65 37
Width: 674
GlyphClass: 2
Flags: W
LayerCount: 2
Fore
SplineSet
328 710 m 1,0,-1
 346 710 l 1,1,-1
 655 0 l 1,2,-1
 633 0 l 1,3,-1
 522 254 l 1,4,-1
 151 254 l 1,5,-1
 40 0 l 1,6,-1
 18 0 l 1,7,-1
 328 710 l 1,0,-1
513 274 m 1,8,-1
 337 681 l 1,9,-1
 159 274 l 1,10,-1
 513 274 l 1,8,-1
EndSplineSet
EndChar

StartChar: B
Encoding: 66 66 38
Width: 655
GlyphClass: 2
Flags: W
LayerCount: 2
Fore
SplineSet
605 184 m 0,0,1
 605 147 605 147 591 114 c 128,-1,2
 577 81 577 81 553 55.5 c 128,-1,3
 529 30 529 30 496.5 15 c 128,-1,4
 464 0 464 0 428 0 c 2,5,-1
 99 0 l 1,6,-1
 99 710 l 1,7,-1
 413 710 l 2,8,9
 450 710 450 710 480 694 c 128,-1,10
 510 678 510 678 531 652.5 c 128,-1,11
 552 627 552 627 563.5 594.5 c 128,-1,12
 575 562 575 562 575 529 c 0,13,14
 575 475 575 475 547.5 430 c 128,-1,15
 520 385 520 385 473 364 c 1,16,17
 503 355 503 355 527.5 337 c 128,-1,18
 552 319 552 319 569.5 295 c 128,-1,19
 587 271 587 271 596 242.5 c 128,-1,20
 605 214 605 214 605 184 c 0,0,1
585 184 m 0,21,22
 585 216 585 216 573.5 245.5 c 128,-1,23
 562 275 562 275 542 298 c 128,-1,24
 522 321 522 321 494.5 334.5 c 128,-1,25
 467 348 467 348 435 348 c 2,26,-1
 119 348 l 1,27,-1
 119 20 l 1,28,-1
 428 20 l 2,29,30
 461 20 461 20 489.5 34 c 128,-1,31
 518 48 518 48 539.5 71 c 128,-1,32
 561 94 561 94 573 123.5 c 128,-1,33
 585 153 585 153 585 184 c 0,21,22
119 690 m 1,34,-1
 119 368 l 1,35,-1
 407 368 l 2,36,37
 440 368 440 368 467 382 c 128,-1,38
 494 396 494 396 513.5 419 c 128,-1,39
 533 442 533 442 544 470.5 c 128,-1,40
 555 499 555 499 555 529 c 0,41,42
 555 561 555 561 544.5 590 c 128,-1,43
 534 619 534 619 515.5 641.5 c 128,-1,44
 497 664 497 664 470.5 677 c 128,-1,45
 444 690 444 690 413 690 c 2,46,-1
 119 690 l 1,34,-1
EndSplineSet
EndChar

StartChar: C
Encoding: 67 67 39
Width: 697
GlyphClass: 2
Flags: W
LayerCount: 2
Fore
SplineSet
48 360 m 0,0,1
 48 424 48 424 70.5 487 c 128,-1,2
 93 550 93 550 135.5 600.5 c 128,-1,3
 178 651 178 651 240.5 682.5 c 128,-1,4
 303 714 303 714 383 714 c 0,5,6
 478 714 478 714 544 670.5 c 128,-1,7
 610 627 610 627 642 559 c 1,8,-1
 623 553 l 1,9,10
 602 592 602 592 574.5 619 c 128,-1,11
 547 646 547 646 514.5 662.5 c 128,-1,12
 482 679 482 679 447.5 686.5 c 128,-1,13
 413 694 413 694 379 694 c 0,14,15
 305 694 305 694 247 664.5 c 128,-1,16
 189 635 189 635 149 587 c 128,-1,17
 109 539 109 539 88.5 478.5 c 128,-1,18
 68 418 68 418 68 357 c 0,19,20
 68 289 68 289 92.5 227 c 128,-1,21
 117 165 117 165 159.5 117.5 c 128,-1,22
 202 70 202 70 259 42 c 128,-1,23
 316 14 316 14 382 14 c 0,24,25
 417 14 417 14 454 23 c 128,-1,26
 491 32 491 32 525.5 50 c 128,-1,27
 560 68 560 68 589.5 96.5 c 128,-1,28
 619 125 619 125 640 164 c 1,29,-1
 659 159 l 1,30,31
 641 119 641 119 610 88 c 128,-1,32
 579 57 579 57 541 36 c 128,-1,33
 503 15 503 15 460.5 4.5 c 128,-1,34
 418 -6 418 -6 378 -6 c 0,35,36
 306 -6 306 -6 245 26 c 128,-1,37
 184 58 184 58 140.5 109.5 c 128,-1,38
 97 161 97 161 72.5 226.5 c 128,-1,39
 48 292 48 292 48 360 c 0,0,1
EndSplineSet
EndChar

StartChar: D
Encoding: 68 68 40
Width: 711
GlyphClass: 2
Flags: W
LayerCount: 2
Fore
SplineSet
99 0 m 1,0,-1
 99 710 l 1,1,-1
 327 710 l 2,2,3
 411 710 411 710 473.5 682 c 128,-1,4
 536 654 536 654 577.5 606 c 128,-1,5
 619 558 619 558 639.5 493.5 c 128,-1,6
 660 429 660 429 660 356 c 0,7,8
 660 275 660 275 636.5 209.5 c 128,-1,9
 613 144 613 144 570 97.5 c 128,-1,10
 527 51 527 51 465 25.5 c 128,-1,11
 403 0 403 0 327 0 c 2,12,-1
 99 0 l 1,0,-1
640 356 m 0,13,14
 640 429 640 429 619.5 490 c 128,-1,15
 599 551 599 551 559 595.5 c 128,-1,16
 519 640 519 640 460.5 665 c 128,-1,17
 402 690 402 690 327 690 c 2,18,-1
 119 690 l 1,19,-1
 119 20 l 1,20,-1
 327 20 l 2,21,22
 404 20 404 20 462.5 45.5 c 128,-1,23
 521 71 521 71 560.5 116 c 128,-1,24
 600 161 600 161 620 222.5 c 128,-1,25
 640 284 640 284 640 356 c 0,13,14
EndSplineSet
EndChar

StartChar: E
Encoding: 69 69 41
Width: 617
GlyphClass: 2
Flags: W
LayerCount: 2
Fore
SplineSet
565 20 m 1,0,-1
 565 0 l 1,1,-1
 99 0 l 1,2,-1
 99 710 l 1,3,-1
 556 710 l 1,4,-1
 556 690 l 1,5,-1
 119 690 l 1,6,-1
 119 373 l 1,7,-1
 502 373 l 1,8,-1
 502 353 l 1,9,-1
 119 353 l 1,10,-1
 119 20 l 1,11,-1
 565 20 l 1,0,-1
EndSplineSet
EndChar

StartChar: F
Encoding: 70 70 42
Width: 602
GlyphClass: 2
Flags: W
LayerCount: 2
Fore
SplineSet
99 0 m 1,0,-1
 99 710 l 1,1,-1
 556 710 l 1,2,-1
 556 690 l 1,3,-1
 119 690 l 1,4,-1
 119 374 l 1,5,-1
 492 374 l 1,6,-1
 492 354 l 1,7,-1
 119 354 l 1,8,-1
 119 0 l 1,9,-1
 99 0 l 1,0,-1
EndSplineSet
EndChar

StartChar: G
Encoding: 71 71 43
Width: 720
GlyphClass: 2
Flags: W
LayerCount: 2
Fore
SplineSet
639 121 m 1,0,1
 528 -5 528 -5 383 -5 c 0,2,3
 309 -5 309 -5 247.5 26.5 c 128,-1,4
 186 58 186 58 141.5 109 c 128,-1,5
 97 160 97 160 72.5 224.5 c 128,-1,6
 48 289 48 289 48 355 c 0,7,8
 48 424 48 424 72 489 c 128,-1,9
 96 554 96 554 138.5 604.5 c 128,-1,10
 181 655 181 655 240.5 685 c 128,-1,11
 300 715 300 715 371 715 c 0,12,13
 426 715 426 715 469 703.5 c 128,-1,14
 512 692 512 692 545 671.5 c 128,-1,15
 578 651 578 651 601.5 622.5 c 128,-1,16
 625 594 625 594 642 560 c 1,17,-1
 623 554 l 1,18,19
 582 629 582 629 518 662 c 128,-1,20
 454 695 454 695 371 695 c 0,21,22
 301 695 301 695 245 665.5 c 128,-1,23
 189 636 189 636 149.5 588 c 128,-1,24
 110 540 110 540 89 479 c 128,-1,25
 68 418 68 418 68 355 c 0,26,27
 68 288 68 288 92.5 226.5 c 128,-1,28
 117 165 117 165 160 118 c 128,-1,29
 203 71 203 71 260 43 c 128,-1,30
 317 15 317 15 383 15 c 0,31,32
 453 15 453 15 516 47 c 128,-1,33
 579 79 579 79 639 149 c 1,34,-1
 639 318 l 1,35,-1
 472 318 l 1,36,-1
 472 338 l 1,37,-1
 659 338 l 1,38,-1
 659 0 l 1,39,-1
 639 0 l 1,40,-1
 639 121 l 1,0,1
EndSplineSet
Substitution2: "'ss01' Style Set 1 in Latin lookup 8 subtable" G.alt
Substitution2: "'salt' Stylistic Alternatives in Latin lookup 5 subtable" G.alt
Substitution2: "'aalt' Access All Alternates in Latin lookup 0 subtable" G.alt
EndChar

StartChar: H
Encoding: 72 72 44
Width: 731
GlyphClass: 2
Flags: W
LayerCount: 2
Fore
SplineSet
632 710 m 1,0,-1
 632 0 l 1,1,-1
 612 0 l 1,2,-1
 612 353 l 1,3,-1
 119 353 l 1,4,-1
 119 0 l 1,5,-1
 99 0 l 1,6,-1
 99 710 l 1,7,-1
 119 710 l 1,8,-1
 119 373 l 1,9,-1
 612 373 l 1,10,-1
 612 710 l 1,11,-1
 632 710 l 1,0,-1
EndSplineSet
EndChar

StartChar: I
Encoding: 73 73 45
Width: 218
GlyphClass: 2
Flags: W
LayerCount: 2
Fore
SplineSet
99 0 m 1,0,-1
 99 710 l 1,1,-1
 119 710 l 1,2,-1
 119 0 l 1,3,-1
 99 0 l 1,0,-1
EndSplineSet
EndChar

StartChar: J
Encoding: 74 74 46
Width: 473
GlyphClass: 2
Flags: W
LayerCount: 2
Fore
SplineSet
30 49 m 1,0,1
 88 9 88 9 173 9 c 0,2,3
 237 9 237 9 274.5 32.5 c 128,-1,4
 312 56 312 56 331.5 99.5 c 128,-1,5
 351 143 351 143 357 206 c 128,-1,6
 363 269 363 269 363 349 c 2,7,-1
 363 710 l 1,8,-1
 383 710 l 1,9,-1
 383 349 l 2,10,11
 383 268 383 268 376.5 201.5 c 128,-1,12
 370 135 370 135 348 88 c 128,-1,13
 326 41 326 41 284.5 15 c 128,-1,14
 243 -11 243 -11 173 -11 c 0,15,16
 83 -11 83 -11 19 33 c 1,17,-1
 30 49 l 1,0,1
EndSplineSet
EndChar

StartChar: K
Encoding: 75 75 47
Width: 621
GlyphClass: 2
Flags: W
LayerCount: 2
Fore
SplineSet
99 0 m 1,0,-1
 99 710 l 1,1,-1
 119 710 l 1,2,-1
 119 249 l 1,3,-1
 571 710 l 1,4,-1
 600 710 l 1,5,-1
 297 400 l 1,6,-1
 614 0 l 1,7,-1
 588 0 l 1,8,-1
 282 386 l 1,9,-1
 119 221 l 1,10,-1
 119 0 l 1,11,-1
 99 0 l 1,0,-1
EndSplineSet
EndChar

StartChar: L
Encoding: 76 76 48
Width: 579
GlyphClass: 2
Flags: W
LayerCount: 2
Fore
SplineSet
99 0 m 1,0,-1
 99 710 l 1,1,-1
 119 710 l 1,2,-1
 119 20 l 1,3,-1
 565 20 l 1,4,-1
 565 0 l 1,5,-1
 99 0 l 1,0,-1
EndSplineSet
EndChar

StartChar: M
Encoding: 77 77 49
Width: 884
GlyphClass: 2
Flags: W
LayerCount: 2
Fore
SplineSet
765 0 m 1,0,-1
 765 666 l 1,1,-1
 450 140 l 1,2,-1
 434 140 l 1,3,-1
 119 666 l 1,4,-1
 119 0 l 1,5,-1
 99 0 l 1,6,-1
 99 710 l 1,7,-1
 115 710 l 1,8,-1
 442 164 l 1,9,-1
 769 710 l 1,10,-1
 785 710 l 1,11,-1
 785 0 l 1,12,-1
 765 0 l 1,0,-1
EndSplineSet
EndChar

StartChar: N
Encoding: 78 78 50
Width: 776
GlyphClass: 2
Flags: W
LayerCount: 2
Fore
SplineSet
119 671 m 1,0,-1
 119 0 l 1,1,-1
 99 0 l 1,2,-1
 99 710 l 1,3,-1
 114 710 l 1,4,-1
 657 29 l 1,5,-1
 657 710 l 1,6,-1
 677 710 l 1,7,-1
 677 0 l 1,8,-1
 654 0 l 1,9,-1
 119 671 l 1,0,-1
EndSplineSet
EndChar

StartChar: O
Encoding: 79 79 51
Width: 757
GlyphClass: 2
Flags: W
LayerCount: 2
Fore
SplineSet
379 -5 m 0,0,1
 305 -5 305 -5 244.5 26 c 128,-1,2
 184 57 184 57 140 107 c 128,-1,3
 96 157 96 157 72 222 c 128,-1,4
 48 287 48 287 48 355 c 0,5,6
 48 426 48 426 73.5 491 c 128,-1,7
 99 556 99 556 143.5 606 c 128,-1,8
 188 656 188 656 248.5 685.5 c 128,-1,9
 309 715 309 715 379 715 c 0,10,11
 452 715 452 715 513 683.5 c 128,-1,12
 574 652 574 652 617.5 601 c 128,-1,13
 661 550 661 550 685 485.5 c 128,-1,14
 709 421 709 421 709 355 c 0,15,16
 709 283 709 283 683.5 218 c 128,-1,17
 658 153 658 153 613.5 103.5 c 128,-1,18
 569 54 569 54 509 24.5 c 128,-1,19
 449 -5 449 -5 379 -5 c 0,0,1
68 355 m 0,20,21
 68 289 68 289 91.5 227.5 c 128,-1,22
 115 166 115 166 156 118.5 c 128,-1,23
 197 71 197 71 254 43 c 128,-1,24
 311 15 311 15 379 15 c 0,25,26
 448 15 448 15 505.5 44.5 c 128,-1,27
 563 74 563 74 603.5 122 c 128,-1,28
 644 170 644 170 666.5 231 c 128,-1,29
 689 292 689 292 689 355 c 0,30,31
 689 421 689 421 665.5 482.5 c 128,-1,32
 642 544 642 544 600 591.5 c 128,-1,33
 558 639 558 639 501.5 667 c 128,-1,34
 445 695 445 695 379 695 c 0,35,36
 310 695 310 695 252.5 665.5 c 128,-1,37
 195 636 195 636 154 588 c 128,-1,38
 113 540 113 540 90.5 479 c 128,-1,39
 68 418 68 418 68 355 c 0,20,21
EndSplineSet
EndChar

StartChar: P
Encoding: 80 80 52
Width: 619
GlyphClass: 2
Flags: W
LayerCount: 2
Fore
SplineSet
99 0 m 1,0,-1
 99 710 l 1,1,-1
 388 710 l 2,2,3
 431 710 431 710 468 691.5 c 128,-1,4
 505 673 505 673 531.5 642.5 c 128,-1,5
 558 612 558 612 573 573.5 c 128,-1,6
 588 535 588 535 588 495 c 0,7,8
 588 453 588 453 574 414 c 128,-1,9
 560 375 560 375 534.5 345 c 128,-1,10
 509 315 509 315 473.5 297 c 128,-1,11
 438 279 438 279 395 279 c 2,12,-1
 119 279 l 1,13,-1
 119 0 l 1,14,-1
 99 0 l 1,0,-1
119 299 m 1,15,-1
 395 299 l 2,16,17
 435 299 435 299 467.5 316 c 128,-1,18
 500 333 500 333 522 361 c 128,-1,19
 544 389 544 389 556 424 c 128,-1,20
 568 459 568 459 568 495 c 0,21,22
 568 533 568 533 554 568 c 128,-1,23
 540 603 540 603 515.5 630 c 128,-1,24
 491 657 491 657 458 673.5 c 128,-1,25
 425 690 425 690 388 690 c 2,26,-1
 119 690 l 1,27,-1
 119 299 l 1,15,-1
EndSplineSet
EndChar

StartChar: Q
Encoding: 81 81 53
Width: 757
GlyphClass: 2
Flags: W
LayerCount: 2
Fore
SplineSet
586 76 m 1,0,1
 544 38 544 38 491.5 16.5 c 128,-1,2
 439 -5 439 -5 379 -5 c 0,3,4
 305 -5 305 -5 244.5 26 c 128,-1,5
 184 57 184 57 140 107 c 128,-1,6
 96 157 96 157 72 222 c 128,-1,7
 48 287 48 287 48 355 c 0,8,9
 48 426 48 426 73.5 491 c 128,-1,10
 99 556 99 556 143.5 606 c 128,-1,11
 188 656 188 656 248.5 685.5 c 128,-1,12
 309 715 309 715 379 715 c 0,13,14
 452 715 452 715 513 683.5 c 128,-1,15
 574 652 574 652 617.5 601 c 128,-1,16
 661 550 661 550 685 485.5 c 128,-1,17
 709 421 709 421 709 355 c 0,18,19
 709 277 709 277 680 208.5 c 128,-1,20
 651 140 651 140 600 89 c 1,21,-1
 672 0 l 1,22,-1
 647 0 l 1,23,-1
 586 76 l 1,0,1
379 15 m 0,24,25
 437 15 437 15 486 36 c 128,-1,26
 535 57 535 57 574 92 c 1,27,-1
 499 186 l 1,28,-1
 524 186 l 1,29,-1
 588 105 l 1,30,31
 636 155 636 155 662.5 220.5 c 128,-1,32
 689 286 689 286 689 355 c 0,33,34
 689 421 689 421 665.5 482.5 c 128,-1,35
 642 544 642 544 600 591.5 c 128,-1,36
 558 639 558 639 501.5 667 c 128,-1,37
 445 695 445 695 379 695 c 0,38,39
 310 695 310 695 252.5 665.5 c 128,-1,40
 195 636 195 636 154 588 c 128,-1,41
 113 540 113 540 90.5 479 c 128,-1,42
 68 418 68 418 68 355 c 0,43,44
 68 289 68 289 91.5 227.5 c 128,-1,45
 115 166 115 166 156 118.5 c 128,-1,46
 197 71 197 71 254 43 c 128,-1,47
 311 15 311 15 379 15 c 0,24,25
EndSplineSet
EndChar

StartChar: R
Encoding: 82 82 54
Width: 642
GlyphClass: 2
Flags: W
LayerCount: 2
Fore
SplineSet
99 0 m 1,0,-1
 99 710 l 1,1,-1
 388 710 l 2,2,3
 431 710 431 710 468 691.5 c 128,-1,4
 505 673 505 673 531.5 642.5 c 128,-1,5
 558 612 558 612 573 573.5 c 128,-1,6
 588 535 588 535 588 495 c 0,7,8
 588 454 588 454 575 416 c 128,-1,9
 562 378 562 378 538 348.5 c 128,-1,10
 514 319 514 319 480.5 300.5 c 128,-1,11
 447 282 447 282 407 279 c 1,12,-1
 587 0 l 1,13,-1
 563 0 l 1,14,-1
 383 279 l 1,15,-1
 119 279 l 1,16,-1
 119 0 l 1,17,-1
 99 0 l 1,0,-1
119 299 m 1,18,-1
 395 299 l 2,19,20
 435 299 435 299 467 316 c 128,-1,21
 499 333 499 333 521.5 360.5 c 128,-1,22
 544 388 544 388 556 423 c 128,-1,23
 568 458 568 458 568 495 c 0,24,25
 568 533 568 533 554 568 c 128,-1,26
 540 603 540 603 515.5 630 c 128,-1,27
 491 657 491 657 458 673.5 c 128,-1,28
 425 690 425 690 388 690 c 2,29,-1
 119 690 l 1,30,-1
 119 299 l 1,18,-1
EndSplineSet
EndChar

StartChar: S
Encoding: 83 83 55
Width: 602
GlyphClass: 2
Flags: W
LayerCount: 2
Fore
SplineSet
509 616 m 1,0,1
 467 662 467 662 421.5 679 c 128,-1,2
 376 696 376 696 313 696 c 0,3,4
 252 696 252 696 208.5 684 c 128,-1,5
 165 672 165 672 137 649.5 c 128,-1,6
 109 627 109 627 96 596 c 128,-1,7
 83 565 83 565 83 526 c 0,8,9
 83 488 83 488 96 462.5 c 128,-1,10
 109 437 109 437 136 419.5 c 128,-1,11
 163 402 163 402 205.5 389.5 c 128,-1,12
 248 377 248 377 307 365 c 256,13,14
 366 353 366 353 414 339 c 128,-1,15
 462 325 462 325 495.5 304 c 128,-1,16
 529 283 529 283 547 252 c 128,-1,17
 565 221 565 221 565 174 c 0,18,19
 565 87 565 87 498.5 41 c 128,-1,20
 432 -5 432 -5 315 -5 c 0,21,22
 229 -5 229 -5 162.5 21.5 c 128,-1,23
 96 48 96 48 39 105 c 1,24,-1
 54 118 l 1,25,26
 108 62 108 62 171.5 37 c 128,-1,27
 235 12 235 12 316 12 c 0,28,29
 422 12 422 12 483.5 51.5 c 128,-1,30
 545 91 545 91 545 171 c 0,31,32
 545 211 545 211 531 238.5 c 128,-1,33
 517 266 517 266 488 286 c 128,-1,34
 459 306 459 306 414 320 c 128,-1,35
 369 334 369 334 308 346 c 0,36,37
 249 357 249 357 203.5 369.5 c 128,-1,38
 158 382 158 382 126.5 401.5 c 128,-1,39
 95 421 95 421 79 450.5 c 128,-1,40
 63 480 63 480 63 524 c 0,41,42
 63 570 63 570 80.5 605.5 c 128,-1,43
 98 641 98 641 130.5 665.5 c 128,-1,44
 163 690 163 690 208.5 702.5 c 128,-1,45
 254 715 254 715 311 715 c 0,46,47
 379 715 379 715 429.5 695.5 c 128,-1,48
 480 676 480 676 522 630 c 1,49,-1
 509 616 l 1,0,1
EndSplineSet
EndChar

StartChar: T
Encoding: 84 84 56
Width: 600
GlyphClass: 2
Flags: W
LayerCount: 2
Fore
SplineSet
582 690 m 1,0,-1
 310 690 l 1,1,-1
 310 0 l 1,2,-1
 290 0 l 1,3,-1
 290 690 l 1,4,-1
 18 690 l 1,5,-1
 18 710 l 1,6,-1
 582 710 l 1,7,-1
 582 690 l 1,0,-1
EndSplineSet
EndChar

StartChar: U
Encoding: 85 85 57
Width: 756
GlyphClass: 2
Flags: W
LayerCount: 2
Fore
SplineSet
378 15 m 0,0,1
 458 15 458 15 510.5 45 c 128,-1,2
 563 75 563 75 593.5 123 c 128,-1,3
 624 171 624 171 636.5 232 c 128,-1,4
 649 293 649 293 649 355 c 2,5,-1
 649 710 l 1,6,-1
 669 710 l 1,7,-1
 669 355 l 2,8,9
 669 284 669 284 654.5 219 c 128,-1,10
 640 154 640 154 606 104.5 c 128,-1,11
 572 55 572 55 516.5 25 c 128,-1,12
 461 -5 461 -5 379 -5 c 0,13,14
 295 -5 295 -5 239 26 c 128,-1,15
 183 57 183 57 149.5 108 c 128,-1,16
 116 159 116 159 102 223.5 c 128,-1,17
 88 288 88 288 88 355 c 2,18,-1
 88 710 l 1,19,-1
 108 710 l 1,20,-1
 108 355 l 2,21,22
 108 291 108 291 120.5 230 c 128,-1,23
 133 169 133 169 164 121 c 128,-1,24
 195 73 195 73 247 44 c 128,-1,25
 299 15 299 15 378 15 c 0,0,1
EndSplineSet
EndChar

StartChar: V
Encoding: 86 86 58
Width: 678
GlyphClass: 2
Flags: W
LayerCount: 2
Fore
SplineSet
40 710 m 1,0,-1
 339 25 l 1,1,-1
 637 710 l 1,2,-1
 659 710 l 1,3,-1
 350 0 l 1,4,-1
 328 0 l 1,5,-1
 19 710 l 1,6,-1
 40 710 l 1,0,-1
EndSplineSet
EndChar

StartChar: W
Encoding: 87 87 59
Width: 1038
GlyphClass: 2
Flags: W
LayerCount: 2
Fore
SplineSet
381 704 m 1,0,-1
 403 704 l 1,1,-1
 518 438 l 1,2,-1
 634 704 l 1,3,-1
 656 704 l 1,4,-1
 529 414 l 1,5,-1
 699 25 l 1,6,-1
 997 710 l 1,7,-1
 1019 710 l 1,8,-1
 710 0 l 1,9,-1
 688 0 l 1,10,-1
 519 389 l 1,11,-1
 350 0 l 1,12,-1
 328 0 l 1,13,-1
 19 710 l 1,14,-1
 41 710 l 1,15,-1
 339 25 l 1,16,-1
 508 414 l 1,17,-1
 381 704 l 1,0,-1
EndSplineSet
Substitution2: "'ss01' Style Set 1 in Latin lookup 8 subtable" W.alt
Substitution2: "'salt' Stylistic Alternatives in Latin lookup 5 subtable" W.alt
Substitution2: "'aalt' Access All Alternates in Latin lookup 0 subtable" W.alt
EndChar

StartChar: X
Encoding: 88 88 60
Width: 621
GlyphClass: 2
Flags: W
LayerCount: 2
Fore
SplineSet
37 710 m 1,0,-1
 311 366 l 1,1,-1
 585 710 l 1,2,-1
 610 710 l 1,3,-1
 323 350 l 1,4,-1
 602 0 l 1,5,-1
 577 0 l 1,6,-1
 311 334 l 1,7,-1
 45 0 l 1,8,-1
 19 0 l 1,9,-1
 298 350 l 1,10,-1
 11 710 l 1,11,-1
 37 710 l 1,0,-1
EndSplineSet
EndChar

StartChar: Y
Encoding: 89 89 61
Width: 641
GlyphClass: 2
Flags: W
LayerCount: 2
Fore
SplineSet
46 710 m 1,0,-1
 320 298 l 1,1,-1
 595 710 l 1,2,-1
 618 710 l 1,3,-1
 330 275 l 1,4,-1
 330 0 l 1,5,-1
 310 0 l 1,6,-1
 310 277 l 1,7,-1
 23 710 l 1,8,-1
 46 710 l 1,0,-1
EndSplineSet
EndChar

StartChar: Z
Encoding: 90 90 62
Width: 624
GlyphClass: 2
Flags: W
LayerCount: 2
Fore
SplineSet
28 20 m 1,0,-1
 570 690 l 1,1,-1
 33 690 l 1,2,-1
 33 710 l 1,3,-1
 595 710 l 1,4,-1
 595 690 l 1,5,-1
 53 20 l 1,6,-1
 591 20 l 1,7,-1
 591 0 l 1,8,-1
 28 0 l 1,9,-1
 28 20 l 1,0,-1
EndSplineSet
EndChar

StartChar: bracketleft
Encoding: 91 91 63
Width: 228
GlyphClass: 2
Flags: W
LayerCount: 2
Fore
SplineSet
97 -40 m 1,0,-1
 97 740 l 1,1,-1
 167 740 l 1,2,-1
 167 720 l 1,3,-1
 117 720 l 1,4,-1
 117 -20 l 1,5,-1
 167 -20 l 1,6,-1
 167 -40 l 1,7,-1
 97 -40 l 1,0,-1
EndSplineSet
EndChar

StartChar: backslash
Encoding: 92 92 64
Width: 514
GlyphClass: 2
Flags: W
LayerCount: 2
Fore
SplineSet
53 710 m 1,0,-1
 488 0 l 1,1,-1
 463 0 l 1,2,-1
 27 710 l 1,3,-1
 53 710 l 1,0,-1
EndSplineSet
EndChar

StartChar: bracketright
Encoding: 93 93 65
Width: 228
GlyphClass: 2
Flags: W
LayerCount: 2
Fore
SplineSet
61 -40 m 1,0,-1
 61 -20 l 1,1,-1
 111 -20 l 1,2,-1
 111 720 l 1,3,-1
 61 720 l 1,4,-1
 61 740 l 1,5,-1
 131 740 l 1,6,-1
 131 -40 l 1,7,-1
 61 -40 l 1,0,-1
EndSplineSet
EndChar

StartChar: asciicircum
Encoding: 94 94 66
Width: 505
GlyphClass: 2
Flags: W
LayerCount: 2
Fore
SplineSet
46 303 m 1,0,-1
 244 710 l 1,1,-1
 262 710 l 1,2,-1
 459 303 l 1,3,-1
 436 303 l 1,4,-1
 253 681 l 1,5,-1
 67 303 l 1,6,-1
 46 303 l 1,0,-1
EndSplineSet
EndChar

StartChar: underscore
Encoding: 95 95 67
Width: 531
GlyphClass: 2
Flags: W
LayerCount: 2
Fore
SplineSet
69 -20 m 1,0,-1
 69 0 l 1,1,-1
 462 0 l 1,2,-1
 462 -20 l 1,3,-1
 69 -20 l 1,0,-1
EndSplineSet
EndChar

StartChar: grave
Encoding: 96 96 68
Width: 198
GlyphClass: 2
Flags: W
LayerCount: 2
Fore
SplineSet
50 730 m 1,0,-1
 83 730 l 1,1,-1
 148 657 l 1,2,-1
 132 645 l 1,3,-1
 50 730 l 1,0,-1
EndSplineSet
EndChar

StartChar: a
Encoding: 97 97 69
Width: 524
GlyphClass: 2
Flags: W
LayerCount: 2
Fore
SplineSet
207 -10 m 0,0,1
 172 -10 172 -10 141 2.5 c 128,-1,2
 110 15 110 15 87.5 36.5 c 128,-1,3
 65 58 65 58 52 87 c 128,-1,4
 39 116 39 116 39 149 c 256,5,6
 39 182 39 182 54.5 209 c 128,-1,7
 70 236 70 236 98.5 255.5 c 128,-1,8
 127 275 127 275 166.5 286 c 128,-1,9
 206 297 206 297 253 297 c 0,10,11
 298 297 298 297 344 289.5 c 128,-1,12
 390 282 390 282 427 268 c 1,13,-1
 427 327 l 2,14,15
 427 367 427 367 415 400.5 c 128,-1,16
 403 434 403 434 380.5 457.5 c 128,-1,17
 358 481 358 481 326.5 494 c 128,-1,18
 295 507 295 507 257 507 c 256,19,20
 219 507 219 507 176 490.5 c 128,-1,21
 133 474 133 474 89 443 c 1,22,-1
 77 459 l 1,23,24
 177 527 177 527 257 527 c 0,25,26
 300 527 300 527 335.5 513 c 128,-1,27
 371 499 371 499 395.5 473 c 128,-1,28
 420 447 420 447 433.5 410 c 128,-1,29
 447 373 447 373 447 327 c 2,30,-1
 447 40 l 2,31,32
 447 20 447 20 463 20 c 1,33,-1
 463 0 l 1,34,35
 452 0 452 0 449 2 c 0,36,37
 439 6 439 6 433 16.5 c 128,-1,38
 427 27 427 27 427 40 c 2,39,-1
 427 88 l 1,40,41
 391 41 391 41 333 15.5 c 128,-1,42
 275 -10 275 -10 207 -10 c 0,0,1
207 10 m 0,43,44
 274 10 274 10 329.5 35 c 128,-1,45
 385 60 385 60 412 102 c 0,46,47
 427 123 427 123 427 143 c 2,48,-1
 427 246 l 1,49,50
 347 277 347 277 253 277 c 0,51,52
 209 277 209 277 173.5 268 c 128,-1,53
 138 259 138 259 112.5 242 c 128,-1,54
 87 225 87 225 73 201.5 c 128,-1,55
 59 178 59 178 59 149 c 256,56,57
 59 120 59 120 70.5 94.5 c 128,-1,58
 82 69 82 69 102 50 c 128,-1,59
 122 31 122 31 149 20.5 c 128,-1,60
 176 10 176 10 207 10 c 0,43,44
EndSplineSet
Substitution2: "'ss02' Style Set 2 in Latin lookup 9 subtable" a.alt2
Substitution2: "'ss01' Style Set 1 in Latin lookup 8 subtable" a.alt
Substitution2: "'salt' Stylistic Alternatives in Latin lookup 5 subtable" a.alt
Substitution2: "'smcp' Lowercase to Small Capitals in Latin lookup 2 subtable" A.sc
AlternateSubs2: "'aalt' Access All Alternates in Latin lookup 1 subtable" A.sc a.alt a.alt2
EndChar

StartChar: b
Encoding: 98 98 70
Width: 603
GlyphClass: 2
Flags: W
LayerCount: 2
Fore
SplineSet
307 -10 m 0,0,1
 276 -10 276 -10 246.5 -1 c 128,-1,2
 217 8 217 8 190.5 24 c 128,-1,3
 164 40 164 40 141.5 61.5 c 128,-1,4
 119 83 119 83 104 108 c 1,5,-1
 104 0 l 1,6,-1
 84 0 l 1,7,-1
 84 730 l 1,8,-1
 104 730 l 1,9,-1
 104 398 l 1,10,11
 144 454 144 454 196 490.5 c 128,-1,12
 248 527 248 527 316 527 c 0,13,14
 373 527 373 527 418 503 c 128,-1,15
 463 479 463 479 493.5 440.5 c 128,-1,16
 524 402 524 402 540.5 354 c 128,-1,17
 557 306 557 306 557 258 c 0,18,19
 557 205 557 205 538 156.5 c 128,-1,20
 519 108 519 108 485 71 c 128,-1,21
 451 34 451 34 405.5 12 c 128,-1,22
 360 -10 360 -10 307 -10 c 0,0,1
307 10 m 0,23,24
 357 10 357 10 399.5 31.5 c 128,-1,25
 442 53 442 53 472.5 88 c 128,-1,26
 503 123 503 123 520 167.5 c 128,-1,27
 537 212 537 212 537 258 c 0,28,29
 537 306 537 306 521 351 c 128,-1,30
 505 396 505 396 475.5 430.5 c 128,-1,31
 446 465 446 465 405.5 486 c 128,-1,32
 365 507 365 507 316 507 c 0,33,34
 279 507 279 507 246.5 494.5 c 128,-1,35
 214 482 214 482 187.5 461 c 128,-1,36
 161 440 161 440 140 413 c 128,-1,37
 119 386 119 386 104 356 c 1,38,-1
 104 167 l 2,39,40
 106 135 106 135 126.5 106.5 c 128,-1,41
 147 78 147 78 177 56.5 c 128,-1,42
 207 35 207 35 242 22.5 c 128,-1,43
 277 10 277 10 307 10 c 0,23,24
EndSplineSet
Substitution2: "'smcp' Lowercase to Small Capitals in Latin lookup 2 subtable" B.sc
Substitution2: "'aalt' Access All Alternates in Latin lookup 0 subtable" B.sc
EndChar

StartChar: c
Encoding: 99 99 71
Width: 538
GlyphClass: 2
Flags: W
LayerCount: 2
Fore
SplineSet
46 262 m 256,0,1
 46 318 46 318 65 366.5 c 128,-1,2
 84 415 84 415 118 450.5 c 128,-1,3
 152 486 152 486 197.5 506.5 c 128,-1,4
 243 527 243 527 296 527 c 0,5,6
 362 527 362 527 413.5 496.5 c 128,-1,7
 465 466 465 466 491 411 c 1,8,-1
 471 404 l 1,9,10
 445 452 445 452 397.5 479.5 c 128,-1,11
 350 507 350 507 293 507 c 0,12,13
 245 507 245 507 204 488 c 128,-1,14
 163 469 163 469 132 436 c 128,-1,15
 101 403 101 403 83.5 358 c 128,-1,16
 66 313 66 313 66 262 c 256,17,18
 66 211 66 211 84 165 c 128,-1,19
 102 119 102 119 133.5 84.5 c 128,-1,20
 165 50 165 50 206 30 c 128,-1,21
 247 10 247 10 294 10 c 0,22,23
 324 10 324 10 354.5 19 c 128,-1,24
 385 28 385 28 410.5 43 c 128,-1,25
 436 58 436 58 454 78 c 128,-1,26
 472 98 472 98 478 119 c 1,27,-1
 498 113 l 1,28,29
 489 87 489 87 469.5 64.5 c 128,-1,30
 450 42 450 42 423 25.5 c 128,-1,31
 396 9 396 9 363.5 -0.5 c 128,-1,32
 331 -10 331 -10 297 -10 c 0,33,34
 246 -10 246 -10 200 11.5 c 128,-1,35
 154 33 154 33 120 70 c 128,-1,36
 86 107 86 107 66 156.5 c 128,-1,37
 46 206 46 206 46 262 c 256,0,1
EndSplineSet
Substitution2: "'smcp' Lowercase to Small Capitals in Latin lookup 2 subtable" C.sc
Substitution2: "'aalt' Access All Alternates in Latin lookup 0 subtable" C.sc
EndChar

StartChar: d
Encoding: 100 100 72
Width: 604
GlyphClass: 2
Flags: W
LayerCount: 2
Fore
SplineSet
296 -10 m 0,0,1
 242 -10 242 -10 196 13 c 128,-1,2
 150 36 150 36 116.5 74 c 128,-1,3
 83 112 83 112 64.5 160 c 128,-1,4
 46 208 46 208 46 258 c 0,5,6
 46 312 46 312 64 360.5 c 128,-1,7
 82 409 82 409 114.5 446 c 128,-1,8
 147 483 147 483 191 505 c 128,-1,9
 235 527 235 527 287 527 c 0,10,11
 323 527 323 527 354.5 516.5 c 128,-1,12
 386 506 386 506 413 488.5 c 128,-1,13
 440 471 440 471 461.5 447.5 c 128,-1,14
 483 424 483 424 499 398 c 1,15,-1
 499 730 l 1,16,-1
 519 730 l 1,17,-1
 519 40 l 2,18,19
 519 20 519 20 535 20 c 1,20,-1
 535 0 l 1,21,22
 526 0 526 0 522 2 c 0,23,24
 511 7 511 7 505 17.5 c 128,-1,25
 499 28 499 28 499 40 c 2,26,-1
 499 108 l 1,27,28
 482 82 482 82 459.5 60.5 c 128,-1,29
 437 39 437 39 410.5 23 c 128,-1,30
 384 7 384 7 355 -1.5 c 128,-1,31
 326 -10 326 -10 296 -10 c 0,0,1
296 10 m 0,32,33
 326 10 326 10 361 23 c 128,-1,34
 396 36 396 36 426 57.5 c 128,-1,35
 456 79 456 79 476.5 108 c 128,-1,36
 497 137 497 137 499 169 c 2,37,-1
 499 356 l 1,38,39
 488 387 488 387 465 414.5 c 128,-1,40
 442 442 442 442 413 462.5 c 128,-1,41
 384 483 384 483 351 495 c 128,-1,42
 318 507 318 507 287 507 c 0,43,44
 236 507 236 507 195.5 485.5 c 128,-1,45
 155 464 155 464 126 429 c 128,-1,46
 97 394 97 394 81.5 349 c 128,-1,47
 66 304 66 304 66 258 c 0,48,49
 66 209 66 209 84 164.5 c 128,-1,50
 102 120 102 120 133 85.5 c 128,-1,51
 164 51 164 51 206 30.5 c 128,-1,52
 248 10 248 10 296 10 c 0,32,33
EndSplineSet
Substitution2: "'ss01' Style Set 1 in Latin lookup 8 subtable" d.alt
Substitution2: "'salt' Stylistic Alternatives in Latin lookup 5 subtable" d.alt
Substitution2: "'smcp' Lowercase to Small Capitals in Latin lookup 2 subtable" D.sc
AlternateSubs2: "'aalt' Access All Alternates in Latin lookup 1 subtable" D.sc d.alt
EndChar

StartChar: e
Encoding: 101 101 73
Width: 576
GlyphClass: 2
Flags: W
LayerCount: 2
Fore
SplineSet
296 -10 m 0,0,1
 245 -10 245 -10 199.5 11.5 c 128,-1,2
 154 33 154 33 120 70.5 c 128,-1,3
 86 108 86 108 66 157.5 c 128,-1,4
 46 207 46 207 46 263 c 0,5,6
 46 318 46 318 65 366 c 128,-1,7
 84 414 84 414 117.5 450 c 128,-1,8
 151 486 151 486 195.5 506.5 c 128,-1,9
 240 527 240 527 291 527 c 0,10,11
 343 527 343 527 388.5 506 c 128,-1,12
 434 485 434 485 467.5 449 c 128,-1,13
 501 413 501 413 521 364 c 128,-1,14
 541 315 541 315 541 259 c 2,15,-1
 541 248 l 1,16,-1
 66 248 l 1,17,18
 70 198 70 198 89.5 154.5 c 128,-1,19
 109 111 109 111 140 79 c 128,-1,20
 171 47 171 47 211.5 28.5 c 128,-1,21
 252 10 252 10 297 10 c 0,22,23
 327 10 327 10 355.5 18 c 128,-1,24
 384 26 384 26 409 40.5 c 128,-1,25
 434 55 434 55 453 75 c 128,-1,26
 472 95 472 95 483 119 c 1,27,-1
 502 114 l 1,28,29
 491 87 491 87 470.5 64.5 c 128,-1,30
 450 42 450 42 422.5 25.5 c 128,-1,31
 395 9 395 9 362.5 -0.5 c 128,-1,32
 330 -10 330 -10 296 -10 c 0,0,1
520 268 m 1,33,34
 517 320 517 320 498 364 c 128,-1,35
 479 408 479 408 448.5 439.5 c 128,-1,36
 418 471 418 471 378 489 c 128,-1,37
 338 507 338 507 292 507 c 256,38,39
 246 507 246 507 206 489 c 128,-1,40
 166 471 166 471 135.5 439 c 128,-1,41
 105 407 105 407 87 363 c 128,-1,42
 69 319 69 319 66 268 c 1,43,-1
 520 268 l 1,33,34
EndSplineSet
Substitution2: "'smcp' Lowercase to Small Capitals in Latin lookup 2 subtable" E.sc
Substitution2: "'aalt' Access All Alternates in Latin lookup 0 subtable" E.sc
EndChar

StartChar: f
Encoding: 102 102 74
Width: 299
GlyphClass: 2
Flags: W
LayerCount: 2
Fore
SplineSet
103 0 m 1,0,-1
 103 499 l 1,1,-1
 28 499 l 1,2,-1
 28 519 l 1,3,-1
 103 519 l 1,4,-1
 103 540 l 2,5,6
 103 635 103 635 139 687.5 c 128,-1,7
 175 740 175 740 240 740 c 0,8,9
 269 740 269 740 295 730.5 c 128,-1,10
 321 721 321 721 335 706 c 1,11,-1
 319 694 l 1,12,13
 307 706 307 706 285.5 713.5 c 128,-1,14
 264 721 264 721 241 721 c 0,15,16
 184 721 184 721 153.5 674.5 c 128,-1,17
 123 628 123 628 123 540 c 2,18,-1
 123 519 l 1,19,-1
 278 519 l 1,20,-1
 278 499 l 1,21,-1
 123 499 l 1,22,-1
 123 0 l 1,23,-1
 103 0 l 1,0,-1
EndSplineSet
Substitution2: "'smcp' Lowercase to Small Capitals in Latin lookup 2 subtable" F.sc
Substitution2: "'aalt' Access All Alternates in Latin lookup 0 subtable" F.sc
EndChar

StartChar: g
Encoding: 103 103 75
Width: 603
GlyphClass: 2
Flags: W
LayerCount: 2
Fore
SplineSet
296 -10 m 0,0,1
 242 -10 242 -10 196 13 c 128,-1,2
 150 36 150 36 116.5 74 c 128,-1,3
 83 112 83 112 64.5 160 c 128,-1,4
 46 208 46 208 46 258 c 0,5,6
 46 310 46 310 63.5 358.5 c 128,-1,7
 81 407 81 407 113 444.5 c 128,-1,8
 145 482 145 482 189.5 504.5 c 128,-1,9
 234 527 234 527 287 527 c 0,10,11
 322 527 322 527 352.5 517 c 128,-1,12
 383 507 383 507 409.5 489.5 c 128,-1,13
 436 472 436 472 458 448.5 c 128,-1,14
 480 425 480 425 499 398 c 1,15,-1
 499 519 l 1,16,-1
 519 519 l 1,17,-1
 519 -22 l 2,18,19
 519 -73 519 -73 500 -111 c 128,-1,20
 481 -149 481 -149 449 -174 c 128,-1,21
 417 -199 417 -199 375.5 -211 c 128,-1,22
 334 -223 334 -223 290 -223 c 0,23,24
 198 -223 198 -223 146 -189 c 128,-1,25
 94 -155 94 -155 65 -99 c 1,26,-1
 84 -93 l 1,27,28
 116 -152 116 -152 171.5 -177.5 c 128,-1,29
 227 -203 227 -203 290 -203 c 0,30,31
 333 -203 333 -203 371 -191.5 c 128,-1,32
 409 -180 409 -180 437.5 -157 c 128,-1,33
 466 -134 466 -134 482.5 -100.5 c 128,-1,34
 499 -67 499 -67 499 -22 c 2,35,-1
 499 108 l 1,36,37
 482 82 482 82 459.5 60.5 c 128,-1,38
 437 39 437 39 410.5 23 c 128,-1,39
 384 7 384 7 355 -1.5 c 128,-1,40
 326 -10 326 -10 296 -10 c 0,0,1
296 10 m 0,41,42
 333 10 333 10 368.5 24.5 c 128,-1,43
 404 39 404 39 432 62 c 128,-1,44
 460 85 460 85 478.5 113 c 128,-1,45
 497 141 497 141 499 169 c 2,46,-1
 499 356 l 1,47,48
 487 389 487 389 464.5 416.5 c 128,-1,49
 442 444 442 444 414 464 c 128,-1,50
 386 484 386 484 353 495.5 c 128,-1,51
 320 507 320 507 287 507 c 0,52,53
 234 507 234 507 193 484.5 c 128,-1,54
 152 462 152 462 124 426.5 c 128,-1,55
 96 391 96 391 81 346.5 c 128,-1,56
 66 302 66 302 66 258 c 0,57,58
 66 209 66 209 84 164.5 c 128,-1,59
 102 120 102 120 133 85.5 c 128,-1,60
 164 51 164 51 206 30.5 c 128,-1,61
 248 10 248 10 296 10 c 0,41,42
EndSplineSet
Substitution2: "'smcp' Lowercase to Small Capitals in Latin lookup 2 subtable" G.sc
Substitution2: "'aalt' Access All Alternates in Latin lookup 0 subtable" G.sc
EndChar

StartChar: h
Encoding: 104 104 76
Width: 565
GlyphClass: 2
Flags: W
LayerCount: 2
Fore
SplineSet
487 0 m 1,0,-1
 467 0 l 1,1,-1
 467 289 l 2,2,3
 467 507 467 507 323 507 c 0,4,5
 287 507 287 507 252 493 c 128,-1,6
 217 479 217 479 187.5 455 c 128,-1,7
 158 431 158 431 136 398.5 c 128,-1,8
 114 366 114 366 104 328 c 1,9,-1
 104 0 l 1,10,-1
 84 0 l 1,11,-1
 84 730 l 1,12,-1
 104 730 l 1,13,-1
 104 385 l 1,14,15
 120 417 120 417 143.5 443.5 c 128,-1,16
 167 470 167 470 195.5 488.5 c 128,-1,17
 224 507 224 507 256.5 517 c 128,-1,18
 289 527 289 527 322 527 c 0,19,20
 403 527 403 527 445 467 c 128,-1,21
 487 407 487 407 487 289 c 2,22,-1
 487 0 l 1,0,-1
EndSplineSet
Substitution2: "'smcp' Lowercase to Small Capitals in Latin lookup 2 subtable" H.sc
Substitution2: "'aalt' Access All Alternates in Latin lookup 0 subtable" H.sc
EndChar

StartChar: i
Encoding: 105 105 77
Width: 188
GlyphClass: 2
Flags: W
LayerCount: 2
Fore
SplineSet
84 0 m 1,0,-1
 84 519 l 1,1,-1
 104 519 l 1,2,-1
 104 0 l 1,3,-1
 84 0 l 1,0,-1
84 653 m 1,4,-1
 84 730 l 1,5,-1
 104 730 l 1,6,-1
 104 653 l 1,7,-1
 84 653 l 1,4,-1
EndSplineSet
Substitution2: "'smcp' Lowercase to Small Capitals in Latin lookup 2 subtable" I.sc
Substitution2: "'aalt' Access All Alternates in Latin lookup 0 subtable" I.sc
EndChar

StartChar: j
Encoding: 106 106 78
Width: 196
GlyphClass: 2
Flags: W
LayerCount: 2
Fore
SplineSet
-21 -170 m 0,0,1
 -50 -170 -50 -170 -75.5 -163 c 128,-1,2
 -101 -156 -101 -156 -121 -136 c 1,3,-1
 -105 -124 l 1,4,5
 -87 -140 -87 -140 -65 -145 c 128,-1,6
 -43 -150 -43 -150 -22 -150 c 256,7,8
 -1 -150 -1 -150 19 -141 c 128,-1,9
 39 -132 39 -132 55.5 -117 c 128,-1,10
 72 -102 72 -102 82 -81 c 128,-1,11
 92 -60 92 -60 92 -36 c 2,12,-1
 92 519 l 1,13,-1
 112 519 l 1,14,-1
 112 -36 l 2,15,16
 112 -65 112 -65 100 -89.5 c 128,-1,17
 88 -114 88 -114 69 -132 c 128,-1,18
 50 -150 50 -150 26 -160 c 128,-1,19
 2 -170 2 -170 -21 -170 c 0,0,1
92 653 m 1,20,-1
 92 730 l 1,21,-1
 112 730 l 1,22,-1
 112 653 l 1,23,-1
 92 653 l 1,20,-1
EndSplineSet
Substitution2: "'ss01' Style Set 1 in Latin lookup 8 subtable" j.alt
Substitution2: "'salt' Stylistic Alternatives in Latin lookup 5 subtable" j.alt
Substitution2: "'smcp' Lowercase to Small Capitals in Latin lookup 2 subtable" J.sc
AlternateSubs2: "'aalt' Access All Alternates in Latin lookup 1 subtable" J.sc j.alt
EndChar

StartChar: k
Encoding: 107 107 79
Width: 508
GlyphClass: 2
Flags: W
LayerCount: 2
Fore
SplineSet
466 0 m 1,0,-1
 245 297 l 1,1,-1
 104 169 l 1,2,-1
 104 0 l 1,3,-1
 84 0 l 1,4,-1
 84 730 l 1,5,-1
 104 730 l 1,6,-1
 104 196 l 1,7,-1
 458 517 l 1,8,-1
 485 517 l 1,9,-1
 260 311 l 1,10,-1
 490 0 l 1,11,-1
 466 0 l 1,0,-1
EndSplineSet
Substitution2: "'smcp' Lowercase to Small Capitals in Latin lookup 2 subtable" K.sc
Substitution2: "'aalt' Access All Alternates in Latin lookup 0 subtable" K.sc
EndChar

StartChar: l
Encoding: 108 108 80
Width: 238
GlyphClass: 2
Flags: W
LayerCount: 2
Fore
SplineSet
90 730 m 1,0,-1
 110 730 l 1,1,-1
 110 77 l 2,2,3
 110 48 110 48 128 31 c 128,-1,4
 146 14 146 14 176 14 c 0,5,6
 187 14 187 14 202.5 16.5 c 128,-1,7
 218 19 218 19 231 23 c 1,8,-1
 238 7 l 1,9,10
 224 2 224 2 203.5 -1.5 c 128,-1,11
 183 -5 183 -5 169 -5 c 0,12,13
 134 -5 134 -5 112 17.5 c 128,-1,14
 90 40 90 40 90 77 c 2,15,-1
 90 730 l 1,0,-1
EndSplineSet
Substitution2: "'ss01' Style Set 1 in Latin lookup 8 subtable" l.alt
Substitution2: "'salt' Stylistic Alternatives in Latin lookup 5 subtable" l.alt
Substitution2: "'smcp' Lowercase to Small Capitals in Latin lookup 2 subtable" L.sc
AlternateSubs2: "'aalt' Access All Alternates in Latin lookup 1 subtable" L.sc l.alt
EndChar

StartChar: m
Encoding: 109 109 81
Width: 908
GlyphClass: 2
Flags: W
LayerCount: 2
Fore
SplineSet
830 0 m 1,0,-1
 810 0 l 1,1,-1
 810 289 l 2,2,3
 810 401 810 401 776.5 454 c 128,-1,4
 743 507 743 507 671 507 c 0,5,6
 634 507 634 507 601.5 493.5 c 128,-1,7
 569 480 569 480 542.5 456 c 128,-1,8
 516 432 516 432 496.5 399 c 128,-1,9
 477 366 477 366 467 327 c 1,10,-1
 467 0 l 1,11,-1
 447 0 l 1,12,-1
 447 289 l 2,13,14
 447 402 447 402 414 454.5 c 128,-1,15
 381 507 381 507 309 507 c 0,16,17
 273 507 273 507 240.5 494 c 128,-1,18
 208 481 208 481 181.5 457.5 c 128,-1,19
 155 434 155 434 135 401 c 128,-1,20
 115 368 115 368 104 328 c 1,21,-1
 104 0 l 1,22,-1
 84 0 l 1,23,-1
 84 519 l 1,24,-1
 104 519 l 1,25,-1
 104 385 l 1,26,27
 138 453 138 453 190.5 490 c 128,-1,28
 243 527 243 527 305 527 c 0,29,30
 371 527 371 527 413 486 c 128,-1,31
 455 445 455 445 463 376 c 1,32,33
 541 527 541 527 671 527 c 0,34,35
 752 527 752 527 791 468.5 c 128,-1,36
 830 410 830 410 830 289 c 2,37,-1
 830 0 l 1,0,-1
EndSplineSet
Substitution2: "'smcp' Lowercase to Small Capitals in Latin lookup 2 subtable" M.sc
Substitution2: "'aalt' Access All Alternates in Latin lookup 0 subtable" M.sc
EndChar

StartChar: n
Encoding: 110 110 82
Width: 565
GlyphClass: 2
Flags: W
LayerCount: 2
Fore
SplineSet
487 0 m 1,0,-1
 467 0 l 1,1,-1
 467 289 l 2,2,3
 467 403 467 403 435.5 455 c 128,-1,4
 404 507 404 507 334 507 c 0,5,6
 296 507 296 507 259.5 493.5 c 128,-1,7
 223 480 223 480 192 456 c 128,-1,8
 161 432 161 432 138 399 c 128,-1,9
 115 366 115 366 104 328 c 1,10,-1
 104 0 l 1,11,-1
 84 0 l 1,12,-1
 84 519 l 1,13,-1
 104 519 l 1,14,-1
 104 385 l 1,15,16
 120 416 120 416 145 442.5 c 128,-1,17
 170 469 170 469 200 487.5 c 128,-1,18
 230 506 230 506 264 516.5 c 128,-1,19
 298 527 298 527 333 527 c 0,20,21
 413 527 413 527 450 469.5 c 128,-1,22
 487 412 487 412 487 289 c 2,23,-1
 487 0 l 1,0,-1
EndSplineSet
Substitution2: "'smcp' Lowercase to Small Capitals in Latin lookup 2 subtable" N.sc
Substitution2: "'aalt' Access All Alternates in Latin lookup 0 subtable" N.sc
EndChar

StartChar: o
Encoding: 111 111 83
Width: 586
GlyphClass: 2
Flags: W
LayerCount: 2
Fore
SplineSet
293 -10 m 256,0,1
 242 -10 242 -10 197 11.5 c 128,-1,2
 152 33 152 33 118.5 69.5 c 128,-1,3
 85 106 85 106 65.5 155 c 128,-1,4
 46 204 46 204 46 258 c 0,5,6
 46 313 46 313 65.5 361.5 c 128,-1,7
 85 410 85 410 119 447 c 128,-1,8
 153 484 153 484 198 505.5 c 128,-1,9
 243 527 243 527 293 527 c 256,10,11
 343 527 343 527 388 505.5 c 128,-1,12
 433 484 433 484 466.5 447 c 128,-1,13
 500 410 500 410 520 361.5 c 128,-1,14
 540 313 540 313 540 258 c 0,15,16
 540 204 540 204 520.5 155 c 128,-1,17
 501 106 501 106 467.5 69.5 c 128,-1,18
 434 33 434 33 389 11.5 c 128,-1,19
 344 -10 344 -10 293 -10 c 256,0,1
66 256 m 0,20,21
 66 206 66 206 84 161 c 128,-1,22
 102 116 102 116 132.5 82.5 c 128,-1,23
 163 49 163 49 204 29.5 c 128,-1,24
 245 10 245 10 292 10 c 0,25,26
 338 10 338 10 379.5 30 c 128,-1,27
 421 50 421 50 452.5 84 c 128,-1,28
 484 118 484 118 502 163 c 128,-1,29
 520 208 520 208 520 259 c 0,30,31
 520 309 520 309 502 354 c 128,-1,32
 484 399 484 399 453 433 c 128,-1,33
 422 467 422 467 380.5 487 c 128,-1,34
 339 507 339 507 293 507 c 256,35,36
 247 507 247 507 205.5 487 c 128,-1,37
 164 467 164 467 133 432.5 c 128,-1,38
 102 398 102 398 84 352.5 c 128,-1,39
 66 307 66 307 66 256 c 0,20,21
EndSplineSet
Substitution2: "'smcp' Lowercase to Small Capitals in Latin lookup 2 subtable" O.sc
Substitution2: "'aalt' Access All Alternates in Latin lookup 0 subtable" O.sc
EndChar

StartChar: p
Encoding: 112 112 84
Width: 603
GlyphClass: 2
Flags: W
LayerCount: 2
Fore
SplineSet
316 -10 m 0,0,1
 281 -10 281 -10 250 0.5 c 128,-1,2
 219 11 219 11 192 28.5 c 128,-1,3
 165 46 165 46 143 69.5 c 128,-1,4
 121 93 121 93 104 119 c 1,5,-1
 104 -213 l 1,6,-1
 84 -213 l 1,7,-1
 84 519 l 1,8,-1
 104 519 l 1,9,-1
 104 409 l 1,10,11
 120 435 120 435 143 456.5 c 128,-1,12
 166 478 166 478 192.5 494 c 128,-1,13
 219 510 219 510 248 518.5 c 128,-1,14
 277 527 277 527 307 527 c 0,15,16
 362 527 362 527 408 503.5 c 128,-1,17
 454 480 454 480 487 442 c 128,-1,18
 520 404 520 404 538.5 356 c 128,-1,19
 557 308 557 308 557 258 c 0,20,21
 557 205 557 205 539.5 156.5 c 128,-1,22
 522 108 522 108 490.5 71 c 128,-1,23
 459 34 459 34 414.5 12 c 128,-1,24
 370 -10 370 -10 316 -10 c 0,0,1
316 10 m 0,25,26
 367 10 367 10 407.5 31.5 c 128,-1,27
 448 53 448 53 477 88 c 128,-1,28
 506 123 506 123 521.5 167.5 c 128,-1,29
 537 212 537 212 537 258 c 0,30,31
 537 307 537 307 519 352 c 128,-1,32
 501 397 501 397 470 431.5 c 128,-1,33
 439 466 439 466 397 486.5 c 128,-1,34
 355 507 355 507 307 507 c 0,35,36
 277 507 277 507 242 494 c 128,-1,37
 207 481 207 481 177 459 c 128,-1,38
 147 437 147 437 126.5 408 c 128,-1,39
 106 379 106 379 104 348 c 2,40,-1
 104 161 l 1,41,42
 118 129 118 129 140 101.5 c 128,-1,43
 162 74 162 74 189.5 54 c 128,-1,44
 217 34 217 34 249 22 c 128,-1,45
 281 10 281 10 316 10 c 0,25,26
EndSplineSet
Substitution2: "'smcp' Lowercase to Small Capitals in Latin lookup 2 subtable" P.sc
Substitution2: "'aalt' Access All Alternates in Latin lookup 0 subtable" P.sc
EndChar

StartChar: q
Encoding: 113 113 85
Width: 603
GlyphClass: 2
Flags: W
LayerCount: 2
Fore
SplineSet
287 -10 m 0,0,1
 232 -10 232 -10 187.5 13 c 128,-1,2
 143 36 143 36 111.5 73.5 c 128,-1,3
 80 111 80 111 63 159 c 128,-1,4
 46 207 46 207 46 258 c 0,5,6
 46 311 46 311 65.5 359.5 c 128,-1,7
 85 408 85 408 119 445.5 c 128,-1,8
 153 483 153 483 198.5 505 c 128,-1,9
 244 527 244 527 296 527 c 0,10,11
 327 527 327 527 356.5 518 c 128,-1,12
 386 509 386 509 412.5 493 c 128,-1,13
 439 477 439 477 461.5 455.5 c 128,-1,14
 484 434 484 434 499 409 c 1,15,-1
 499 519 l 1,16,-1
 519 519 l 1,17,-1
 519 -173 l 2,18,19
 519 -193 519 -193 535 -193 c 1,20,-1
 535 -213 l 1,21,22
 525 -213 525 -213 521 -211 c 0,23,24
 510 -206 510 -206 504.5 -195.5 c 128,-1,25
 499 -185 499 -185 499 -173 c 2,26,-1
 499 119 l 1,27,28
 455 56 455 56 401.5 23 c 128,-1,29
 348 -10 348 -10 287 -10 c 0,0,1
287 10 m 0,30,31
 324 10 324 10 356 22.5 c 128,-1,32
 388 35 388 35 415 56 c 128,-1,33
 442 77 442 77 463 104 c 128,-1,34
 484 131 484 131 499 161 c 1,35,-1
 499 348 l 2,36,37
 496 379 496 379 476 408 c 128,-1,38
 456 437 456 437 427 459 c 128,-1,39
 398 481 398 481 363.5 494 c 128,-1,40
 329 507 329 507 296 507 c 0,41,42
 245 507 245 507 203 485.5 c 128,-1,43
 161 464 161 464 130.5 428.5 c 128,-1,44
 100 393 100 393 83 348.5 c 128,-1,45
 66 304 66 304 66 258 c 0,46,47
 66 209 66 209 82.5 164 c 128,-1,48
 99 119 99 119 128.5 85 c 128,-1,49
 158 51 158 51 198.5 30.5 c 128,-1,50
 239 10 239 10 287 10 c 0,30,31
EndSplineSet
Substitution2: "'ss01' Style Set 1 in Latin lookup 8 subtable" q.alt
Substitution2: "'salt' Stylistic Alternatives in Latin lookup 5 subtable" q.alt
Substitution2: "'smcp' Lowercase to Small Capitals in Latin lookup 2 subtable" Q.sc
AlternateSubs2: "'aalt' Access All Alternates in Latin lookup 1 subtable" Q.sc q.alt
EndChar

StartChar: r
Encoding: 114 114 86
Width: 323
GlyphClass: 2
Flags: W
LayerCount: 2
Fore
SplineSet
306 499 m 1,0,1
 232 496 232 496 178.5 451 c 128,-1,2
 125 406 125 406 104 328 c 1,3,-1
 104 0 l 1,4,-1
 84 0 l 1,5,-1
 84 519 l 1,6,-1
 104 519 l 1,7,-1
 104 385 l 1,8,9
 131 440 131 440 176.5 475.5 c 128,-1,10
 222 511 222 511 273 517 c 0,11,12
 283 518 283 518 291.5 518.5 c 128,-1,13
 300 519 300 519 306 519 c 1,14,-1
 306 499 l 1,0,1
EndSplineSet
Substitution2: "'smcp' Lowercase to Small Capitals in Latin lookup 2 subtable" R.sc
Substitution2: "'aalt' Access All Alternates in Latin lookup 0 subtable" R.sc
EndChar

StartChar: s
Encoding: 115 115 87
Width: 471
GlyphClass: 2
Flags: W
LayerCount: 2
Fore
SplineSet
235 -10 m 0,0,1
 114 -10 114 -10 37 74 c 1,2,-1
 52 87 l 1,3,4
 92 48 92 48 135.5 29 c 128,-1,5
 179 10 179 10 235 10 c 0,6,7
 312 10 312 10 360 43 c 128,-1,8
 408 76 408 76 408 136 c 0,9,10
 408 164 408 164 396 182.5 c 128,-1,11
 384 201 384 201 361 214.5 c 128,-1,12
 338 228 338 228 304 237.5 c 128,-1,13
 270 247 270 247 227 257 c 0,14,15
 185 267 185 267 154 275.5 c 128,-1,16
 123 284 123 284 102.5 297 c 128,-1,17
 82 310 82 310 71.5 329.5 c 128,-1,18
 61 349 61 349 61 380 c 0,19,20
 61 419 61 419 76 446.5 c 128,-1,21
 91 474 91 474 116 492 c 128,-1,22
 141 510 141 510 174 518.5 c 128,-1,23
 207 527 207 527 244 527 c 0,24,25
 307 527 307 527 351.5 505.5 c 128,-1,26
 396 484 396 484 413 452 c 1,27,-1
 395 444 l 1,28,29
 376 475 376 475 333 491 c 128,-1,30
 290 507 290 507 240 507 c 0,31,32
 208 507 208 507 179 500 c 128,-1,33
 150 493 150 493 128 478 c 128,-1,34
 106 463 106 463 93.5 439.5 c 128,-1,35
 81 416 81 416 81 383 c 0,36,37
 81 357 81 357 89.5 340.5 c 128,-1,38
 98 324 98 324 116 313 c 128,-1,39
 134 302 134 302 162 294 c 128,-1,40
 190 286 190 286 228 277 c 0,41,42
 274 266 274 266 311.5 256 c 128,-1,43
 349 246 349 246 374.5 231 c 128,-1,44
 400 216 400 216 414 194.5 c 128,-1,45
 428 173 428 173 428 139 c 256,46,47
 428 105 428 105 414 77.5 c 128,-1,48
 400 50 400 50 375 30.5 c 128,-1,49
 350 11 350 11 314 0.5 c 128,-1,50
 278 -10 278 -10 235 -10 c 0,0,1
EndSplineSet
Substitution2: "'smcp' Lowercase to Small Capitals in Latin lookup 2 subtable" S.sc
Substitution2: "'aalt' Access All Alternates in Latin lookup 0 subtable" S.sc
EndChar

StartChar: t
Encoding: 116 116 88
Width: 295
GlyphClass: 2
Flags: W
LayerCount: 2
Fore
SplineSet
286 24 m 1,0,1
 286 24 286 24 278.5 19 c 128,-1,2
 271 14 271 14 258.5 9 c 128,-1,3
 246 4 246 4 229 -0.5 c 128,-1,4
 212 -5 212 -5 191 -5 c 0,5,6
 155 -5 155 -5 128 17 c 128,-1,7
 101 39 101 39 101 75 c 2,8,-1
 101 499 l 1,9,-1
 26 499 l 1,10,-1
 26 519 l 1,11,-1
 101 519 l 1,12,-1
 101 700 l 1,13,-1
 121 700 l 1,14,-1
 121 519 l 1,15,-1
 246 519 l 1,16,-1
 246 499 l 1,17,-1
 121 499 l 1,18,-1
 121 75 l 2,19,20
 123 46 123 46 144 30.5 c 128,-1,21
 165 15 165 15 191 15 c 0,22,23
 208 15 208 15 223 18.5 c 128,-1,24
 238 22 238 22 249.5 26.5 c 128,-1,25
 261 31 261 31 267.5 35 c 128,-1,26
 274 39 274 39 275 40 c 2,27,-1
 286 24 l 1,0,1
EndSplineSet
Substitution2: "'ss01' Style Set 1 in Latin lookup 8 subtable" t.alt
Substitution2: "'salt' Stylistic Alternatives in Latin lookup 5 subtable" t.alt
Substitution2: "'smcp' Lowercase to Small Capitals in Latin lookup 2 subtable" T.sc
AlternateSubs2: "'aalt' Access All Alternates in Latin lookup 1 subtable" T.sc t.alt
EndChar

StartChar: u
Encoding: 117 117 89
Width: 576
GlyphClass: 2
Flags: W
LayerCount: 2
Fore
SplineSet
245 -10 m 0,0,1
 78 -10 78 -10 78 228 c 2,2,-1
 78 519 l 1,3,-1
 98 519 l 1,4,-1
 98 228 l 2,5,6
 98 10 98 10 245 10 c 0,7,8
 282 10 282 10 318 23.5 c 128,-1,9
 354 37 354 37 384 60.5 c 128,-1,10
 414 84 414 84 436.5 117 c 128,-1,11
 459 150 459 150 471 189 c 1,12,-1
 471 519 l 1,13,-1
 491 519 l 1,14,-1
 491 40 l 2,15,16
 491 20 491 20 507 20 c 1,17,-1
 507 0 l 1,18,19
 496 0 496 0 493 2 c 0,20,21
 483 6 483 6 477 16.5 c 128,-1,22
 471 27 471 27 471 40 c 2,23,-1
 471 132 l 1,24,25
 437 66 437 66 376 28 c 128,-1,26
 315 -10 315 -10 245 -10 c 0,0,1
EndSplineSet
Substitution2: "'smcp' Lowercase to Small Capitals in Latin lookup 2 subtable" U.sc
Substitution2: "'aalt' Access All Alternates in Latin lookup 0 subtable" U.sc
EndChar

StartChar: v
Encoding: 118 118 90
Width: 520
GlyphClass: 2
Flags: W
LayerCount: 2
Fore
SplineSet
251 0 m 1,0,-1
 25 519 l 1,1,-1
 47 519 l 1,2,-1
 260 29 l 1,3,-1
 473 519 l 1,4,-1
 495 519 l 1,5,-1
 269 0 l 1,6,-1
 251 0 l 1,0,-1
EndSplineSet
Substitution2: "'smcp' Lowercase to Small Capitals in Latin lookup 2 subtable" V.sc
Substitution2: "'aalt' Access All Alternates in Latin lookup 0 subtable" V.sc
EndChar

StartChar: w
Encoding: 119 119 91
Width: 794
GlyphClass: 2
Flags: W
LayerCount: 2
Fore
SplineSet
747 519 m 1,0,-1
 769 519 l 1,1,-1
 542 0 l 1,2,-1
 524 0 l 1,3,-1
 397 291 l 1,4,-1
 270 0 l 1,5,-1
 252 0 l 1,6,-1
 25 519 l 1,7,-1
 47 519 l 1,8,-1
 261 29 l 1,9,-1
 386 316 l 1,10,-1
 299 518 l 1,11,-1
 320 518 l 1,12,-1
 397 342 l 1,13,-1
 474 518 l 1,14,-1
 495 518 l 1,15,-1
 408 316 l 1,16,-1
 533 29 l 1,17,-1
 747 519 l 1,0,-1
EndSplineSet
Substitution2: "'ss01' Style Set 1 in Latin lookup 8 subtable" w.alt
Substitution2: "'salt' Stylistic Alternatives in Latin lookup 5 subtable" w.alt
Substitution2: "'smcp' Lowercase to Small Capitals in Latin lookup 2 subtable" W.sc
AlternateSubs2: "'aalt' Access All Alternates in Latin lookup 1 subtable" W.sc w.alt
EndChar

StartChar: x
Encoding: 120 120 92
Width: 482
GlyphClass: 2
Flags: W
LayerCount: 2
Fore
SplineSet
46 519 m 1,0,-1
 233 285 l 1,1,-1
 241 273 l 1,2,-1
 249 285 l 1,3,-1
 436 519 l 1,4,-1
 462 519 l 1,5,-1
 254 258 l 1,6,-1
 460 0 l 1,7,-1
 434 0 l 1,8,-1
 249 232 l 1,9,-1
 241 244 l 1,10,-1
 233 232 l 1,11,-1
 48 0 l 1,12,-1
 22 0 l 1,13,-1
 228 258 l 1,14,-1
 20 519 l 1,15,-1
 46 519 l 1,0,-1
EndSplineSet
Substitution2: "'smcp' Lowercase to Small Capitals in Latin lookup 2 subtable" X.sc
Substitution2: "'aalt' Access All Alternates in Latin lookup 0 subtable" X.sc
EndChar

StartChar: y
Encoding: 121 121 93
Width: 536
GlyphClass: 2
Flags: W
LayerCount: 2
Fore
SplineSet
128 -203 m 1,0,1
 145 -203 145 -203 157.5 -201.5 c 128,-1,2
 170 -200 170 -200 175 -193 c 0,3,4
 178 -190 178 -190 182 -181.5 c 128,-1,5
 186 -173 186 -173 195 -152.5 c 128,-1,6
 204 -132 204 -132 220 -95.5 c 128,-1,7
 236 -59 236 -59 262 0 c 1,8,-1
 21 519 l 1,9,-1
 43 519 l 1,10,-1
 272 25 l 1,11,-1
 489 519 l 1,12,-1
 511 519 l 1,13,-1
 202 -186 l 2,14,15
 190 -212 190 -212 169 -218 c 0,16,17
 149 -223 149 -223 128 -223 c 1,18,-1
 128 -203 l 1,0,1
EndSplineSet
Substitution2: "'ss01' Style Set 1 in Latin lookup 8 subtable" y.alt
Substitution2: "'salt' Stylistic Alternatives in Latin lookup 5 subtable" y.alt
Substitution2: "'smcp' Lowercase to Small Capitals in Latin lookup 2 subtable" Y.sc
AlternateSubs2: "'aalt' Access All Alternates in Latin lookup 1 subtable" Y.sc y.alt
EndChar

StartChar: z
Encoding: 122 122 94
Width: 488
GlyphClass: 2
Flags: W
LayerCount: 2
Fore
SplineSet
33 20 m 1,0,-1
 429 499 l 1,1,-1
 38 499 l 1,2,-1
 38 519 l 1,3,-1
 454 519 l 1,4,-1
 454 499 l 1,5,-1
 59 20 l 1,6,-1
 450 20 l 1,7,-1
 450 0 l 1,8,-1
 33 0 l 1,9,-1
 33 20 l 1,0,-1
EndSplineSet
Substitution2: "'smcp' Lowercase to Small Capitals in Latin lookup 2 subtable" Z.sc
Substitution2: "'aalt' Access All Alternates in Latin lookup 0 subtable" Z.sc
EndChar

StartChar: braceleft
Encoding: 123 123 95
Width: 229
GlyphClass: 2
Flags: W
LayerCount: 2
Fore
SplineSet
118 720 m 1,0,-1
 118 416 l 2,1,2
 118 413 118 413 117.5 407 c 128,-1,3
 117 401 117 401 115 392.5 c 128,-1,4
 113 384 113 384 109 375.5 c 128,-1,5
 105 367 105 367 97 360 c 1,6,7
 113 346 113 346 115.5 327.5 c 128,-1,8
 118 309 118 309 118 304 c 2,9,-1
 118 -11 l 1,10,-1
 173 -11 l 1,11,-1
 173 -31 l 1,12,-1
 121 -31 l 2,13,14
 113 -31 113 -31 105.5 -24.5 c 128,-1,15
 98 -18 98 -18 98 -1 c 2,16,-1
 98 304 l 2,17,18
 98 319 98 319 92 334 c 128,-1,19
 86 349 86 349 68 351 c 1,20,-1
 68 371 l 1,21,22
 78 371 78 371 84 377 c 128,-1,23
 90 383 90 383 93 390.5 c 128,-1,24
 96 398 96 398 97 405.5 c 128,-1,25
 98 413 98 413 98 416 c 2,26,-1
 98 710 l 2,27,28
 98 730 98 730 107.5 735 c 128,-1,29
 117 740 117 740 121 740 c 2,30,-1
 173 740 l 1,31,-1
 173 720 l 1,32,-1
 118 720 l 1,0,-1
EndSplineSet
EndChar

StartChar: bar
Encoding: 124 124 96
Width: 210
GlyphClass: 2
Flags: W
LayerCount: 2
Fore
SplineSet
95 -130 m 1,0,-1
 95 775 l 1,1,-1
 115 775 l 1,2,-1
 115 -130 l 1,3,-1
 95 -130 l 1,0,-1
EndSplineSet
EndChar

StartChar: braceright
Encoding: 125 125 97
Width: 229
GlyphClass: 2
Flags: W
LayerCount: 2
Fore
SplineSet
56 720 m 1,0,-1
 56 740 l 1,1,-1
 108 740 l 2,2,3
 112 740 112 740 121.5 735 c 128,-1,4
 131 730 131 730 131 710 c 2,5,-1
 131 416 l 2,6,7
 131 413 131 413 131.5 405.5 c 128,-1,8
 132 398 132 398 135 390.5 c 128,-1,9
 138 383 138 383 144 377 c 128,-1,10
 150 371 150 371 161 371 c 1,11,-1
 161 351 l 1,12,13
 143 349 143 349 137 334 c 128,-1,14
 131 319 131 319 131 304 c 2,15,-1
 131 -1 l 2,16,17
 131 -18 131 -18 123.5 -24.5 c 128,-1,18
 116 -31 116 -31 108 -31 c 2,19,-1
 56 -31 l 1,20,-1
 56 -11 l 1,21,-1
 111 -11 l 1,22,-1
 111 304 l 2,23,24
 111 309 111 309 113.5 327.5 c 128,-1,25
 116 346 116 346 132 360 c 1,26,27
 124 367 124 367 120 375.5 c 128,-1,28
 116 384 116 384 114 392.5 c 128,-1,29
 112 401 112 401 111.5 407 c 128,-1,30
 111 413 111 413 111 416 c 2,31,-1
 111 720 l 1,32,-1
 56 720 l 1,0,-1
EndSplineSet
EndChar

StartChar: asciitilde
Encoding: 126 126 98
Width: 462
GlyphClass: 2
Flags: W
LayerCount: 2
Fore
SplineSet
70 251 m 1,0,1
 70 252 70 252 74.5 265 c 128,-1,2
 79 278 79 278 89.5 293 c 128,-1,3
 100 308 100 308 115.5 320 c 128,-1,4
 131 332 131 332 154 332 c 0,5,6
 174 332 174 332 192.5 322.5 c 128,-1,7
 211 313 211 313 229 301.5 c 128,-1,8
 247 290 247 290 265 280.5 c 128,-1,9
 283 271 283 271 303 271 c 0,10,11
 321 271 321 271 334 278.5 c 128,-1,12
 347 286 347 286 356 296 c 128,-1,13
 365 306 365 306 369 314.5 c 128,-1,14
 373 323 373 323 373 325 c 2,15,-1
 393 324 l 1,16,17
 385 303 385 303 373 287 c 0,18,19
 362 273 362 273 345.5 262 c 128,-1,20
 329 251 329 251 303 251 c 0,21,22
 279 251 279 251 259 260.5 c 128,-1,23
 239 270 239 270 221 281.5 c 128,-1,24
 203 293 203 293 186.5 302.5 c 128,-1,25
 170 312 170 312 154 312 c 0,26,27
 139 312 139 312 127 302.5 c 128,-1,28
 115 293 115 293 106.5 282 c 128,-1,29
 98 271 98 271 94 261.5 c 128,-1,30
 90 252 90 252 90 251 c 2,31,-1
 70 251 l 1,32,-1
 70 251 l 1,0,1
EndSplineSet
EndChar

StartChar: exclamdown
Encoding: 161 161 100
Width: 228
GlyphClass: 2
Flags: W
LayerCount: 2
Fore
SplineSet
124 517 m 1,0,-1
 124 0 l 1,1,-1
 104 0 l 1,2,-1
 104 517 l 1,3,-1
 124 517 l 1,0,-1
124 717 m 1,4,-1
 124 633 l 1,5,-1
 104 633 l 1,6,-1
 104 717 l 1,7,-1
 124 717 l 1,4,-1
EndSplineSet
EndChar

StartChar: cent
Encoding: 162 162 101
Width: 541
GlyphClass: 2
Flags: W
LayerCount: 2
Fore
SplineSet
276 -120 m 1,0,-1
 276 -9 l 1,1,2
 225 -5 225 -5 183 19.5 c 128,-1,3
 141 44 141 44 110.5 81 c 128,-1,4
 80 118 80 118 63 164 c 128,-1,5
 46 210 46 210 46 258 c 0,6,7
 46 309 46 309 63 356 c 128,-1,8
 80 403 80 403 110 440.5 c 128,-1,9
 140 478 140 478 182.5 501 c 128,-1,10
 225 524 225 524 276 527 c 1,11,-1
 276 645 l 1,12,-1
 296 645 l 1,13,-1
 296 527 l 1,14,15
 374 525 374 525 419.5 493 c 128,-1,16
 465 461 465 461 490 411 c 1,17,-1
 471 404 l 1,18,19
 442 456 442 456 397 480.5 c 128,-1,20
 352 505 352 505 296 507 c 1,21,-1
 296 10 l 1,22,23
 320 10 320 10 349.5 17.5 c 128,-1,24
 379 25 379 25 405 39.5 c 128,-1,25
 431 54 431 54 451.5 74 c 128,-1,26
 472 94 472 94 478 119 c 1,27,-1
 498 113 l 1,28,29
 488 83 488 83 466 60 c 128,-1,30
 444 37 444 37 415.5 21.5 c 128,-1,31
 387 6 387 6 355.5 -2 c 128,-1,32
 324 -10 324 -10 296 -10 c 1,33,-1
 296 -120 l 1,34,-1
 276 -120 l 1,0,-1
66 258 m 0,35,36
 66 212 66 212 82 169 c 128,-1,37
 98 126 98 126 126.5 92.5 c 128,-1,38
 155 59 155 59 193 37 c 128,-1,39
 231 15 231 15 276 11 c 1,40,-1
 276 507 l 1,41,42
 226 504 226 504 187 481 c 128,-1,43
 148 458 148 458 121 423 c 128,-1,44
 94 388 94 388 80 344.5 c 128,-1,45
 66 301 66 301 66 258 c 0,35,36
EndSplineSet
EndChar

StartChar: sterling
Encoding: 163 163 102
Width: 467
GlyphClass: 2
Flags: W
LayerCount: 2
Fore
SplineSet
48 366 m 1,0,-1
 157 366 l 1,1,2
 145 389 145 389 131 411 c 128,-1,3
 117 433 117 433 105.5 455 c 128,-1,4
 94 477 94 477 86.5 500 c 128,-1,5
 79 523 79 523 79 550 c 0,6,7
 79 584 79 584 92 614 c 128,-1,8
 105 644 105 644 127 666.5 c 128,-1,9
 149 689 149 689 179 702 c 128,-1,10
 209 715 209 715 242 715 c 0,11,12
 292 715 292 715 335 686.5 c 128,-1,13
 378 658 378 658 404 610 c 1,14,-1
 387 598 l 1,15,16
 363 643 363 643 324 669 c 128,-1,17
 285 695 285 695 240 695 c 0,18,19
 211 695 211 695 186 684 c 128,-1,20
 161 673 161 673 142 653.5 c 128,-1,21
 123 634 123 634 112 608 c 128,-1,22
 101 582 101 582 101 552 c 0,23,24
 101 526 101 526 109 503.5 c 128,-1,25
 117 481 117 481 129 458.5 c 128,-1,26
 141 436 141 436 155 413.5 c 128,-1,27
 169 391 169 391 181 366 c 1,28,-1
 354 366 l 1,29,-1
 354 346 l 1,30,-1
 190 346 l 1,31,32
 200 323 200 323 206.5 297 c 128,-1,33
 213 271 213 271 213 242 c 0,34,35
 213 215 213 215 207 190 c 128,-1,36
 201 165 201 165 187 139 c 128,-1,37
 173 113 173 113 150.5 83.5 c 128,-1,38
 128 54 128 54 95 18 c 1,39,40
 112 21 112 21 130 23 c 128,-1,41
 148 25 148 25 166 25 c 0,42,43
 189 25 189 25 208 22 c 128,-1,44
 227 19 227 19 244 15 c 128,-1,45
 261 11 261 11 278 8 c 128,-1,46
 295 5 295 5 314 5 c 0,47,48
 335 5 335 5 358.5 10 c 128,-1,49
 382 15 382 15 413 26 c 1,50,-1
 419 7 l 1,51,52
 365 -15 365 -15 313 -15 c 0,53,54
 291 -15 291 -15 273 -12 c 128,-1,55
 255 -9 255 -9 237.5 -5 c 128,-1,56
 220 -1 220 -1 201 2 c 128,-1,57
 182 5 182 5 160 5 c 256,58,59
 138 5 138 5 112.5 1.5 c 128,-1,60
 87 -2 87 -2 66 -7 c 1,61,-1
 56 10 l 1,62,63
 96 53 96 53 122.5 85 c 128,-1,64
 149 117 149 117 164.5 143 c 128,-1,65
 180 169 180 169 186 192 c 128,-1,66
 192 215 192 215 192 241 c 0,67,68
 192 271 192 271 185 297 c 128,-1,69
 178 323 178 323 167 346 c 1,70,-1
 48 346 l 1,71,-1
 48 366 l 1,0,-1
EndSplineSet
EndChar

StartChar: currency
Encoding: 164 164 103
Width: 533
GlyphClass: 2
Flags: W
LayerCount: 2
Fore
SplineSet
146 467 m 1,0,1
 169 490 169 490 199.5 502.5 c 128,-1,2
 230 515 230 515 265 515 c 0,3,4
 301 515 301 515 332.5 501.5 c 128,-1,5
 364 488 364 488 387 465 c 1,6,-1
 457 534 l 1,7,-1
 472 520 l 1,8,-1
 401 450 l 1,9,10
 420 426 420 426 431 396.5 c 128,-1,11
 442 367 442 367 442 335 c 256,12,13
 442 303 442 303 430.5 273 c 128,-1,14
 419 243 419 243 399 219 c 1,15,-1
 472 148 l 1,16,-1
 457 134 l 1,17,-1
 385 205 l 1,18,19
 361 182 361 182 330.5 169.5 c 128,-1,20
 300 157 300 157 265 157 c 256,21,22
 230 157 230 157 200.5 169 c 128,-1,23
 171 181 171 181 148 202 c 1,24,-1
 79 134 l 1,25,-1
 64 148 l 1,26,-1
 134 217 l 1,27,28
 90 267 90 267 90 335 c 0,29,30
 90 368 90 368 101 398 c 128,-1,31
 112 428 112 428 132 452 c 1,32,-1
 64 520 l 1,33,-1
 79 534 l 1,34,-1
 146 467 l 1,0,1
111 334 m 0,35,36
 111 301 111 301 123 272 c 128,-1,37
 135 243 135 243 156 221.5 c 128,-1,38
 177 200 177 200 205 187.5 c 128,-1,39
 233 175 233 175 265 175 c 256,40,41
 297 175 297 175 325.5 188 c 128,-1,42
 354 201 354 201 375 223 c 128,-1,43
 396 245 396 245 408.5 274 c 128,-1,44
 421 303 421 303 421 336 c 256,45,46
 421 369 421 369 408.5 398.5 c 128,-1,47
 396 428 396 428 375 449.5 c 128,-1,48
 354 471 354 471 325.5 483.5 c 128,-1,49
 297 496 297 496 265 496 c 0,50,51
 234 496 234 496 206 483.5 c 128,-1,52
 178 471 178 471 157 449 c 128,-1,53
 136 427 136 427 123.5 397.5 c 128,-1,54
 111 368 111 368 111 334 c 0,35,36
EndSplineSet
EndChar

StartChar: yen
Encoding: 165 165 104
Width: 651
GlyphClass: 2
Flags: W
LayerCount: 2
Fore
SplineSet
379 341 m 1,0,-1
 472 341 l 1,1,-1
 472 321 l 1,2,-1
 366 321 l 1,3,-1
 335 275 l 1,4,-1
 335 251 l 1,5,-1
 472 251 l 1,6,-1
 472 231 l 1,7,-1
 335 231 l 1,8,-1
 335 0 l 1,9,-1
 315 0 l 1,10,-1
 315 231 l 1,11,-1
 179 231 l 1,12,-1
 179 251 l 1,13,-1
 315 251 l 1,14,-1
 315 277 l 1,15,-1
 286 321 l 1,16,-1
 179 321 l 1,17,-1
 179 341 l 1,18,-1
 273 341 l 1,19,-1
 28 710 l 1,20,-1
 51 710 l 1,21,-1
 325 298 l 1,22,-1
 600 710 l 1,23,-1
 623 710 l 1,24,-1
 379 341 l 1,0,-1
EndSplineSet
EndChar

StartChar: brokenbar
Encoding: 166 166 105
Width: 214
GlyphClass: 2
Flags: W
LayerCount: 2
Fore
SplineSet
117 285 m 1,0,-1
 117 -130 l 1,1,-1
 97 -130 l 1,2,-1
 97 285 l 1,3,-1
 117 285 l 1,0,-1
117 775 m 1,4,-1
 117 360 l 1,5,-1
 97 360 l 1,6,-1
 97 775 l 1,7,-1
 117 775 l 1,4,-1
EndSplineSet
EndChar

StartChar: section
Encoding: 167 167 106
Width: 481
GlyphClass: 2
Flags: W
LayerCount: 2
Fore
SplineSet
385 181 m 1,0,1
 414 165 414 165 426.5 138.5 c 128,-1,2
 439 112 439 112 439 74 c 0,3,4
 439 35 439 35 422 4.5 c 128,-1,5
 405 -26 405 -26 378 -46.5 c 128,-1,6
 351 -67 351 -67 318 -77.5 c 128,-1,7
 285 -88 285 -88 253 -88 c 0,8,9
 188 -88 188 -88 144 -64 c 128,-1,10
 100 -40 100 -40 66 -6 c 1,11,-1
 81 7 l 1,12,13
 122 -31 122 -31 162.5 -49.5 c 128,-1,14
 203 -68 203 -68 253 -68 c 0,15,16
 283 -68 283 -68 312.5 -58.5 c 128,-1,17
 342 -49 342 -49 365.5 -30.5 c 128,-1,18
 389 -12 389 -12 404 14.5 c 128,-1,19
 419 41 419 41 419 74 c 0,20,21
 419 110 419 110 404.5 132.5 c 128,-1,22
 390 155 390 155 367.5 167.5 c 128,-1,23
 345 180 345 180 316 184.5 c 128,-1,24
 287 189 287 189 259 190 c 0,25,26
 222 191 222 191 188 200 c 128,-1,27
 154 209 154 209 128.5 227 c 128,-1,28
 103 245 103 245 88 273.5 c 128,-1,29
 73 302 73 302 73 341 c 0,30,31
 73 367 73 367 82 393 c 128,-1,32
 91 419 91 419 105 435 c 1,33,34
 78 452 78 452 62 484 c 128,-1,35
 46 516 46 516 46 557 c 0,36,37
 46 595 46 595 63 624.5 c 128,-1,38
 80 654 80 654 106.5 674 c 128,-1,39
 133 694 133 694 165.5 704.5 c 128,-1,40
 198 715 198 715 230 715 c 0,41,42
 296 715 296 715 333 695.5 c 128,-1,43
 370 676 370 676 395 640 c 1,44,-1
 377 632 l 1,45,46
 367 651 367 651 350 663.5 c 128,-1,47
 333 676 333 676 313 683 c 128,-1,48
 293 690 293 690 271 692.5 c 128,-1,49
 249 695 249 695 230 695 c 0,50,51
 201 695 201 695 171.5 685.5 c 128,-1,52
 142 676 142 676 118.5 658 c 128,-1,53
 95 640 95 640 80.5 614.5 c 128,-1,54
 66 589 66 589 66 557 c 0,55,56
 66 521 66 521 78.5 496 c 128,-1,57
 91 471 91 471 113 455.5 c 128,-1,58
 135 440 135 440 165.5 433 c 128,-1,59
 196 426 196 426 232 426 c 0,60,61
 267 426 267 426 301 418 c 128,-1,62
 335 410 335 410 362 392.5 c 128,-1,63
 389 375 389 375 405.5 347 c 128,-1,64
 422 319 422 319 422 280 c 0,65,66
 422 251 422 251 412 224.5 c 128,-1,67
 402 198 402 198 385 181 c 1,0,1
93 341 m 0,68,69
 93 301 93 301 107 276.5 c 128,-1,70
 121 252 121 252 144.5 238 c 128,-1,71
 168 224 168 224 197 218 c 128,-1,72
 226 212 226 212 256.5 208.5 c 128,-1,73
 287 205 287 205 315.5 201.5 c 128,-1,74
 344 198 344 198 365 190 c 1,75,76
 382 204 382 204 392 229 c 128,-1,77
 402 254 402 254 402 280 c 0,78,79
 402 316 402 316 386 340.5 c 128,-1,80
 370 365 370 365 345 379.5 c 128,-1,81
 320 394 320 394 290 400 c 128,-1,82
 260 406 260 406 232 406 c 0,83,84
 203 406 203 406 175 410.5 c 128,-1,85
 147 415 147 415 124 425 c 1,86,87
 110 411 110 411 101.5 388 c 128,-1,88
 93 365 93 365 93 341 c 0,68,69
EndSplineSet
EndChar

StartChar: dieresis
Encoding: 168 168 107
Width: 236
GlyphClass: 2
Flags: W
LayerCount: 2
Fore
SplineSet
50 653 m 1,0,-1
 50 730 l 1,1,-1
 70 730 l 1,2,-1
 70 653 l 1,3,-1
 50 653 l 1,0,-1
166 653 m 1,4,-1
 166 730 l 1,5,-1
 186 730 l 1,6,-1
 186 653 l 1,7,-1
 166 653 l 1,4,-1
EndSplineSet
EndChar

StartChar: copyright
Encoding: 169 169 108
Width: 824
GlyphClass: 2
Flags: W
LayerCount: 2
Fore
SplineSet
412 -7 m 256,0,1
 334 -7 334 -7 268 20.5 c 128,-1,2
 202 48 202 48 154 96.5 c 128,-1,3
 106 145 106 145 78.5 211 c 128,-1,4
 51 277 51 277 51 355 c 0,5,6
 51 432 51 432 78.5 498 c 128,-1,7
 106 564 106 564 154 612 c 128,-1,8
 202 660 202 660 268 687.5 c 128,-1,9
 334 715 334 715 412 715 c 256,10,11
 490 715 490 715 556 687.5 c 128,-1,12
 622 660 622 660 670 612 c 128,-1,13
 718 564 718 564 745.5 498 c 128,-1,14
 773 432 773 432 773 355 c 0,15,16
 773 277 773 277 745.5 211 c 128,-1,17
 718 145 718 145 670 96.5 c 128,-1,18
 622 48 622 48 556 20.5 c 128,-1,19
 490 -7 490 -7 412 -7 c 256,0,1
413 13 m 0,20,21
 485 13 485 13 546.5 37.5 c 128,-1,22
 608 62 608 62 654 107 c 128,-1,23
 700 152 700 152 726 214.5 c 128,-1,24
 752 277 752 277 752 352 c 0,25,26
 752 426 752 426 726.5 489 c 128,-1,27
 701 552 701 552 655.5 597.5 c 128,-1,28
 610 643 610 643 548 669 c 128,-1,29
 486 695 486 695 413 695 c 0,30,31
 339 695 339 695 277 669.5 c 128,-1,32
 215 644 215 644 169 598 c 128,-1,33
 123 552 123 552 97.5 489.5 c 128,-1,34
 72 427 72 427 72 354 c 256,35,36
 72 281 72 281 97.5 218.5 c 128,-1,37
 123 156 123 156 168.5 110.5 c 128,-1,38
 214 65 214 65 276.5 39 c 128,-1,39
 339 13 339 13 413 13 c 0,20,21
419 127 m 0,40,41
 381 127 381 127 342 142 c 128,-1,42
 303 157 303 157 271.5 186.5 c 128,-1,43
 240 216 240 216 220 258.5 c 128,-1,44
 200 301 200 301 200 355 c 0,45,46
 200 395 200 395 212.5 436 c 128,-1,47
 225 477 225 477 250.5 510.5 c 128,-1,48
 276 544 276 544 316 565 c 128,-1,49
 356 586 356 586 411 586 c 0,50,51
 467 586 467 586 514 562 c 128,-1,52
 561 538 561 538 581 487 c 1,53,-1
 562 480 l 1,54,55
 550 507 550 507 531.5 524 c 128,-1,56
 513 541 513 541 491.5 550.5 c 128,-1,57
 470 560 470 560 448.5 563 c 128,-1,58
 427 566 427 566 411 566 c 0,59,60
 361 566 361 566 325 546.5 c 128,-1,61
 289 527 289 527 266 496.5 c 128,-1,62
 243 466 243 466 231.5 428.5 c 128,-1,63
 220 391 220 391 220 355 c 0,64,65
 220 305 220 305 238.5 266.5 c 128,-1,66
 257 228 257 228 285.5 201.5 c 128,-1,67
 314 175 314 175 348.5 161 c 128,-1,68
 383 147 383 147 415 147 c 0,69,70
 437 147 437 147 460.5 153.5 c 128,-1,71
 484 160 484 160 506 171.5 c 128,-1,72
 528 183 528 183 545.5 200 c 128,-1,73
 563 217 563 217 572 238 c 1,74,-1
 591 233 l 1,75,76
 587 220 587 220 573 201.5 c 128,-1,77
 559 183 559 183 536.5 166.5 c 128,-1,78
 514 150 514 150 484 138.5 c 128,-1,79
 454 127 454 127 419 127 c 0,40,41
EndSplineSet
EndChar

StartChar: ordfeminine
Encoding: 170 170 109
Width: 425
GlyphClass: 2
Flags: W
LayerCount: 2
Fore
SplineSet
170 351 m 0,0,1
 145 351 145 351 123.5 359.5 c 128,-1,2
 102 368 102 368 86 382 c 128,-1,3
 70 396 70 396 61 415.5 c 128,-1,4
 52 435 52 435 52 458 c 0,5,6
 52 480 52 480 63 499 c 128,-1,7
 74 518 74 518 94 531.5 c 128,-1,8
 114 545 114 545 141 552.5 c 128,-1,9
 168 560 168 560 201 560 c 0,10,11
 231 560 231 560 261.5 555 c 128,-1,12
 292 550 292 550 316 541 c 1,13,-1
 316 576 l 2,14,15
 316 625 316 625 286 654.5 c 128,-1,16
 256 684 256 684 205 684 c 0,17,18
 151 684 151 684 89 643 c 1,19,-1
 76 663 l 1,20,21
 146 709 146 709 207 709 c 0,22,23
 272 709 272 709 309.5 673 c 128,-1,24
 347 637 347 637 347 573 c 2,25,-1
 347 402 l 2,26,27
 347 386 347 386 361 386 c 1,28,-1
 361 357 l 1,29,30
 348 357 348 357 343 358 c 0,31,32
 320 363 320 363 320 387 c 2,33,-1
 319 416 l 1,34,35
 294 385 294 385 254.5 368 c 128,-1,36
 215 351 215 351 170 351 c 0,0,1
176 377 m 0,37,38
 218 377 218 377 252.5 391.5 c 128,-1,39
 287 406 287 406 305 430 c 0,40,41
 316 444 316 444 316 457 c 2,42,-1
 316 518 l 1,43,44
 290 529 290 529 262 533 c 128,-1,45
 234 537 234 537 205 537 c 0,46,47
 150 537 150 537 116 516 c 128,-1,48
 82 495 82 495 82 459 c 0,49,50
 82 424 82 424 109 400.5 c 128,-1,51
 136 377 136 377 176 377 c 0,37,38
EndSplineSet
EndChar

StartChar: guillemotleft
Encoding: 171 171 110
Width: 518
GlyphClass: 2
Flags: W
LayerCount: 2
Fore
SplineSet
42 268 m 1,0,-1
 279 437 l 1,1,-1
 279 415 l 1,2,-1
 61 259 l 1,3,-1
 279 102 l 1,4,-1
 279 80 l 1,5,-1
 42 250 l 1,6,-1
 42 268 l 1,0,-1
212 268 m 1,7,-1
 449 437 l 1,8,-1
 449 415 l 1,9,-1
 231 259 l 1,10,-1
 449 102 l 1,11,-1
 449 80 l 1,12,-1
 212 250 l 1,13,-1
 212 268 l 1,7,-1
EndSplineSet
EndChar

StartChar: logicalnot
Encoding: 172 172 111
Width: 561
GlyphClass: 2
Flags: W
LayerCount: 2
Fore
SplineSet
490 338 m 1,0,-1
 490 140 l 1,1,-1
 470 140 l 1,2,-1
 470 318 l 1,3,-1
 87 318 l 1,4,-1
 87 338 l 1,5,-1
 490 338 l 1,0,-1
EndSplineSet
EndChar

StartChar: uni00AD
Encoding: 173 173 112
Width: 541
GlyphClass: 2
Flags: W
LayerCount: 2
Fore
SplineSet
69 261 m 1,0,-1
 69 281 l 1,1,-1
 472 281 l 1,2,-1
 472 261 l 1,3,-1
 69 261 l 1,0,-1
EndSplineSet
EndChar

StartChar: registered
Encoding: 174 174 113
Width: 824
GlyphClass: 2
Flags: W
LayerCount: 2
Fore
SplineSet
412 -7 m 256,0,1
 334 -7 334 -7 268 20.5 c 128,-1,2
 202 48 202 48 154 96.5 c 128,-1,3
 106 145 106 145 78.5 211 c 128,-1,4
 51 277 51 277 51 355 c 0,5,6
 51 432 51 432 78.5 498 c 128,-1,7
 106 564 106 564 154 612 c 128,-1,8
 202 660 202 660 268 687.5 c 128,-1,9
 334 715 334 715 412 715 c 256,10,11
 490 715 490 715 556 687.5 c 128,-1,12
 622 660 622 660 670 612 c 128,-1,13
 718 564 718 564 745.5 498 c 128,-1,14
 773 432 773 432 773 355 c 0,15,16
 773 277 773 277 745.5 211 c 128,-1,17
 718 145 718 145 670 96.5 c 128,-1,18
 622 48 622 48 556 20.5 c 128,-1,19
 490 -7 490 -7 412 -7 c 256,0,1
412 13 m 0,20,21
 484 13 484 13 546 37.5 c 128,-1,22
 608 62 608 62 654 107 c 128,-1,23
 700 152 700 152 726 215 c 128,-1,24
 752 278 752 278 752 355 c 0,25,26
 752 428 752 428 726.5 490 c 128,-1,27
 701 552 701 552 655.5 597.5 c 128,-1,28
 610 643 610 643 547.5 669 c 128,-1,29
 485 695 485 695 412 695 c 256,30,31
 339 695 339 695 276.5 669 c 128,-1,32
 214 643 214 643 168.5 597.5 c 128,-1,33
 123 552 123 552 97.5 490 c 128,-1,34
 72 428 72 428 72 355 c 0,35,36
 72 281 72 281 97.5 218.5 c 128,-1,37
 123 156 123 156 168.5 110.5 c 128,-1,38
 214 65 214 65 276 39 c 128,-1,39
 338 13 338 13 412 13 c 0,20,21
267 583 m 1,40,-1
 455 583 l 2,41,42
 483 583 483 583 507 571 c 128,-1,43
 531 559 531 559 548.5 539 c 128,-1,44
 566 519 566 519 575.5 494 c 128,-1,45
 585 469 585 469 585 443 c 0,46,47
 585 416 585 416 576.5 391.5 c 128,-1,48
 568 367 568 367 552.5 348 c 128,-1,49
 537 329 537 329 515 317 c 128,-1,50
 493 305 493 305 467 303 c 1,51,-1
 584 121 l 1,52,-1
 560 121 l 1,53,-1
 444 303 l 1,54,-1
 288 303 l 1,55,-1
 288 121 l 1,56,-1
 267 121 l 1,57,-1
 267 583 l 1,40,-1
460 323 m 2,58,59
 486 323 486 323 505.5 332.5 c 128,-1,60
 525 342 525 342 538.5 358.5 c 128,-1,61
 552 375 552 375 558.5 397 c 128,-1,62
 565 419 565 419 565 443 c 256,63,64
 565 467 565 467 557 489 c 128,-1,65
 549 511 549 511 534.5 527 c 128,-1,66
 520 543 520 543 499.5 552.5 c 128,-1,67
 479 562 479 562 455 562 c 2,68,-1
 288 562 l 1,69,-1
 288 323 l 1,70,-1
 460 323 l 2,58,59
EndSplineSet
EndChar

StartChar: macron
Encoding: 175 175 114
Width: 380
GlyphClass: 2
Flags: W
LayerCount: 2
Fore
SplineSet
50 686 m 1,0,-1
 50 706 l 1,1,-1
 330 706 l 1,2,-1
 330 686 l 1,3,-1
 50 686 l 1,0,-1
EndSplineSet
EndChar

StartChar: degree
Encoding: 176 176 115
Width: 252
GlyphClass: 2
Flags: W
LayerCount: 2
Fore
SplineSet
57 655 m 256,0,1
 57 684 57 684 77 704 c 128,-1,2
 97 724 97 724 126 724 c 256,3,4
 155 724 155 724 175 704 c 128,-1,5
 195 684 195 684 195 655 c 256,6,7
 195 626 195 626 175 606 c 128,-1,8
 155 586 155 586 126 586 c 256,9,10
 97 586 97 586 77 606 c 128,-1,11
 57 626 57 626 57 655 c 256,0,1
91 690 m 256,12,13
 77 676 77 676 77 655 c 0,14,15
 77 633 77 633 91 621 c 0,16,17
 106 606 106 606 126 606 c 256,18,19
 146 606 146 606 161 621 c 0,20,21
 175 635 175 635 175 655 c 0,22,23
 175 666 175 666 171 674.5 c 128,-1,24
 167 683 167 683 161 690 c 0,25,26
 147 704 147 704 126 704 c 256,27,28
 105 704 105 704 91 690 c 256,12,13
EndSplineSet
EndChar

StartChar: plusminus
Encoding: 177 177 116
Width: 470
GlyphClass: 2
Flags: W
LayerCount: 2
Fore
SplineSet
85 85 m 1,0,-1
 85 105 l 1,1,-1
 385 105 l 1,2,-1
 385 85 l 1,3,-1
 85 85 l 1,0,-1
385 365 m 1,4,-1
 385 345 l 1,5,-1
 245 345 l 1,6,-1
 245 195 l 1,7,-1
 225 195 l 1,8,-1
 225 345 l 1,9,-1
 85 345 l 1,10,-1
 85 365 l 1,11,-1
 225 365 l 1,12,-1
 225 515 l 1,13,-1
 245 515 l 1,14,-1
 245 365 l 1,15,-1
 385 365 l 1,4,-1
EndSplineSet
EndChar

StartChar: twosuperior
Encoding: 178 178 117
Width: 369
GlyphClass: 2
Flags: W
LayerCount: 2
Fore
SplineSet
40 423 m 1,0,1
 40 497 40 497 73 536 c 128,-1,2
 106 575 106 575 163 596 c 0,3,4
 185 604 185 604 210 612 c 128,-1,5
 235 620 235 620 255.5 631.5 c 128,-1,6
 276 643 276 643 289.5 660 c 128,-1,7
 303 677 303 677 303 703 c 0,8,9
 303 720 303 720 296 736 c 128,-1,10
 289 752 289 752 275 764.5 c 128,-1,11
 261 777 261 777 240 784.5 c 128,-1,12
 219 792 219 792 190 792 c 0,13,14
 163 792 163 792 141.5 785.5 c 128,-1,15
 120 779 120 779 104 770 c 128,-1,16
 88 761 88 761 77 750.5 c 128,-1,17
 66 740 66 740 60 732 c 1,18,-1
 45 744 l 2,19,20
 46 746 46 746 55.5 756.5 c 128,-1,21
 65 767 65 767 83 779 c 128,-1,22
 101 791 101 791 128.5 801 c 128,-1,23
 156 811 156 811 192 811 c 0,24,25
 226 811 226 811 250.5 802 c 128,-1,26
 275 793 275 793 291.5 778 c 128,-1,27
 308 763 308 763 316 743 c 128,-1,28
 324 723 324 723 324 702 c 0,29,30
 324 672 324 672 309 652.5 c 128,-1,31
 294 633 294 633 272 620 c 128,-1,32
 250 607 250 607 224.5 598.5 c 128,-1,33
 199 590 199 590 178 583 c 0,34,35
 139 569 139 569 116 551 c 128,-1,36
 93 533 93 533 82 514 c 128,-1,37
 71 495 71 495 68 476 c 128,-1,38
 65 457 65 457 65 442 c 1,39,-1
 325 442 l 1,40,-1
 325 423 l 1,41,-1
 40 423 l 1,0,1
EndSplineSet
EndChar

StartChar: threesuperior
Encoding: 179 179 118
Width: 380
GlyphClass: 2
Flags: W
LayerCount: 2
Fore
SplineSet
190 418 m 256,0,1
 159 418 159 418 132.5 425 c 128,-1,2
 106 432 106 432 86 445 c 128,-1,3
 66 458 66 458 54 475.5 c 128,-1,4
 42 493 42 493 41 514 c 1,5,-1
 57 521 l 1,6,7
 58 504 58 504 68.5 489 c 128,-1,8
 79 474 79 474 97 462.5 c 128,-1,9
 115 451 115 451 139 444 c 128,-1,10
 163 437 163 437 190 437 c 256,11,12
 217 437 217 437 240 443.5 c 128,-1,13
 263 450 263 450 280.5 461 c 128,-1,14
 298 472 298 472 307.5 488 c 128,-1,15
 317 504 317 504 317 522 c 0,16,17
 317 562 317 562 276 585.5 c 128,-1,18
 235 609 235 609 168 609 c 2,19,-1
 146 609 l 1,20,-1
 146 627 l 1,21,-1
 168 627 l 2,22,23
 234 627 234 627 269 646.5 c 128,-1,24
 304 666 304 666 304 704 c 0,25,26
 304 743 304 743 269.5 768 c 128,-1,27
 235 793 235 793 182 793 c 0,28,29
 140 793 140 793 108 776 c 128,-1,30
 76 759 76 759 63 733 c 1,31,-1
 48 745 l 1,32,33
 63 775 63 775 99.5 793 c 128,-1,34
 136 811 136 811 182 811 c 0,35,36
 213 811 213 811 239 803 c 128,-1,37
 265 795 265 795 284 780.5 c 128,-1,38
 303 766 303 766 314 746.5 c 128,-1,39
 325 727 325 727 325 705 c 0,40,41
 325 638 325 638 236 618 c 1,42,43
 282 610 282 610 309.5 583.5 c 128,-1,44
 337 557 337 557 337 520 c 0,45,46
 337 498 337 498 325.5 479 c 128,-1,47
 314 460 314 460 294 446.5 c 128,-1,48
 274 433 274 433 247.5 425.5 c 128,-1,49
 221 418 221 418 190 418 c 256,0,1
EndSplineSet
EndChar

StartChar: acute
Encoding: 180 180 119
Width: 198
GlyphClass: 2
Flags: W
LayerCount: 2
Fore
SplineSet
66 645 m 1,0,-1
 50 657 l 1,1,-1
 114 730 l 1,2,-1
 148 730 l 1,3,-1
 66 645 l 1,0,-1
EndSplineSet
EndChar

StartChar: mu
Encoding: 181 181 120
Width: 602
GlyphClass: 2
Flags: W
LayerCount: 2
Fore
SplineSet
91 519 m 1,0,-1
 111 519 l 1,1,-1
 111 228 l 2,2,3
 111 10 111 10 258 10 c 0,4,5
 295 10 295 10 331 23.5 c 128,-1,6
 367 37 367 37 397 60.5 c 128,-1,7
 427 84 427 84 449.5 117 c 128,-1,8
 472 150 472 150 484 189 c 1,9,-1
 484 519 l 1,10,-1
 504 519 l 1,11,-1
 504 40 l 2,12,13
 504 20 504 20 520 20 c 1,14,-1
 520 0 l 1,15,16
 509 0 509 0 506 2 c 0,17,18
 496 6 496 6 490 16.5 c 128,-1,19
 484 27 484 27 484 40 c 2,20,-1
 484 132 l 1,21,22
 450 66 450 66 389 28 c 128,-1,23
 328 -10 328 -10 258 -10 c 0,24,25
 149 -10 149 -10 111 94 c 1,26,-1
 111 -212 l 1,27,-1
 91 -212 l 1,28,-1
 91 519 l 1,0,-1
EndSplineSet
EndChar

StartChar: paragraph
Encoding: 182 182 121
Width: 565
GlyphClass: 2
Flags: W
LayerCount: 2
Fore
SplineSet
32 479 m 256,0,1
 32 533 32 533 51 575.5 c 128,-1,2
 70 618 70 618 106.5 648 c 128,-1,3
 143 678 143 678 195.5 694 c 128,-1,4
 248 710 248 710 314 710 c 2,5,-1
 515 710 l 1,6,-1
 515 690 l 1,7,-1
 445 690 l 1,8,-1
 445 -80 l 1,9,-1
 425 -80 l 1,10,-1
 425 248 l 1,11,-1
 334 248 l 1,12,-1
 334 -80 l 1,13,-1
 314 -80 l 1,14,-1
 314 248 l 1,15,16
 248 249 248 249 196 265 c 128,-1,17
 144 281 144 281 107.5 310.5 c 128,-1,18
 71 340 71 340 51.5 382.5 c 128,-1,19
 32 425 32 425 32 479 c 256,0,1
52 479 m 0,20,21
 52 424 52 424 73 385 c 128,-1,22
 94 346 94 346 130 320.5 c 128,-1,23
 166 295 166 295 213.5 282.5 c 128,-1,24
 261 270 261 270 314 268 c 1,25,-1
 314 690 l 1,26,27
 186 690 186 690 119 634.5 c 128,-1,28
 52 579 52 579 52 479 c 0,20,21
425 690 m 1,29,-1
 334 690 l 1,30,-1
 334 268 l 1,31,-1
 425 268 l 1,32,-1
 425 690 l 1,29,-1
EndSplineSet
EndChar

StartChar: periodcentered
Encoding: 183 183 122
Width: 158
GlyphClass: 2
Flags: W
LayerCount: 2
Fore
SplineSet
69 250 m 1,0,-1
 69 333 l 1,1,-1
 89 333 l 1,2,-1
 89 250 l 1,3,-1
 69 250 l 1,0,-1
EndSplineSet
EndChar

StartChar: cedilla
Encoding: 184 184 123
Width: 252
GlyphClass: 2
Flags: W
LayerCount: 2
Fore
SplineSet
33 -125 m 1,0,1
 48 -132 48 -132 71 -137.5 c 128,-1,2
 94 -143 94 -143 120 -143 c 0,3,4
 178 -143 178 -143 178 -105 c 0,5,6
 178 -84 178 -84 164.5 -75.5 c 128,-1,7
 151 -67 151 -67 130 -67 c 256,8,9
 109 -67 109 -67 86 -72.5 c 128,-1,10
 63 -78 63 -78 49 -83 c 1,11,-1
 103 11 l 1,12,-1
 121 0 l 1,13,-1
 88 -57 l 1,14,15
 98 -53 98 -53 110 -52 c 128,-1,16
 122 -51 122 -51 130 -51 c 0,17,18
 198 -51 198 -51 198 -105 c 0,19,20
 198 -135 198 -135 176.5 -148.5 c 128,-1,21
 155 -162 155 -162 117 -162 c 0,22,23
 91 -162 91 -162 66.5 -156.5 c 128,-1,24
 42 -151 42 -151 23 -143 c 1,25,-1
 33 -125 l 1,0,1
EndSplineSet
EndChar

StartChar: onesuperior
Encoding: 185 185 124
Width: 252
GlyphClass: 2
Flags: W
LayerCount: 2
Fore
SplineSet
230 441 m 1,0,-1
 230 422 l 1,1,-1
 49 422 l 1,2,-1
 49 441 l 1,3,-1
 132 441 l 1,4,-1
 132 785 l 1,5,6
 127 779 127 779 115.5 770.5 c 128,-1,7
 104 762 104 762 90.5 755 c 128,-1,8
 77 748 77 748 62 743 c 128,-1,9
 47 738 47 738 35 738 c 1,10,-1
 35 757 l 1,11,12
 51 757 51 757 68 765 c 128,-1,13
 85 773 85 773 99 783 c 128,-1,14
 113 793 113 793 122 801.5 c 128,-1,15
 131 810 131 810 132 811 c 2,16,-1
 152 811 l 1,17,-1
 152 441 l 1,18,-1
 230 441 l 1,0,-1
EndSplineSet
EndChar

StartChar: ordmasculine
Encoding: 186 186 125
Width: 450
GlyphClass: 2
Flags: W
LayerCount: 2
Fore
SplineSet
224 351 m 256,0,1
 187 351 187 351 155 365.5 c 128,-1,2
 123 380 123 380 99.5 404.5 c 128,-1,3
 76 429 76 429 62.5 461 c 128,-1,4
 49 493 49 493 49 529 c 0,5,6
 49 566 49 566 62.5 598.5 c 128,-1,7
 76 631 76 631 99.5 655.5 c 128,-1,8
 123 680 123 680 155 694.5 c 128,-1,9
 187 709 187 709 224 709 c 256,10,11
 261 709 261 709 293.5 694.5 c 128,-1,12
 326 680 326 680 350 655.5 c 128,-1,13
 374 631 374 631 387.5 598.5 c 128,-1,14
 401 566 401 566 401 529 c 0,15,16
 401 493 401 493 387.5 461 c 128,-1,17
 374 429 374 429 350 404.5 c 128,-1,18
 326 380 326 380 293.5 365.5 c 128,-1,19
 261 351 261 351 224 351 c 256,0,1
71 528 m 256,20,21
 71 495 71 495 83 466.5 c 128,-1,22
 95 438 95 438 116 416.5 c 128,-1,23
 137 395 137 395 164.5 382.5 c 128,-1,24
 192 370 192 370 224 370 c 256,25,26
 256 370 256 370 284 383 c 128,-1,27
 312 396 312 396 333 417.5 c 128,-1,28
 354 439 354 439 366.5 468 c 128,-1,29
 379 497 379 497 379 530 c 256,30,31
 379 563 379 563 366.5 592 c 128,-1,32
 354 621 354 621 333 642.5 c 128,-1,33
 312 664 312 664 284 676.5 c 128,-1,34
 256 689 256 689 224 689 c 0,35,36
 193 689 193 689 165 676.5 c 128,-1,37
 137 664 137 664 116 642 c 128,-1,38
 95 620 95 620 83 590.5 c 128,-1,39
 71 561 71 561 71 528 c 256,20,21
EndSplineSet
EndChar

StartChar: guillemotright
Encoding: 187 187 126
Width: 518
GlyphClass: 2
Flags: W
LayerCount: 2
Fore
SplineSet
476 250 m 1,0,-1
 239 80 l 1,1,-1
 239 102 l 1,2,-1
 457 259 l 1,3,-1
 239 415 l 1,4,-1
 239 437 l 1,5,-1
 476 268 l 1,6,-1
 476 250 l 1,0,-1
306 250 m 1,7,-1
 69 80 l 1,8,-1
 69 102 l 1,9,-1
 287 259 l 1,10,-1
 69 415 l 1,11,-1
 69 437 l 1,12,-1
 306 268 l 1,13,-1
 306 250 l 1,7,-1
EndSplineSet
EndChar

StartChar: onequarter
Encoding: 188 188 127
Width: 745
GlyphClass: 2
Flags: W
LayerCount: 2
Fore
SplineSet
98 11 m 1,0,-1
 656 711 l 1,1,-1
 672 699 l 1,2,-1
 114 -1 l 1,3,-1
 98 11 l 1,0,-1
241 361 m 1,4,-1
 241 342 l 1,5,-1
 60 342 l 1,6,-1
 60 361 l 1,7,-1
 143 361 l 1,8,-1
 143 705 l 1,9,10
 138 699 138 699 126.5 690.5 c 128,-1,11
 115 682 115 682 101.5 675 c 128,-1,12
 88 668 88 668 73 663 c 128,-1,13
 58 658 58 658 46 658 c 1,14,-1
 46 677 l 1,15,16
 62 677 62 677 79 685 c 128,-1,17
 96 693 96 693 110 703 c 128,-1,18
 124 713 124 713 133 721.5 c 128,-1,19
 142 730 142 730 143 731 c 2,20,-1
 163 731 l 1,21,-1
 163 361 l 1,22,-1
 241 361 l 1,4,-1
634 0 m 1,23,-1
 634 110 l 1,24,-1
 401 110 l 1,25,-1
 401 127 l 1,26,-1
 640 383 l 1,27,-1
 654 383 l 1,28,-1
 654 129 l 1,29,-1
 709 129 l 1,30,-1
 709 110 l 1,31,-1
 654 110 l 1,32,-1
 654 0 l 1,33,-1
 634 0 l 1,23,-1
429 129 m 1,34,-1
 634 129 l 1,35,-1
 634 348 l 1,36,-1
 429 129 l 1,34,-1
EndSplineSet
EndChar

StartChar: onehalf
Encoding: 189 189 128
Width: 796
GlyphClass: 2
Flags: W
LayerCount: 2
Fore
SplineSet
71 11 m 1,0,-1
 629 711 l 1,1,-1
 645 699 l 1,2,-1
 87 -1 l 1,3,-1
 71 11 l 1,0,-1
245 361 m 1,4,-1
 245 342 l 1,5,-1
 64 342 l 1,6,-1
 64 361 l 1,7,-1
 147 361 l 1,8,-1
 147 705 l 1,9,10
 142 699 142 699 130.5 690.5 c 128,-1,11
 119 682 119 682 105.5 675 c 128,-1,12
 92 668 92 668 77 663 c 128,-1,13
 62 658 62 658 50 658 c 1,14,-1
 50 677 l 1,15,16
 66 677 66 677 83 685 c 128,-1,17
 100 693 100 693 114 703 c 128,-1,18
 128 713 128 713 137 721.5 c 128,-1,19
 146 730 146 730 147 731 c 2,20,-1
 167 731 l 1,21,-1
 167 361 l 1,22,-1
 245 361 l 1,4,-1
467 0 m 1,23,24
 467 74 467 74 500 113 c 128,-1,25
 533 152 533 152 590 173 c 0,26,27
 612 181 612 181 637 189 c 128,-1,28
 662 197 662 197 682.5 208.5 c 128,-1,29
 703 220 703 220 716.5 237 c 128,-1,30
 730 254 730 254 730 280 c 0,31,32
 730 297 730 297 723 313 c 128,-1,33
 716 329 716 329 702 341.5 c 128,-1,34
 688 354 688 354 667 361.5 c 128,-1,35
 646 369 646 369 617 369 c 0,36,37
 590 369 590 369 568.5 362.5 c 128,-1,38
 547 356 547 356 531 347 c 128,-1,39
 515 338 515 338 504 327.5 c 128,-1,40
 493 317 493 317 487 309 c 1,41,-1
 472 321 l 2,42,43
 473 323 473 323 482.5 333.5 c 128,-1,44
 492 344 492 344 510 356 c 128,-1,45
 528 368 528 368 555.5 378 c 128,-1,46
 583 388 583 388 619 388 c 0,47,48
 653 388 653 388 677.5 379 c 128,-1,49
 702 370 702 370 718.5 355 c 128,-1,50
 735 340 735 340 743 320 c 128,-1,51
 751 300 751 300 751 279 c 0,52,53
 751 249 751 249 736 229.5 c 128,-1,54
 721 210 721 210 699 197 c 128,-1,55
 677 184 677 184 651.5 175.5 c 128,-1,56
 626 167 626 167 605 160 c 0,57,58
 566 146 566 146 543 128 c 128,-1,59
 520 110 520 110 509 91 c 128,-1,60
 498 72 498 72 495 53 c 128,-1,61
 492 34 492 34 492 19 c 1,62,-1
 752 19 l 1,63,-1
 752 0 l 1,64,-1
 467 0 l 1,23,24
EndSplineSet
EndChar

StartChar: threequarters
Encoding: 190 190 129
Width: 766
GlyphClass: 2
Flags: W
LayerCount: 2
Fore
SplineSet
137 11 m 1,0,-1
 695 711 l 1,1,-1
 711 699 l 1,2,-1
 153 -1 l 1,3,-1
 137 11 l 1,0,-1
649 0 m 1,4,-1
 649 110 l 1,5,-1
 416 110 l 1,6,-1
 416 127 l 1,7,-1
 655 383 l 1,8,-1
 669 383 l 1,9,-1
 669 129 l 1,10,-1
 724 129 l 1,11,-1
 724 110 l 1,12,-1
 669 110 l 1,13,-1
 669 0 l 1,14,-1
 649 0 l 1,4,-1
444 129 m 1,15,-1
 649 129 l 1,16,-1
 649 348 l 1,17,-1
 444 129 l 1,15,-1
194 338 m 256,18,19
 163 338 163 338 136.5 345 c 128,-1,20
 110 352 110 352 90 365 c 128,-1,21
 70 378 70 378 58 395.5 c 128,-1,22
 46 413 46 413 45 434 c 1,23,-1
 61 441 l 1,24,25
 62 424 62 424 72.5 409 c 128,-1,26
 83 394 83 394 101 382.5 c 128,-1,27
 119 371 119 371 143 364 c 128,-1,28
 167 357 167 357 194 357 c 256,29,30
 221 357 221 357 244 363.5 c 128,-1,31
 267 370 267 370 284.5 381 c 128,-1,32
 302 392 302 392 311.5 408 c 128,-1,33
 321 424 321 424 321 442 c 0,34,35
 321 482 321 482 280 505.5 c 128,-1,36
 239 529 239 529 172 529 c 2,37,-1
 150 529 l 1,38,-1
 150 547 l 1,39,-1
 172 547 l 2,40,41
 238 547 238 547 273 566.5 c 128,-1,42
 308 586 308 586 308 624 c 0,43,44
 308 663 308 663 273.5 688 c 128,-1,45
 239 713 239 713 186 713 c 0,46,47
 144 713 144 713 112 696 c 128,-1,48
 80 679 80 679 67 653 c 1,49,-1
 52 665 l 1,50,51
 67 695 67 695 103.5 713 c 128,-1,52
 140 731 140 731 186 731 c 0,53,54
 217 731 217 731 243 723 c 128,-1,55
 269 715 269 715 288 700.5 c 128,-1,56
 307 686 307 686 318 666.5 c 128,-1,57
 329 647 329 647 329 625 c 0,58,59
 329 558 329 558 240 538 c 1,60,61
 286 530 286 530 313.5 503.5 c 128,-1,62
 341 477 341 477 341 440 c 0,63,64
 341 418 341 418 329.5 399 c 128,-1,65
 318 380 318 380 298 366.5 c 128,-1,66
 278 353 278 353 251.5 345.5 c 128,-1,67
 225 338 225 338 194 338 c 256,18,19
EndSplineSet
EndChar

StartChar: questiondown
Encoding: 191 191 130
Width: 461
GlyphClass: 2
Flags: W
LayerCount: 2
Fore
SplineSet
286 327 m 1,0,1
 286 279 286 279 279.5 247.5 c 128,-1,2
 273 216 273 216 261.5 195 c 128,-1,3
 250 174 250 174 234 161.5 c 128,-1,4
 218 149 218 149 200 140 c 0,5,6
 176 128 176 128 150.5 116 c 128,-1,7
 125 104 125 104 103.5 86 c 128,-1,8
 82 68 82 68 68 41 c 128,-1,9
 54 14 54 14 54 -29 c 256,10,11
 54 -72 54 -72 68 -103 c 128,-1,12
 82 -134 82 -134 105.5 -154 c 128,-1,13
 129 -174 129 -174 158.5 -183.5 c 128,-1,14
 188 -193 188 -193 220 -193 c 0,15,16
 250 -193 250 -193 279 -185 c 128,-1,17
 308 -177 308 -177 333 -161.5 c 128,-1,18
 358 -146 358 -146 378 -124.5 c 128,-1,19
 398 -103 398 -103 411 -76 c 1,20,-1
 429 -84 l 1,21,22
 415 -115 415 -115 392.5 -139 c 128,-1,23
 370 -163 370 -163 342 -179.5 c 128,-1,24
 314 -196 314 -196 283 -204.5 c 128,-1,25
 252 -213 252 -213 221 -213 c 0,26,27
 185 -213 185 -213 151 -201 c 128,-1,28
 117 -189 117 -189 91 -165.5 c 128,-1,29
 65 -142 65 -142 49.5 -107 c 128,-1,30
 34 -72 34 -72 34 -26 c 0,31,32
 34 19 34 19 48.5 48.5 c 128,-1,33
 63 78 63 78 86 97.5 c 128,-1,34
 109 117 109 117 137 130.5 c 128,-1,35
 165 144 165 144 192 159 c 0,36,37
 208 168 208 168 221.5 178.5 c 128,-1,38
 235 189 235 189 245 207.5 c 128,-1,39
 255 226 255 226 260.5 254.5 c 128,-1,40
 266 283 266 283 266 327 c 1,41,-1
 286 327 l 1,0,1
286 506 m 1,42,-1
 286 422 l 1,43,-1
 266 422 l 1,44,-1
 266 506 l 1,45,-1
 286 506 l 1,42,-1
EndSplineSet
EndChar

StartChar: Agrave
Encoding: 192 192 131
Width: 674
GlyphClass: 2
Flags: W
LayerCount: 2
Fore
SplineSet
328 710 m 1,0,-1
 346 710 l 1,1,-1
 655 0 l 1,2,-1
 633 0 l 1,3,-1
 522 254 l 1,4,-1
 151 254 l 1,5,-1
 40 0 l 1,6,-1
 18 0 l 1,7,-1
 328 710 l 1,0,-1
513 274 m 1,8,-1
 337 681 l 1,9,-1
 159 274 l 1,10,-1
 513 274 l 1,8,-1
269 918 m 1,11,-1
 302 918 l 1,12,-1
 367 845 l 1,13,-1
 351 833 l 1,14,-1
 269 918 l 1,11,-1
EndSplineSet
EndChar

StartChar: Aacute
Encoding: 193 193 132
Width: 674
GlyphClass: 2
Flags: W
LayerCount: 2
Fore
SplineSet
328 710 m 1,0,-1
 346 710 l 1,1,-1
 655 0 l 1,2,-1
 633 0 l 1,3,-1
 522 254 l 1,4,-1
 151 254 l 1,5,-1
 40 0 l 1,6,-1
 18 0 l 1,7,-1
 328 710 l 1,0,-1
513 274 m 1,8,-1
 337 681 l 1,9,-1
 159 274 l 1,10,-1
 513 274 l 1,8,-1
323 833 m 1,11,-1
 307 845 l 1,12,-1
 371 918 l 1,13,-1
 405 918 l 1,14,-1
 323 833 l 1,11,-1
EndSplineSet
EndChar

StartChar: Acircumflex
Encoding: 194 194 133
Width: 674
GlyphClass: 2
Flags: W
LayerCount: 2
Fore
SplineSet
328 710 m 1,0,-1
 346 710 l 1,1,-1
 655 0 l 1,2,-1
 633 0 l 1,3,-1
 522 254 l 1,4,-1
 151 254 l 1,5,-1
 40 0 l 1,6,-1
 18 0 l 1,7,-1
 328 710 l 1,0,-1
513 274 m 1,8,-1
 337 681 l 1,9,-1
 159 274 l 1,10,-1
 513 274 l 1,8,-1
236 844 m 1,11,-1
 329 918 l 1,12,-1
 345 918 l 1,13,-1
 438 844 l 1,14,-1
 422 832 l 1,15,-1
 337 895 l 1,16,-1
 252 832 l 1,17,-1
 236 844 l 1,11,-1
EndSplineSet
EndChar

StartChar: Atilde
Encoding: 195 195 134
Width: 674
GlyphClass: 2
Flags: W
LayerCount: 2
Fore
SplineSet
328 710 m 1,0,-1
 346 710 l 1,1,-1
 655 0 l 1,2,-1
 633 0 l 1,3,-1
 522 254 l 1,4,-1
 151 254 l 1,5,-1
 40 0 l 1,6,-1
 18 0 l 1,7,-1
 328 710 l 1,0,-1
513 274 m 1,8,-1
 337 681 l 1,9,-1
 159 274 l 1,10,-1
 513 274 l 1,8,-1
398 851 m 0,11,12
 376 851 376 851 359.5 857 c 128,-1,13
 343 863 343 863 329 870 c 128,-1,14
 315 877 315 877 301.5 883 c 128,-1,15
 288 889 288 889 273 889 c 0,16,17
 257 889 257 889 247 882.5 c 128,-1,18
 237 876 237 876 231.5 867.5 c 128,-1,19
 226 859 226 859 224 851 c 128,-1,20
 222 843 222 843 222 841 c 2,21,-1
 202 841 l 2,22,23
 202 843 202 843 204 854 c 128,-1,24
 206 865 206 865 213.5 877 c 128,-1,25
 221 889 221 889 235.5 898.5 c 128,-1,26
 250 908 250 908 275 908 c 0,27,28
 294 908 294 908 309 902 c 128,-1,29
 324 896 324 896 338 889 c 128,-1,30
 352 882 352 882 366.5 876 c 128,-1,31
 381 870 381 870 400 870 c 0,32,33
 421 870 421 870 432.5 877 c 128,-1,34
 444 884 444 884 450 892.5 c 128,-1,35
 456 901 456 901 457.5 908.5 c 128,-1,36
 459 916 459 916 459 918 c 2,37,-1
 479 918 l 2,38,39
 479 915 479 915 476.5 904 c 128,-1,40
 474 893 474 893 466 881 c 128,-1,41
 458 869 458 869 441.5 860 c 128,-1,42
 425 851 425 851 398 851 c 0,11,12
EndSplineSet
EndChar

StartChar: Adieresis
Encoding: 196 196 135
Width: 674
GlyphClass: 2
Flags: W
LayerCount: 2
Fore
SplineSet
328 710 m 1,0,-1
 346 710 l 1,1,-1
 655 0 l 1,2,-1
 633 0 l 1,3,-1
 522 254 l 1,4,-1
 151 254 l 1,5,-1
 40 0 l 1,6,-1
 18 0 l 1,7,-1
 328 710 l 1,0,-1
513 274 m 1,8,-1
 337 681 l 1,9,-1
 159 274 l 1,10,-1
 513 274 l 1,8,-1
269 841 m 1,11,-1
 269 918 l 1,12,-1
 289 918 l 1,13,-1
 289 841 l 1,14,-1
 269 841 l 1,11,-1
385 841 m 1,15,-1
 385 918 l 1,16,-1
 405 918 l 1,17,-1
 405 841 l 1,18,-1
 385 841 l 1,15,-1
EndSplineSet
EndChar

StartChar: Aring
Encoding: 197 197 136
Width: 674
GlyphClass: 2
Flags: W
LayerCount: 2
Fore
SplineSet
328 710 m 1,0,-1
 346 710 l 1,1,-1
 655 0 l 1,2,-1
 633 0 l 1,3,-1
 522 254 l 1,4,-1
 151 254 l 1,5,-1
 40 0 l 1,6,-1
 18 0 l 1,7,-1
 328 710 l 1,0,-1
513 274 m 1,8,-1
 337 681 l 1,9,-1
 159 274 l 1,10,-1
 513 274 l 1,8,-1
280 861 m 256,11,12
 280 885 280 885 296.5 901.5 c 128,-1,13
 313 918 313 918 337 918 c 256,14,15
 361 918 361 918 377.5 901.5 c 128,-1,16
 394 885 394 885 394 861 c 256,17,18
 394 837 394 837 377.5 820.5 c 128,-1,19
 361 804 361 804 337 804 c 256,20,21
 313 804 313 804 296.5 820.5 c 128,-1,22
 280 837 280 837 280 861 c 256,11,12
337 902 m 256,23,24
 320 902 320 902 308 891 c 128,-1,25
 296 880 296 880 296 861 c 0,26,27
 296 844 296 844 308 832 c 128,-1,28
 320 820 320 820 337 820 c 0,29,30
 352 820 352 820 365 831.5 c 128,-1,31
 378 843 378 843 378 861 c 0,32,33
 378 880 378 880 366 891 c 128,-1,34
 354 902 354 902 337 902 c 256,23,24
EndSplineSet
EndChar

StartChar: AE
Encoding: 198 198 137
Width: 962
GlyphClass: 2
Flags: W
LayerCount: 2
Fore
SplineSet
439 710 m 1,0,-1
 901 710 l 1,1,-1
 901 690 l 1,2,-1
 464 690 l 1,3,-1
 464 373 l 1,4,-1
 847 373 l 1,5,-1
 847 353 l 1,6,-1
 464 353 l 1,7,-1
 464 20 l 1,8,-1
 910 20 l 1,9,-1
 910 0 l 1,10,-1
 444 0 l 1,11,-1
 444 254 l 1,12,-1
 163 254 l 1,13,-1
 -4 0 l 1,14,-1
 -29 0 l 1,15,-1
 439 710 l 1,0,-1
444 274 m 1,16,-1
 444 678 l 1,17,-1
 175 274 l 1,18,-1
 444 274 l 1,16,-1
EndSplineSet
EndChar

StartChar: Ccedilla
Encoding: 199 199 138
Width: 693
GlyphClass: 2
Flags: W
LayerCount: 2
Fore
SplineSet
306 -125 m 1,0,1
 321 -132 321 -132 344 -137.5 c 128,-1,2
 367 -143 367 -143 393 -143 c 0,3,4
 451 -143 451 -143 451 -105 c 0,5,6
 451 -84 451 -84 437.5 -75.5 c 128,-1,7
 424 -67 424 -67 403 -67 c 256,8,9
 382 -67 382 -67 359 -72.5 c 128,-1,10
 336 -78 336 -78 322 -83 c 1,11,-1
 366 -5 l 1,12,13
 295 -4 295 -4 236 28.5 c 128,-1,14
 177 61 177 61 134 112.5 c 128,-1,15
 91 164 91 164 67.5 228.5 c 128,-1,16
 44 293 44 293 44 360 c 0,17,18
 44 424 44 424 66.5 487 c 128,-1,19
 89 550 89 550 131.5 600.5 c 128,-1,20
 174 651 174 651 236.5 682.5 c 128,-1,21
 299 714 299 714 379 714 c 0,22,23
 474 714 474 714 540 670.5 c 128,-1,24
 606 627 606 627 638 559 c 1,25,-1
 619 553 l 1,26,27
 598 592 598 592 570.5 619 c 128,-1,28
 543 646 543 646 510.5 662.5 c 128,-1,29
 478 679 478 679 443.5 686.5 c 128,-1,30
 409 694 409 694 375 694 c 0,31,32
 301 694 301 694 243 664.5 c 128,-1,33
 185 635 185 635 145 587 c 128,-1,34
 105 539 105 539 84.5 478.5 c 128,-1,35
 64 418 64 418 64 357 c 0,36,37
 64 289 64 289 88.5 227 c 128,-1,38
 113 165 113 165 155.5 117.5 c 128,-1,39
 198 70 198 70 255 42 c 128,-1,40
 312 14 312 14 378 14 c 0,41,42
 413 14 413 14 450 23 c 128,-1,43
 487 32 487 32 521.5 50 c 128,-1,44
 556 68 556 68 585.5 96.5 c 128,-1,45
 615 125 615 125 636 164 c 1,46,-1
 655 159 l 1,47,48
 637 121 637 121 608.5 91 c 128,-1,49
 580 61 580 61 544.5 40.5 c 128,-1,50
 509 20 509 20 469.5 8.5 c 128,-1,51
 430 -3 430 -3 391 -5 c 1,52,-1
 361 -57 l 1,53,54
 371 -53 371 -53 383 -52 c 128,-1,55
 395 -51 395 -51 403 -51 c 0,56,57
 471 -51 471 -51 471 -105 c 0,58,59
 471 -135 471 -135 449.5 -148.5 c 128,-1,60
 428 -162 428 -162 390 -162 c 0,61,62
 364 -162 364 -162 339.5 -156.5 c 128,-1,63
 315 -151 315 -151 296 -143 c 1,64,-1
 306 -125 l 1,0,1
EndSplineSet
EndChar

StartChar: Egrave
Encoding: 200 200 139
Width: 617
GlyphClass: 2
Flags: W
LayerCount: 2
Fore
SplineSet
565 20 m 1,0,-1
 565 0 l 1,1,-1
 99 0 l 1,2,-1
 99 710 l 1,3,-1
 556 710 l 1,4,-1
 556 690 l 1,5,-1
 119 690 l 1,6,-1
 119 373 l 1,7,-1
 502 373 l 1,8,-1
 502 353 l 1,9,-1
 119 353 l 1,10,-1
 119 20 l 1,11,-1
 565 20 l 1,0,-1
276 918 m 1,12,-1
 309 918 l 1,13,-1
 374 845 l 1,14,-1
 358 833 l 1,15,-1
 276 918 l 1,12,-1
EndSplineSet
EndChar

StartChar: Eacute
Encoding: 201 201 140
Width: 617
GlyphClass: 2
Flags: W
LayerCount: 2
Fore
SplineSet
565 20 m 1,0,-1
 565 0 l 1,1,-1
 99 0 l 1,2,-1
 99 710 l 1,3,-1
 556 710 l 1,4,-1
 556 690 l 1,5,-1
 119 690 l 1,6,-1
 119 373 l 1,7,-1
 502 373 l 1,8,-1
 502 353 l 1,9,-1
 119 353 l 1,10,-1
 119 20 l 1,11,-1
 565 20 l 1,0,-1
330 833 m 1,12,-1
 314 845 l 1,13,-1
 378 918 l 1,14,-1
 412 918 l 1,15,-1
 330 833 l 1,12,-1
EndSplineSet
EndChar

StartChar: Ecircumflex
Encoding: 202 202 141
Width: 617
GlyphClass: 2
Flags: W
LayerCount: 2
Fore
SplineSet
565 20 m 1,0,-1
 565 0 l 1,1,-1
 99 0 l 1,2,-1
 99 710 l 1,3,-1
 556 710 l 1,4,-1
 556 690 l 1,5,-1
 119 690 l 1,6,-1
 119 373 l 1,7,-1
 502 373 l 1,8,-1
 502 353 l 1,9,-1
 119 353 l 1,10,-1
 119 20 l 1,11,-1
 565 20 l 1,0,-1
243 844 m 1,12,-1
 336 918 l 1,13,-1
 352 918 l 1,14,-1
 445 844 l 1,15,-1
 429 832 l 1,16,-1
 344 895 l 1,17,-1
 259 832 l 1,18,-1
 243 844 l 1,12,-1
EndSplineSet
EndChar

StartChar: Edieresis
Encoding: 203 203 142
Width: 617
GlyphClass: 2
Flags: W
LayerCount: 2
Fore
SplineSet
565 20 m 1,0,-1
 565 0 l 1,1,-1
 99 0 l 1,2,-1
 99 710 l 1,3,-1
 556 710 l 1,4,-1
 556 690 l 1,5,-1
 119 690 l 1,6,-1
 119 373 l 1,7,-1
 502 373 l 1,8,-1
 502 353 l 1,9,-1
 119 353 l 1,10,-1
 119 20 l 1,11,-1
 565 20 l 1,0,-1
276 841 m 1,12,-1
 276 918 l 1,13,-1
 296 918 l 1,14,-1
 296 841 l 1,15,-1
 276 841 l 1,12,-1
392 841 m 1,16,-1
 392 918 l 1,17,-1
 412 918 l 1,18,-1
 412 841 l 1,19,-1
 392 841 l 1,16,-1
EndSplineSet
EndChar

StartChar: Igrave
Encoding: 204 204 143
Width: 218
GlyphClass: 2
Flags: W
LayerCount: 2
Fore
SplineSet
99 0 m 1,0,-1
 99 710 l 1,1,-1
 119 710 l 1,2,-1
 119 0 l 1,3,-1
 99 0 l 1,0,-1
41 918 m 1,4,-1
 74 918 l 1,5,-1
 139 845 l 1,6,-1
 123 833 l 1,7,-1
 41 918 l 1,4,-1
EndSplineSet
EndChar

StartChar: Iacute
Encoding: 205 205 144
Width: 218
GlyphClass: 2
Flags: W
LayerCount: 2
Fore
SplineSet
99 0 m 1,0,-1
 99 710 l 1,1,-1
 119 710 l 1,2,-1
 119 0 l 1,3,-1
 99 0 l 1,0,-1
95 833 m 1,4,-1
 79 845 l 1,5,-1
 143 918 l 1,6,-1
 177 918 l 1,7,-1
 95 833 l 1,4,-1
EndSplineSet
EndChar

StartChar: Icircumflex
Encoding: 206 206 145
Width: 218
GlyphClass: 2
Flags: W
LayerCount: 2
Fore
SplineSet
99 0 m 1,0,-1
 99 710 l 1,1,-1
 119 710 l 1,2,-1
 119 0 l 1,3,-1
 99 0 l 1,0,-1
8 844 m 1,4,-1
 101 918 l 1,5,-1
 117 918 l 1,6,-1
 210 844 l 1,7,-1
 194 832 l 1,8,-1
 109 895 l 1,9,-1
 24 832 l 1,10,-1
 8 844 l 1,4,-1
EndSplineSet
EndChar

StartChar: Idieresis
Encoding: 207 207 146
Width: 218
GlyphClass: 2
Flags: W
LayerCount: 2
Fore
SplineSet
99 0 m 1,0,-1
 99 710 l 1,1,-1
 119 710 l 1,2,-1
 119 0 l 1,3,-1
 99 0 l 1,0,-1
41 841 m 1,4,-1
 41 918 l 1,5,-1
 61 918 l 1,6,-1
 61 841 l 1,7,-1
 41 841 l 1,4,-1
157 841 m 1,8,-1
 157 918 l 1,9,-1
 177 918 l 1,10,-1
 177 841 l 1,11,-1
 157 841 l 1,8,-1
EndSplineSet
EndChar

StartChar: Eth
Encoding: 208 208 147
Width: 718
GlyphClass: 2
Flags: W
LayerCount: 2
Fore
SplineSet
106 0 m 1,0,-1
 106 347 l 1,1,-1
 35 347 l 1,2,-1
 35 367 l 1,3,-1
 106 367 l 1,4,-1
 106 710 l 1,5,-1
 334 710 l 2,6,7
 418 710 418 710 480.5 682 c 128,-1,8
 543 654 543 654 584.5 606 c 128,-1,9
 626 558 626 558 646.5 493.5 c 128,-1,10
 667 429 667 429 667 356 c 0,11,12
 667 275 667 275 643.5 209.5 c 128,-1,13
 620 144 620 144 577 97.5 c 128,-1,14
 534 51 534 51 472 25.5 c 128,-1,15
 410 0 410 0 334 0 c 2,16,-1
 106 0 l 1,0,-1
647 356 m 0,17,18
 647 429 647 429 626.5 490 c 128,-1,19
 606 551 606 551 566 595.5 c 128,-1,20
 526 640 526 640 467.5 665 c 128,-1,21
 409 690 409 690 334 690 c 2,22,-1
 126 690 l 1,23,-1
 126 367 l 1,24,-1
 318 367 l 1,25,-1
 318 347 l 1,26,-1
 126 347 l 1,27,-1
 126 20 l 1,28,-1
 334 20 l 2,29,30
 411 20 411 20 469.5 45.5 c 128,-1,31
 528 71 528 71 567.5 116 c 128,-1,32
 607 161 607 161 627 222.5 c 128,-1,33
 647 284 647 284 647 356 c 0,17,18
EndSplineSet
EndChar

StartChar: Ntilde
Encoding: 209 209 148
Width: 776
GlyphClass: 2
Flags: W
LayerCount: 2
Fore
SplineSet
119 671 m 1,0,-1
 119 0 l 1,1,-1
 99 0 l 1,2,-1
 99 710 l 1,3,-1
 114 710 l 1,4,-1
 657 29 l 1,5,-1
 657 710 l 1,6,-1
 677 710 l 1,7,-1
 677 0 l 1,8,-1
 654 0 l 1,9,-1
 119 671 l 1,0,-1
454 851 m 0,10,11
 432 851 432 851 415.5 857 c 128,-1,12
 399 863 399 863 385 870 c 128,-1,13
 371 877 371 877 357.5 883 c 128,-1,14
 344 889 344 889 329 889 c 0,15,16
 313 889 313 889 303 882.5 c 128,-1,17
 293 876 293 876 287.5 867.5 c 128,-1,18
 282 859 282 859 280 851 c 128,-1,19
 278 843 278 843 278 841 c 2,20,-1
 258 841 l 2,21,22
 258 843 258 843 260 854 c 128,-1,23
 262 865 262 865 269.5 877 c 128,-1,24
 277 889 277 889 291.5 898.5 c 128,-1,25
 306 908 306 908 331 908 c 0,26,27
 350 908 350 908 365 902 c 128,-1,28
 380 896 380 896 394 889 c 128,-1,29
 408 882 408 882 422.5 876 c 128,-1,30
 437 870 437 870 456 870 c 0,31,32
 477 870 477 870 488.5 877 c 128,-1,33
 500 884 500 884 506 892.5 c 128,-1,34
 512 901 512 901 513.5 908.5 c 128,-1,35
 515 916 515 916 515 918 c 2,36,-1
 535 918 l 2,37,38
 535 915 535 915 532.5 904 c 128,-1,39
 530 893 530 893 522 881 c 128,-1,40
 514 869 514 869 497.5 860 c 128,-1,41
 481 851 481 851 454 851 c 0,10,11
EndSplineSet
EndChar

StartChar: Ograve
Encoding: 210 210 149
Width: 757
GlyphClass: 2
Flags: W
LayerCount: 2
Fore
SplineSet
379 -5 m 0,0,1
 305 -5 305 -5 244.5 26 c 128,-1,2
 184 57 184 57 140 107 c 128,-1,3
 96 157 96 157 72 222 c 128,-1,4
 48 287 48 287 48 355 c 0,5,6
 48 426 48 426 73.5 491 c 128,-1,7
 99 556 99 556 143.5 606 c 128,-1,8
 188 656 188 656 248.5 685.5 c 128,-1,9
 309 715 309 715 379 715 c 0,10,11
 452 715 452 715 513 683.5 c 128,-1,12
 574 652 574 652 617.5 601 c 128,-1,13
 661 550 661 550 685 485.5 c 128,-1,14
 709 421 709 421 709 355 c 0,15,16
 709 283 709 283 683.5 218 c 128,-1,17
 658 153 658 153 613.5 103.5 c 128,-1,18
 569 54 569 54 509 24.5 c 128,-1,19
 449 -5 449 -5 379 -5 c 0,0,1
68 355 m 0,20,21
 68 289 68 289 91.5 227.5 c 128,-1,22
 115 166 115 166 156 118.5 c 128,-1,23
 197 71 197 71 254 43 c 128,-1,24
 311 15 311 15 379 15 c 0,25,26
 448 15 448 15 505.5 44.5 c 128,-1,27
 563 74 563 74 603.5 122 c 128,-1,28
 644 170 644 170 666.5 231 c 128,-1,29
 689 292 689 292 689 355 c 0,30,31
 689 421 689 421 665.5 482.5 c 128,-1,32
 642 544 642 544 600 591.5 c 128,-1,33
 558 639 558 639 501.5 667 c 128,-1,34
 445 695 445 695 379 695 c 0,35,36
 310 695 310 695 252.5 665.5 c 128,-1,37
 195 636 195 636 154 588 c 128,-1,38
 113 540 113 540 90.5 479 c 128,-1,39
 68 418 68 418 68 355 c 0,20,21
311 918 m 1,40,-1
 344 918 l 1,41,-1
 409 845 l 1,42,-1
 393 833 l 1,43,-1
 311 918 l 1,40,-1
EndSplineSet
EndChar

StartChar: Oacute
Encoding: 211 211 150
Width: 757
GlyphClass: 2
Flags: W
LayerCount: 2
Fore
SplineSet
379 -5 m 0,0,1
 305 -5 305 -5 244.5 26 c 128,-1,2
 184 57 184 57 140 107 c 128,-1,3
 96 157 96 157 72 222 c 128,-1,4
 48 287 48 287 48 355 c 0,5,6
 48 426 48 426 73.5 491 c 128,-1,7
 99 556 99 556 143.5 606 c 128,-1,8
 188 656 188 656 248.5 685.5 c 128,-1,9
 309 715 309 715 379 715 c 0,10,11
 452 715 452 715 513 683.5 c 128,-1,12
 574 652 574 652 617.5 601 c 128,-1,13
 661 550 661 550 685 485.5 c 128,-1,14
 709 421 709 421 709 355 c 0,15,16
 709 283 709 283 683.5 218 c 128,-1,17
 658 153 658 153 613.5 103.5 c 128,-1,18
 569 54 569 54 509 24.5 c 128,-1,19
 449 -5 449 -5 379 -5 c 0,0,1
68 355 m 0,20,21
 68 289 68 289 91.5 227.5 c 128,-1,22
 115 166 115 166 156 118.5 c 128,-1,23
 197 71 197 71 254 43 c 128,-1,24
 311 15 311 15 379 15 c 0,25,26
 448 15 448 15 505.5 44.5 c 128,-1,27
 563 74 563 74 603.5 122 c 128,-1,28
 644 170 644 170 666.5 231 c 128,-1,29
 689 292 689 292 689 355 c 0,30,31
 689 421 689 421 665.5 482.5 c 128,-1,32
 642 544 642 544 600 591.5 c 128,-1,33
 558 639 558 639 501.5 667 c 128,-1,34
 445 695 445 695 379 695 c 0,35,36
 310 695 310 695 252.5 665.5 c 128,-1,37
 195 636 195 636 154 588 c 128,-1,38
 113 540 113 540 90.5 479 c 128,-1,39
 68 418 68 418 68 355 c 0,20,21
365 833 m 1,40,-1
 349 845 l 1,41,-1
 413 918 l 1,42,-1
 447 918 l 1,43,-1
 365 833 l 1,40,-1
EndSplineSet
EndChar

StartChar: Ocircumflex
Encoding: 212 212 151
Width: 757
GlyphClass: 2
Flags: W
LayerCount: 2
Fore
SplineSet
379 -5 m 0,0,1
 305 -5 305 -5 244.5 26 c 128,-1,2
 184 57 184 57 140 107 c 128,-1,3
 96 157 96 157 72 222 c 128,-1,4
 48 287 48 287 48 355 c 0,5,6
 48 426 48 426 73.5 491 c 128,-1,7
 99 556 99 556 143.5 606 c 128,-1,8
 188 656 188 656 248.5 685.5 c 128,-1,9
 309 715 309 715 379 715 c 0,10,11
 452 715 452 715 513 683.5 c 128,-1,12
 574 652 574 652 617.5 601 c 128,-1,13
 661 550 661 550 685 485.5 c 128,-1,14
 709 421 709 421 709 355 c 0,15,16
 709 283 709 283 683.5 218 c 128,-1,17
 658 153 658 153 613.5 103.5 c 128,-1,18
 569 54 569 54 509 24.5 c 128,-1,19
 449 -5 449 -5 379 -5 c 0,0,1
68 355 m 0,20,21
 68 289 68 289 91.5 227.5 c 128,-1,22
 115 166 115 166 156 118.5 c 128,-1,23
 197 71 197 71 254 43 c 128,-1,24
 311 15 311 15 379 15 c 0,25,26
 448 15 448 15 505.5 44.5 c 128,-1,27
 563 74 563 74 603.5 122 c 128,-1,28
 644 170 644 170 666.5 231 c 128,-1,29
 689 292 689 292 689 355 c 0,30,31
 689 421 689 421 665.5 482.5 c 128,-1,32
 642 544 642 544 600 591.5 c 128,-1,33
 558 639 558 639 501.5 667 c 128,-1,34
 445 695 445 695 379 695 c 0,35,36
 310 695 310 695 252.5 665.5 c 128,-1,37
 195 636 195 636 154 588 c 128,-1,38
 113 540 113 540 90.5 479 c 128,-1,39
 68 418 68 418 68 355 c 0,20,21
278 844 m 1,40,-1
 371 918 l 1,41,-1
 387 918 l 1,42,-1
 480 844 l 1,43,-1
 464 832 l 1,44,-1
 379 895 l 1,45,-1
 294 832 l 1,46,-1
 278 844 l 1,40,-1
EndSplineSet
EndChar

StartChar: Otilde
Encoding: 213 213 152
Width: 757
GlyphClass: 2
Flags: W
LayerCount: 2
Fore
SplineSet
379 -5 m 0,0,1
 305 -5 305 -5 244.5 26 c 128,-1,2
 184 57 184 57 140 107 c 128,-1,3
 96 157 96 157 72 222 c 128,-1,4
 48 287 48 287 48 355 c 0,5,6
 48 426 48 426 73.5 491 c 128,-1,7
 99 556 99 556 143.5 606 c 128,-1,8
 188 656 188 656 248.5 685.5 c 128,-1,9
 309 715 309 715 379 715 c 0,10,11
 452 715 452 715 513 683.5 c 128,-1,12
 574 652 574 652 617.5 601 c 128,-1,13
 661 550 661 550 685 485.5 c 128,-1,14
 709 421 709 421 709 355 c 0,15,16
 709 283 709 283 683.5 218 c 128,-1,17
 658 153 658 153 613.5 103.5 c 128,-1,18
 569 54 569 54 509 24.5 c 128,-1,19
 449 -5 449 -5 379 -5 c 0,0,1
68 355 m 0,20,21
 68 289 68 289 91.5 227.5 c 128,-1,22
 115 166 115 166 156 118.5 c 128,-1,23
 197 71 197 71 254 43 c 128,-1,24
 311 15 311 15 379 15 c 0,25,26
 448 15 448 15 505.5 44.5 c 128,-1,27
 563 74 563 74 603.5 122 c 128,-1,28
 644 170 644 170 666.5 231 c 128,-1,29
 689 292 689 292 689 355 c 0,30,31
 689 421 689 421 665.5 482.5 c 128,-1,32
 642 544 642 544 600 591.5 c 128,-1,33
 558 639 558 639 501.5 667 c 128,-1,34
 445 695 445 695 379 695 c 0,35,36
 310 695 310 695 252.5 665.5 c 128,-1,37
 195 636 195 636 154 588 c 128,-1,38
 113 540 113 540 90.5 479 c 128,-1,39
 68 418 68 418 68 355 c 0,20,21
440 851 m 0,40,41
 418 851 418 851 401.5 857 c 128,-1,42
 385 863 385 863 371 870 c 128,-1,43
 357 877 357 877 343.5 883 c 128,-1,44
 330 889 330 889 315 889 c 0,45,46
 299 889 299 889 289 882.5 c 128,-1,47
 279 876 279 876 273.5 867.5 c 128,-1,48
 268 859 268 859 266 851 c 128,-1,49
 264 843 264 843 264 841 c 2,50,-1
 244 841 l 2,51,52
 244 843 244 843 246 854 c 128,-1,53
 248 865 248 865 255.5 877 c 128,-1,54
 263 889 263 889 277.5 898.5 c 128,-1,55
 292 908 292 908 317 908 c 0,56,57
 336 908 336 908 351 902 c 128,-1,58
 366 896 366 896 380 889 c 128,-1,59
 394 882 394 882 408.5 876 c 128,-1,60
 423 870 423 870 442 870 c 0,61,62
 463 870 463 870 474.5 877 c 128,-1,63
 486 884 486 884 492 892.5 c 128,-1,64
 498 901 498 901 499.5 908.5 c 128,-1,65
 501 916 501 916 501 918 c 2,66,-1
 521 918 l 2,67,68
 521 915 521 915 518.5 904 c 128,-1,69
 516 893 516 893 508 881 c 128,-1,70
 500 869 500 869 483.5 860 c 128,-1,71
 467 851 467 851 440 851 c 0,40,41
EndSplineSet
EndChar

StartChar: Odieresis
Encoding: 214 214 153
Width: 757
GlyphClass: 2
Flags: W
LayerCount: 2
Fore
SplineSet
379 -5 m 0,0,1
 305 -5 305 -5 244.5 26 c 128,-1,2
 184 57 184 57 140 107 c 128,-1,3
 96 157 96 157 72 222 c 128,-1,4
 48 287 48 287 48 355 c 0,5,6
 48 426 48 426 73.5 491 c 128,-1,7
 99 556 99 556 143.5 606 c 128,-1,8
 188 656 188 656 248.5 685.5 c 128,-1,9
 309 715 309 715 379 715 c 0,10,11
 452 715 452 715 513 683.5 c 128,-1,12
 574 652 574 652 617.5 601 c 128,-1,13
 661 550 661 550 685 485.5 c 128,-1,14
 709 421 709 421 709 355 c 0,15,16
 709 283 709 283 683.5 218 c 128,-1,17
 658 153 658 153 613.5 103.5 c 128,-1,18
 569 54 569 54 509 24.5 c 128,-1,19
 449 -5 449 -5 379 -5 c 0,0,1
68 355 m 0,20,21
 68 289 68 289 91.5 227.5 c 128,-1,22
 115 166 115 166 156 118.5 c 128,-1,23
 197 71 197 71 254 43 c 128,-1,24
 311 15 311 15 379 15 c 0,25,26
 448 15 448 15 505.5 44.5 c 128,-1,27
 563 74 563 74 603.5 122 c 128,-1,28
 644 170 644 170 666.5 231 c 128,-1,29
 689 292 689 292 689 355 c 0,30,31
 689 421 689 421 665.5 482.5 c 128,-1,32
 642 544 642 544 600 591.5 c 128,-1,33
 558 639 558 639 501.5 667 c 128,-1,34
 445 695 445 695 379 695 c 0,35,36
 310 695 310 695 252.5 665.5 c 128,-1,37
 195 636 195 636 154 588 c 128,-1,38
 113 540 113 540 90.5 479 c 128,-1,39
 68 418 68 418 68 355 c 0,20,21
311 841 m 1,40,-1
 311 918 l 1,41,-1
 331 918 l 1,42,-1
 331 841 l 1,43,-1
 311 841 l 1,40,-1
427 841 m 1,44,-1
 427 918 l 1,45,-1
 447 918 l 1,46,-1
 447 841 l 1,47,-1
 427 841 l 1,44,-1
EndSplineSet
EndChar

StartChar: multiply
Encoding: 215 215 154
Width: 440
GlyphClass: 2
Flags: W
LayerCount: 2
Fore
SplineSet
370 135 m 1,0,-1
 355 121 l 1,1,-1
 220 256 l 1,2,-1
 85 121 l 1,3,-1
 71 136 l 1,4,-1
 205 270 l 1,5,-1
 70 406 l 1,6,-1
 85 420 l 1,7,-1
 220 285 l 1,8,-1
 356 421 l 1,9,-1
 370 406 l 1,10,-1
 234 270 l 1,11,-1
 370 135 l 1,0,-1
EndSplineSet
EndChar

StartChar: Oslash
Encoding: 216 216 155
Width: 757
GlyphClass: 2
Flags: W
LayerCount: 2
Fore
SplineSet
619 710 m 1,0,-1
 576 642 l 1,1,2
 607 616 607 616 631.5 583 c 128,-1,3
 656 550 656 550 673.5 513 c 128,-1,4
 691 476 691 476 700 435.5 c 128,-1,5
 709 395 709 395 709 355 c 0,6,7
 709 283 709 283 683.5 218 c 128,-1,8
 658 153 658 153 613.5 103.5 c 128,-1,9
 569 54 569 54 509 24.5 c 128,-1,10
 449 -5 449 -5 379 -5 c 0,11,12
 327 -4 327 -4 281.5 11.5 c 128,-1,13
 236 27 236 27 198 54 c 1,14,-1
 163 0 l 1,15,-1
 138 0 l 1,16,-1
 181 67 l 1,17,18
 118 118 118 118 83 194.5 c 128,-1,19
 48 271 48 271 48 355 c 0,20,21
 48 426 48 426 73.5 491 c 128,-1,22
 99 556 99 556 143.5 606 c 128,-1,23
 188 656 188 656 248.5 685.5 c 128,-1,24
 309 715 309 715 379 715 c 0,25,26
 430 715 430 715 475 699.5 c 128,-1,27
 520 684 520 684 558 656 c 1,28,-1
 593 710 l 1,29,-1
 619 710 l 1,0,-1
689 355 m 0,30,31
 689 434 689 434 655.5 505.5 c 128,-1,32
 622 577 622 577 565 625 c 1,33,-1
 208 71 l 1,34,35
 244 45 244 45 287 30 c 128,-1,36
 330 15 330 15 379 15 c 0,37,38
 448 15 448 15 505.5 44.5 c 128,-1,39
 563 74 563 74 603.5 122 c 128,-1,40
 644 170 644 170 666.5 231 c 128,-1,41
 689 292 689 292 689 355 c 0,30,31
68 355 m 0,42,43
 68 275 68 275 101 203.5 c 128,-1,44
 134 132 134 132 191 84 c 1,45,-1
 547 639 l 1,46,47
 511 665 511 665 469 680 c 128,-1,48
 427 695 427 695 379 695 c 0,49,50
 310 695 310 695 252.5 665.5 c 128,-1,51
 195 636 195 636 154 588 c 128,-1,52
 113 540 113 540 90.5 479 c 128,-1,53
 68 418 68 418 68 355 c 0,42,43
EndSplineSet
EndChar

StartChar: Ugrave
Encoding: 217 217 156
Width: 756
GlyphClass: 2
Flags: W
LayerCount: 2
Fore
SplineSet
378 15 m 0,0,1
 458 15 458 15 510.5 45 c 128,-1,2
 563 75 563 75 593.5 123 c 128,-1,3
 624 171 624 171 636.5 232 c 128,-1,4
 649 293 649 293 649 355 c 2,5,-1
 649 710 l 1,6,-1
 669 710 l 1,7,-1
 669 355 l 2,8,9
 669 284 669 284 654.5 219 c 128,-1,10
 640 154 640 154 606 104.5 c 128,-1,11
 572 55 572 55 516.5 25 c 128,-1,12
 461 -5 461 -5 379 -5 c 0,13,14
 295 -5 295 -5 239 26 c 128,-1,15
 183 57 183 57 149.5 108 c 128,-1,16
 116 159 116 159 102 223.5 c 128,-1,17
 88 288 88 288 88 355 c 2,18,-1
 88 710 l 1,19,-1
 108 710 l 1,20,-1
 108 355 l 2,21,22
 108 291 108 291 120.5 230 c 128,-1,23
 133 169 133 169 164 121 c 128,-1,24
 195 73 195 73 247 44 c 128,-1,25
 299 15 299 15 378 15 c 0,0,1
311 918 m 1,26,-1
 344 918 l 1,27,-1
 409 845 l 1,28,-1
 393 833 l 1,29,-1
 311 918 l 1,26,-1
EndSplineSet
EndChar

StartChar: Uacute
Encoding: 218 218 157
Width: 756
GlyphClass: 2
Flags: W
LayerCount: 2
Fore
SplineSet
378 15 m 0,0,1
 458 15 458 15 510.5 45 c 128,-1,2
 563 75 563 75 593.5 123 c 128,-1,3
 624 171 624 171 636.5 232 c 128,-1,4
 649 293 649 293 649 355 c 2,5,-1
 649 710 l 1,6,-1
 669 710 l 1,7,-1
 669 355 l 2,8,9
 669 284 669 284 654.5 219 c 128,-1,10
 640 154 640 154 606 104.5 c 128,-1,11
 572 55 572 55 516.5 25 c 128,-1,12
 461 -5 461 -5 379 -5 c 0,13,14
 295 -5 295 -5 239 26 c 128,-1,15
 183 57 183 57 149.5 108 c 128,-1,16
 116 159 116 159 102 223.5 c 128,-1,17
 88 288 88 288 88 355 c 2,18,-1
 88 710 l 1,19,-1
 108 710 l 1,20,-1
 108 355 l 2,21,22
 108 291 108 291 120.5 230 c 128,-1,23
 133 169 133 169 164 121 c 128,-1,24
 195 73 195 73 247 44 c 128,-1,25
 299 15 299 15 378 15 c 0,0,1
365 833 m 1,26,-1
 349 845 l 1,27,-1
 413 918 l 1,28,-1
 447 918 l 1,29,-1
 365 833 l 1,26,-1
EndSplineSet
EndChar

StartChar: Ucircumflex
Encoding: 219 219 158
Width: 756
GlyphClass: 2
Flags: W
LayerCount: 2
Fore
SplineSet
378 15 m 0,0,1
 458 15 458 15 510.5 45 c 128,-1,2
 563 75 563 75 593.5 123 c 128,-1,3
 624 171 624 171 636.5 232 c 128,-1,4
 649 293 649 293 649 355 c 2,5,-1
 649 710 l 1,6,-1
 669 710 l 1,7,-1
 669 355 l 2,8,9
 669 284 669 284 654.5 219 c 128,-1,10
 640 154 640 154 606 104.5 c 128,-1,11
 572 55 572 55 516.5 25 c 128,-1,12
 461 -5 461 -5 379 -5 c 0,13,14
 295 -5 295 -5 239 26 c 128,-1,15
 183 57 183 57 149.5 108 c 128,-1,16
 116 159 116 159 102 223.5 c 128,-1,17
 88 288 88 288 88 355 c 2,18,-1
 88 710 l 1,19,-1
 108 710 l 1,20,-1
 108 355 l 2,21,22
 108 291 108 291 120.5 230 c 128,-1,23
 133 169 133 169 164 121 c 128,-1,24
 195 73 195 73 247 44 c 128,-1,25
 299 15 299 15 378 15 c 0,0,1
278 844 m 1,26,-1
 371 918 l 1,27,-1
 387 918 l 1,28,-1
 480 844 l 1,29,-1
 464 832 l 1,30,-1
 379 895 l 1,31,-1
 294 832 l 1,32,-1
 278 844 l 1,26,-1
EndSplineSet
EndChar

StartChar: Udieresis
Encoding: 220 220 159
Width: 756
GlyphClass: 2
Flags: W
LayerCount: 2
Fore
SplineSet
378 15 m 0,0,1
 458 15 458 15 510.5 45 c 128,-1,2
 563 75 563 75 593.5 123 c 128,-1,3
 624 171 624 171 636.5 232 c 128,-1,4
 649 293 649 293 649 355 c 2,5,-1
 649 710 l 1,6,-1
 669 710 l 1,7,-1
 669 355 l 2,8,9
 669 284 669 284 654.5 219 c 128,-1,10
 640 154 640 154 606 104.5 c 128,-1,11
 572 55 572 55 516.5 25 c 128,-1,12
 461 -5 461 -5 379 -5 c 0,13,14
 295 -5 295 -5 239 26 c 128,-1,15
 183 57 183 57 149.5 108 c 128,-1,16
 116 159 116 159 102 223.5 c 128,-1,17
 88 288 88 288 88 355 c 2,18,-1
 88 710 l 1,19,-1
 108 710 l 1,20,-1
 108 355 l 2,21,22
 108 291 108 291 120.5 230 c 128,-1,23
 133 169 133 169 164 121 c 128,-1,24
 195 73 195 73 247 44 c 128,-1,25
 299 15 299 15 378 15 c 0,0,1
311 841 m 1,26,-1
 311 918 l 1,27,-1
 331 918 l 1,28,-1
 331 841 l 1,29,-1
 311 841 l 1,26,-1
427 841 m 1,30,-1
 427 918 l 1,31,-1
 447 918 l 1,32,-1
 447 841 l 1,33,-1
 427 841 l 1,30,-1
EndSplineSet
EndChar

StartChar: Yacute
Encoding: 221 221 160
Width: 641
GlyphClass: 2
Flags: W
LayerCount: 2
Fore
SplineSet
46 710 m 1,0,-1
 320 298 l 1,1,-1
 595 710 l 1,2,-1
 618 710 l 1,3,-1
 330 275 l 1,4,-1
 330 0 l 1,5,-1
 310 0 l 1,6,-1
 310 277 l 1,7,-1
 23 710 l 1,8,-1
 46 710 l 1,0,-1
306 833 m 1,9,-1
 290 845 l 1,10,-1
 354 918 l 1,11,-1
 388 918 l 1,12,-1
 306 833 l 1,9,-1
EndSplineSet
EndChar

StartChar: Thorn
Encoding: 222 222 161
Width: 599
GlyphClass: 2
Flags: W
LayerCount: 2
Fore
SplineSet
368 560 m 2,0,1
 411 560 411 560 448 541.5 c 128,-1,2
 485 523 485 523 511.5 492.5 c 128,-1,3
 538 462 538 462 553 423.5 c 128,-1,4
 568 385 568 385 568 345 c 0,5,6
 568 303 568 303 554 264 c 128,-1,7
 540 225 540 225 514.5 195 c 128,-1,8
 489 165 489 165 453.5 147 c 128,-1,9
 418 129 418 129 375 129 c 2,10,-1
 119 129 l 1,11,-1
 119 0 l 1,12,-1
 99 0 l 1,13,-1
 99 710 l 1,14,-1
 119 710 l 1,15,-1
 119 560 l 1,16,-1
 368 560 l 2,0,1
375 149 m 2,17,18
 415 149 415 149 447.5 166 c 128,-1,19
 480 183 480 183 502 211 c 128,-1,20
 524 239 524 239 536 274 c 128,-1,21
 548 309 548 309 548 345 c 0,22,23
 548 383 548 383 534 418 c 128,-1,24
 520 453 520 453 495.5 480 c 128,-1,25
 471 507 471 507 438 523.5 c 128,-1,26
 405 540 405 540 368 540 c 2,27,-1
 119 540 l 1,28,-1
 119 149 l 1,29,-1
 375 149 l 2,17,18
EndSplineSet
EndChar

StartChar: germandbls
Encoding: 223 223 162
Width: 546
GlyphClass: 2
Flags: W
LayerCount: 2
Fore
SplineSet
230 13 m 1,0,1
 351 15 351 15 415.5 64 c 128,-1,2
 480 113 480 113 480 202 c 0,3,4
 480 245 480 245 465 280 c 128,-1,5
 450 315 450 315 423 340 c 128,-1,6
 396 365 396 365 358.5 379 c 128,-1,7
 321 393 321 393 275 393 c 2,8,-1
 258 393 l 1,9,-1
 258 413 l 1,10,-1
 274 413 l 2,11,12
 307 413 307 413 335 423.5 c 128,-1,13
 363 434 363 434 384 453 c 128,-1,14
 405 472 405 472 416.5 497 c 128,-1,15
 428 522 428 522 428 552 c 256,16,17
 428 582 428 582 415.5 608 c 128,-1,18
 403 634 403 634 381.5 653 c 128,-1,19
 360 672 360 672 330.5 683 c 128,-1,20
 301 694 301 694 267 694 c 0,21,22
 192 694 192 694 148 644 c 128,-1,23
 104 594 104 594 104 509 c 2,24,-1
 104 0 l 1,25,-1
 84 0 l 1,26,-1
 84 509 l 2,27,28
 84 555 84 555 97.5 593 c 128,-1,29
 111 631 111 631 135 658 c 128,-1,30
 159 685 159 685 193 699.5 c 128,-1,31
 227 714 227 714 268 714 c 0,32,33
 306 714 306 714 339 702 c 128,-1,34
 372 690 372 690 396 669 c 128,-1,35
 420 648 420 648 434 619 c 128,-1,36
 448 590 448 590 448 557 c 0,37,38
 448 530 448 530 438.5 504.5 c 128,-1,39
 429 479 429 479 413 458 c 128,-1,40
 397 437 397 437 375 423 c 128,-1,41
 353 409 353 409 328 404 c 1,42,43
 411 387 411 387 455.5 334.5 c 128,-1,44
 500 282 500 282 500 203 c 0,45,46
 500 106 500 106 431 52.5 c 128,-1,47
 362 -1 362 -1 230 -6 c 1,48,-1
 230 13 l 1,0,1
EndSplineSet
EndChar

StartChar: agrave
Encoding: 224 224 163
Width: 524
GlyphClass: 2
Flags: W
LayerCount: 2
Fore
SplineSet
207 -10 m 0,0,1
 172 -10 172 -10 141 2.5 c 128,-1,2
 110 15 110 15 87.5 36.5 c 128,-1,3
 65 58 65 58 52 87 c 128,-1,4
 39 116 39 116 39 149 c 256,5,6
 39 182 39 182 54.5 209 c 128,-1,7
 70 236 70 236 98.5 255.5 c 128,-1,8
 127 275 127 275 166.5 286 c 128,-1,9
 206 297 206 297 253 297 c 0,10,11
 298 297 298 297 344 289.5 c 128,-1,12
 390 282 390 282 427 268 c 1,13,-1
 427 327 l 2,14,15
 427 367 427 367 415 400.5 c 128,-1,16
 403 434 403 434 380.5 457.5 c 128,-1,17
 358 481 358 481 326.5 494 c 128,-1,18
 295 507 295 507 257 507 c 256,19,20
 219 507 219 507 176 490.5 c 128,-1,21
 133 474 133 474 89 443 c 1,22,-1
 77 459 l 1,23,24
 177 527 177 527 257 527 c 0,25,26
 300 527 300 527 335.5 513 c 128,-1,27
 371 499 371 499 395.5 473 c 128,-1,28
 420 447 420 447 433.5 410 c 128,-1,29
 447 373 447 373 447 327 c 2,30,-1
 447 40 l 2,31,32
 447 20 447 20 463 20 c 1,33,-1
 463 0 l 1,34,35
 452 0 452 0 449 2 c 0,36,37
 439 6 439 6 433 16.5 c 128,-1,38
 427 27 427 27 427 40 c 2,39,-1
 427 88 l 1,40,41
 391 41 391 41 333 15.5 c 128,-1,42
 275 -10 275 -10 207 -10 c 0,0,1
207 10 m 0,43,44
 274 10 274 10 329.5 35 c 128,-1,45
 385 60 385 60 412 102 c 0,46,47
 427 123 427 123 427 143 c 2,48,-1
 427 246 l 1,49,50
 347 277 347 277 253 277 c 0,51,52
 209 277 209 277 173.5 268 c 128,-1,53
 138 259 138 259 112.5 242 c 128,-1,54
 87 225 87 225 73 201.5 c 128,-1,55
 59 178 59 178 59 149 c 256,56,57
 59 120 59 120 70.5 94.5 c 128,-1,58
 82 69 82 69 102 50 c 128,-1,59
 122 31 122 31 149 20.5 c 128,-1,60
 176 10 176 10 207 10 c 0,43,44
189 730 m 1,61,-1
 222 730 l 1,62,-1
 287 657 l 1,63,-1
 271 645 l 1,64,-1
 189 730 l 1,61,-1
EndSplineSet
EndChar

StartChar: aacute
Encoding: 225 225 164
Width: 524
GlyphClass: 2
Flags: W
LayerCount: 2
Fore
SplineSet
207 -10 m 0,0,1
 172 -10 172 -10 141 2.5 c 128,-1,2
 110 15 110 15 87.5 36.5 c 128,-1,3
 65 58 65 58 52 87 c 128,-1,4
 39 116 39 116 39 149 c 256,5,6
 39 182 39 182 54.5 209 c 128,-1,7
 70 236 70 236 98.5 255.5 c 128,-1,8
 127 275 127 275 166.5 286 c 128,-1,9
 206 297 206 297 253 297 c 0,10,11
 298 297 298 297 344 289.5 c 128,-1,12
 390 282 390 282 427 268 c 1,13,-1
 427 327 l 2,14,15
 427 367 427 367 415 400.5 c 128,-1,16
 403 434 403 434 380.5 457.5 c 128,-1,17
 358 481 358 481 326.5 494 c 128,-1,18
 295 507 295 507 257 507 c 256,19,20
 219 507 219 507 176 490.5 c 128,-1,21
 133 474 133 474 89 443 c 1,22,-1
 77 459 l 1,23,24
 177 527 177 527 257 527 c 0,25,26
 300 527 300 527 335.5 513 c 128,-1,27
 371 499 371 499 395.5 473 c 128,-1,28
 420 447 420 447 433.5 410 c 128,-1,29
 447 373 447 373 447 327 c 2,30,-1
 447 40 l 2,31,32
 447 20 447 20 463 20 c 1,33,-1
 463 0 l 1,34,35
 452 0 452 0 449 2 c 0,36,37
 439 6 439 6 433 16.5 c 128,-1,38
 427 27 427 27 427 40 c 2,39,-1
 427 88 l 1,40,41
 391 41 391 41 333 15.5 c 128,-1,42
 275 -10 275 -10 207 -10 c 0,0,1
207 10 m 0,43,44
 274 10 274 10 329.5 35 c 128,-1,45
 385 60 385 60 412 102 c 0,46,47
 427 123 427 123 427 143 c 2,48,-1
 427 246 l 1,49,50
 347 277 347 277 253 277 c 0,51,52
 209 277 209 277 173.5 268 c 128,-1,53
 138 259 138 259 112.5 242 c 128,-1,54
 87 225 87 225 73 201.5 c 128,-1,55
 59 178 59 178 59 149 c 256,56,57
 59 120 59 120 70.5 94.5 c 128,-1,58
 82 69 82 69 102 50 c 128,-1,59
 122 31 122 31 149 20.5 c 128,-1,60
 176 10 176 10 207 10 c 0,43,44
243 645 m 1,61,-1
 227 657 l 1,62,-1
 291 730 l 1,63,-1
 325 730 l 1,64,-1
 243 645 l 1,61,-1
EndSplineSet
EndChar

StartChar: acircumflex
Encoding: 226 226 165
Width: 524
GlyphClass: 2
Flags: W
LayerCount: 2
Fore
SplineSet
207 -10 m 0,0,1
 172 -10 172 -10 141 2.5 c 128,-1,2
 110 15 110 15 87.5 36.5 c 128,-1,3
 65 58 65 58 52 87 c 128,-1,4
 39 116 39 116 39 149 c 256,5,6
 39 182 39 182 54.5 209 c 128,-1,7
 70 236 70 236 98.5 255.5 c 128,-1,8
 127 275 127 275 166.5 286 c 128,-1,9
 206 297 206 297 253 297 c 0,10,11
 298 297 298 297 344 289.5 c 128,-1,12
 390 282 390 282 427 268 c 1,13,-1
 427 327 l 2,14,15
 427 367 427 367 415 400.5 c 128,-1,16
 403 434 403 434 380.5 457.5 c 128,-1,17
 358 481 358 481 326.5 494 c 128,-1,18
 295 507 295 507 257 507 c 256,19,20
 219 507 219 507 176 490.5 c 128,-1,21
 133 474 133 474 89 443 c 1,22,-1
 77 459 l 1,23,24
 177 527 177 527 257 527 c 0,25,26
 300 527 300 527 335.5 513 c 128,-1,27
 371 499 371 499 395.5 473 c 128,-1,28
 420 447 420 447 433.5 410 c 128,-1,29
 447 373 447 373 447 327 c 2,30,-1
 447 40 l 2,31,32
 447 20 447 20 463 20 c 1,33,-1
 463 0 l 1,34,35
 452 0 452 0 449 2 c 0,36,37
 439 6 439 6 433 16.5 c 128,-1,38
 427 27 427 27 427 40 c 2,39,-1
 427 88 l 1,40,41
 391 41 391 41 333 15.5 c 128,-1,42
 275 -10 275 -10 207 -10 c 0,0,1
207 10 m 0,43,44
 274 10 274 10 329.5 35 c 128,-1,45
 385 60 385 60 412 102 c 0,46,47
 427 123 427 123 427 143 c 2,48,-1
 427 246 l 1,49,50
 347 277 347 277 253 277 c 0,51,52
 209 277 209 277 173.5 268 c 128,-1,53
 138 259 138 259 112.5 242 c 128,-1,54
 87 225 87 225 73 201.5 c 128,-1,55
 59 178 59 178 59 149 c 256,56,57
 59 120 59 120 70.5 94.5 c 128,-1,58
 82 69 82 69 102 50 c 128,-1,59
 122 31 122 31 149 20.5 c 128,-1,60
 176 10 176 10 207 10 c 0,43,44
156 656 m 1,61,-1
 249 730 l 1,62,-1
 265 730 l 1,63,-1
 358 656 l 1,64,-1
 342 644 l 1,65,-1
 257 707 l 1,66,-1
 172 644 l 1,67,-1
 156 656 l 1,61,-1
EndSplineSet
EndChar

StartChar: atilde
Encoding: 227 227 166
Width: 524
GlyphClass: 2
Flags: W
LayerCount: 2
Fore
SplineSet
207 -10 m 0,0,1
 172 -10 172 -10 141 2.5 c 128,-1,2
 110 15 110 15 87.5 36.5 c 128,-1,3
 65 58 65 58 52 87 c 128,-1,4
 39 116 39 116 39 149 c 256,5,6
 39 182 39 182 54.5 209 c 128,-1,7
 70 236 70 236 98.5 255.5 c 128,-1,8
 127 275 127 275 166.5 286 c 128,-1,9
 206 297 206 297 253 297 c 0,10,11
 298 297 298 297 344 289.5 c 128,-1,12
 390 282 390 282 427 268 c 1,13,-1
 427 327 l 2,14,15
 427 367 427 367 415 400.5 c 128,-1,16
 403 434 403 434 380.5 457.5 c 128,-1,17
 358 481 358 481 326.5 494 c 128,-1,18
 295 507 295 507 257 507 c 256,19,20
 219 507 219 507 176 490.5 c 128,-1,21
 133 474 133 474 89 443 c 1,22,-1
 77 459 l 1,23,24
 177 527 177 527 257 527 c 0,25,26
 300 527 300 527 335.5 513 c 128,-1,27
 371 499 371 499 395.5 473 c 128,-1,28
 420 447 420 447 433.5 410 c 128,-1,29
 447 373 447 373 447 327 c 2,30,-1
 447 40 l 2,31,32
 447 20 447 20 463 20 c 1,33,-1
 463 0 l 1,34,35
 452 0 452 0 449 2 c 0,36,37
 439 6 439 6 433 16.5 c 128,-1,38
 427 27 427 27 427 40 c 2,39,-1
 427 88 l 1,40,41
 391 41 391 41 333 15.5 c 128,-1,42
 275 -10 275 -10 207 -10 c 0,0,1
207 10 m 0,43,44
 274 10 274 10 329.5 35 c 128,-1,45
 385 60 385 60 412 102 c 0,46,47
 427 123 427 123 427 143 c 2,48,-1
 427 246 l 1,49,50
 347 277 347 277 253 277 c 0,51,52
 209 277 209 277 173.5 268 c 128,-1,53
 138 259 138 259 112.5 242 c 128,-1,54
 87 225 87 225 73 201.5 c 128,-1,55
 59 178 59 178 59 149 c 256,56,57
 59 120 59 120 70.5 94.5 c 128,-1,58
 82 69 82 69 102 50 c 128,-1,59
 122 31 122 31 149 20.5 c 128,-1,60
 176 10 176 10 207 10 c 0,43,44
318 663 m 0,61,62
 296 663 296 663 279.5 669 c 128,-1,63
 263 675 263 675 249 682 c 128,-1,64
 235 689 235 689 221.5 695 c 128,-1,65
 208 701 208 701 193 701 c 0,66,67
 177 701 177 701 167 694.5 c 128,-1,68
 157 688 157 688 151.5 679.5 c 128,-1,69
 146 671 146 671 144 663 c 128,-1,70
 142 655 142 655 142 653 c 2,71,-1
 122 653 l 2,72,73
 122 655 122 655 124 666 c 128,-1,74
 126 677 126 677 133.5 689 c 128,-1,75
 141 701 141 701 155.5 710.5 c 128,-1,76
 170 720 170 720 195 720 c 0,77,78
 214 720 214 720 229 714 c 128,-1,79
 244 708 244 708 258 701 c 128,-1,80
 272 694 272 694 286.5 688 c 128,-1,81
 301 682 301 682 320 682 c 0,82,83
 341 682 341 682 352.5 689 c 128,-1,84
 364 696 364 696 370 704.5 c 128,-1,85
 376 713 376 713 377.5 720.5 c 128,-1,86
 379 728 379 728 379 730 c 2,87,-1
 399 730 l 2,88,89
 399 727 399 727 396.5 716 c 128,-1,90
 394 705 394 705 386 693 c 128,-1,91
 378 681 378 681 361.5 672 c 128,-1,92
 345 663 345 663 318 663 c 0,61,62
EndSplineSet
EndChar

StartChar: adieresis
Encoding: 228 228 167
Width: 524
GlyphClass: 2
Flags: W
LayerCount: 2
Fore
SplineSet
207 -10 m 0,0,1
 172 -10 172 -10 141 2.5 c 128,-1,2
 110 15 110 15 87.5 36.5 c 128,-1,3
 65 58 65 58 52 87 c 128,-1,4
 39 116 39 116 39 149 c 256,5,6
 39 182 39 182 54.5 209 c 128,-1,7
 70 236 70 236 98.5 255.5 c 128,-1,8
 127 275 127 275 166.5 286 c 128,-1,9
 206 297 206 297 253 297 c 0,10,11
 298 297 298 297 344 289.5 c 128,-1,12
 390 282 390 282 427 268 c 1,13,-1
 427 327 l 2,14,15
 427 367 427 367 415 400.5 c 128,-1,16
 403 434 403 434 380.5 457.5 c 128,-1,17
 358 481 358 481 326.5 494 c 128,-1,18
 295 507 295 507 257 507 c 256,19,20
 219 507 219 507 176 490.5 c 128,-1,21
 133 474 133 474 89 443 c 1,22,-1
 77 459 l 1,23,24
 177 527 177 527 257 527 c 0,25,26
 300 527 300 527 335.5 513 c 128,-1,27
 371 499 371 499 395.5 473 c 128,-1,28
 420 447 420 447 433.5 410 c 128,-1,29
 447 373 447 373 447 327 c 2,30,-1
 447 40 l 2,31,32
 447 20 447 20 463 20 c 1,33,-1
 463 0 l 1,34,35
 452 0 452 0 449 2 c 0,36,37
 439 6 439 6 433 16.5 c 128,-1,38
 427 27 427 27 427 40 c 2,39,-1
 427 88 l 1,40,41
 391 41 391 41 333 15.5 c 128,-1,42
 275 -10 275 -10 207 -10 c 0,0,1
207 10 m 0,43,44
 274 10 274 10 329.5 35 c 128,-1,45
 385 60 385 60 412 102 c 0,46,47
 427 123 427 123 427 143 c 2,48,-1
 427 246 l 1,49,50
 347 277 347 277 253 277 c 0,51,52
 209 277 209 277 173.5 268 c 128,-1,53
 138 259 138 259 112.5 242 c 128,-1,54
 87 225 87 225 73 201.5 c 128,-1,55
 59 178 59 178 59 149 c 256,56,57
 59 120 59 120 70.5 94.5 c 128,-1,58
 82 69 82 69 102 50 c 128,-1,59
 122 31 122 31 149 20.5 c 128,-1,60
 176 10 176 10 207 10 c 0,43,44
189 653 m 1,61,-1
 189 730 l 1,62,-1
 209 730 l 1,63,-1
 209 653 l 1,64,-1
 189 653 l 1,61,-1
305 653 m 1,65,-1
 305 730 l 1,66,-1
 325 730 l 1,67,-1
 325 653 l 1,68,-1
 305 653 l 1,65,-1
EndSplineSet
EndChar

StartChar: aring
Encoding: 229 229 168
Width: 524
GlyphClass: 2
Flags: W
LayerCount: 2
Fore
SplineSet
207 -10 m 0,0,1
 172 -10 172 -10 141 2.5 c 128,-1,2
 110 15 110 15 87.5 36.5 c 128,-1,3
 65 58 65 58 52 87 c 128,-1,4
 39 116 39 116 39 149 c 256,5,6
 39 182 39 182 54.5 209 c 128,-1,7
 70 236 70 236 98.5 255.5 c 128,-1,8
 127 275 127 275 166.5 286 c 128,-1,9
 206 297 206 297 253 297 c 0,10,11
 298 297 298 297 344 289.5 c 128,-1,12
 390 282 390 282 427 268 c 1,13,-1
 427 327 l 2,14,15
 427 367 427 367 415 400.5 c 128,-1,16
 403 434 403 434 380.5 457.5 c 128,-1,17
 358 481 358 481 326.5 494 c 128,-1,18
 295 507 295 507 257 507 c 256,19,20
 219 507 219 507 176 490.5 c 128,-1,21
 133 474 133 474 89 443 c 1,22,-1
 77 459 l 1,23,24
 177 527 177 527 257 527 c 0,25,26
 300 527 300 527 335.5 513 c 128,-1,27
 371 499 371 499 395.5 473 c 128,-1,28
 420 447 420 447 433.5 410 c 128,-1,29
 447 373 447 373 447 327 c 2,30,-1
 447 40 l 2,31,32
 447 20 447 20 463 20 c 1,33,-1
 463 0 l 1,34,35
 452 0 452 0 449 2 c 0,36,37
 439 6 439 6 433 16.5 c 128,-1,38
 427 27 427 27 427 40 c 2,39,-1
 427 88 l 1,40,41
 391 41 391 41 333 15.5 c 128,-1,42
 275 -10 275 -10 207 -10 c 0,0,1
207 10 m 0,43,44
 274 10 274 10 329.5 35 c 128,-1,45
 385 60 385 60 412 102 c 0,46,47
 427 123 427 123 427 143 c 2,48,-1
 427 246 l 1,49,50
 347 277 347 277 253 277 c 0,51,52
 209 277 209 277 173.5 268 c 128,-1,53
 138 259 138 259 112.5 242 c 128,-1,54
 87 225 87 225 73 201.5 c 128,-1,55
 59 178 59 178 59 149 c 256,56,57
 59 120 59 120 70.5 94.5 c 128,-1,58
 82 69 82 69 102 50 c 128,-1,59
 122 31 122 31 149 20.5 c 128,-1,60
 176 10 176 10 207 10 c 0,43,44
200 673 m 256,61,62
 200 697 200 697 216.5 713.5 c 128,-1,63
 233 730 233 730 257 730 c 256,64,65
 281 730 281 730 297.5 713.5 c 128,-1,66
 314 697 314 697 314 673 c 256,67,68
 314 649 314 649 297.5 632.5 c 128,-1,69
 281 616 281 616 257 616 c 256,70,71
 233 616 233 616 216.5 632.5 c 128,-1,72
 200 649 200 649 200 673 c 256,61,62
257 714 m 256,73,74
 240 714 240 714 228 703 c 128,-1,75
 216 692 216 692 216 673 c 0,76,77
 216 656 216 656 228 644 c 128,-1,78
 240 632 240 632 257 632 c 0,79,80
 272 632 272 632 285 643.5 c 128,-1,81
 298 655 298 655 298 673 c 0,82,83
 298 692 298 692 286 703 c 128,-1,84
 274 714 274 714 257 714 c 256,73,74
EndSplineSet
EndChar

StartChar: ae
Encoding: 230 230 169
Width: 928
GlyphClass: 2
Flags: W
LayerCount: 2
Fore
SplineSet
207 -10 m 0,0,1
 172 -10 172 -10 141 2.5 c 128,-1,2
 110 15 110 15 87.5 36.5 c 128,-1,3
 65 58 65 58 52 87 c 128,-1,4
 39 116 39 116 39 149 c 256,5,6
 39 182 39 182 54.5 209 c 128,-1,7
 70 236 70 236 98.5 255.5 c 128,-1,8
 127 275 127 275 166.5 286 c 128,-1,9
 206 297 206 297 253 297 c 0,10,11
 289 297 289 297 327 291.5 c 128,-1,12
 365 286 365 286 398 277 c 1,13,14
 401 328 401 328 421 376 c 1,15,16
 408 436 408 436 364.5 471.5 c 128,-1,17
 321 507 321 507 257 507 c 0,18,19
 219 507 219 507 176 490.5 c 128,-1,20
 133 474 133 474 89 443 c 1,21,-1
 77 459 l 1,22,23
 177 527 177 527 257 527 c 0,24,25
 324 527 324 527 370 494.5 c 128,-1,26
 416 462 416 462 435 403 c 1,27,28
 467 459 467 459 522 493 c 128,-1,29
 577 527 577 527 643 527 c 0,30,31
 695 527 695 527 740.5 506 c 128,-1,32
 786 485 786 485 819.5 449 c 128,-1,33
 853 413 853 413 873 364 c 128,-1,34
 893 315 893 315 893 259 c 2,35,-1
 893 248 l 1,36,-1
 418 248 l 1,37,38
 422 198 422 198 441.5 154.5 c 128,-1,39
 461 111 461 111 492 79 c 128,-1,40
 523 47 523 47 563.5 28.5 c 128,-1,41
 604 10 604 10 649 10 c 0,42,43
 679 10 679 10 707.5 18 c 128,-1,44
 736 26 736 26 761 40.5 c 128,-1,45
 786 55 786 55 805 75 c 128,-1,46
 824 95 824 95 835 119 c 1,47,-1
 854 114 l 1,48,49
 843 87 843 87 822.5 64.5 c 128,-1,50
 802 42 802 42 774.5 25.5 c 128,-1,51
 747 9 747 9 714.5 -0.5 c 128,-1,52
 682 -10 682 -10 648 -10 c 0,53,54
 583 -10 583 -10 529 23 c 128,-1,55
 475 56 475 56 441 111 c 1,56,57
 425 79 425 79 398.5 56 c 128,-1,58
 372 33 372 33 340 18.5 c 128,-1,59
 308 4 308 4 273.5 -3 c 128,-1,60
 239 -10 239 -10 207 -10 c 0,0,1
207 10 m 0,61,62
 274 10 274 10 329.5 35 c 128,-1,63
 385 60 385 60 412 102 c 0,64,65
 424 120 424 120 427 137 c 1,66,67
 399 192 399 192 398 256 c 1,68,69
 329 277 329 277 253 277 c 0,70,71
 209 277 209 277 173.5 268 c 128,-1,72
 138 259 138 259 112.5 242 c 128,-1,73
 87 225 87 225 73 201.5 c 128,-1,74
 59 178 59 178 59 149 c 256,75,76
 59 120 59 120 70.5 94.5 c 128,-1,77
 82 69 82 69 102 50 c 128,-1,78
 122 31 122 31 149 20.5 c 128,-1,79
 176 10 176 10 207 10 c 0,61,62
872 268 m 1,80,81
 869 320 869 320 850 364 c 128,-1,82
 831 408 831 408 800.5 439.5 c 128,-1,83
 770 471 770 471 730 489 c 128,-1,84
 690 507 690 507 644 507 c 256,85,86
 598 507 598 507 558 489 c 128,-1,87
 518 471 518 471 487.5 439 c 128,-1,88
 457 407 457 407 439 363 c 128,-1,89
 421 319 421 319 418 268 c 1,90,-1
 872 268 l 1,80,81
EndSplineSet
EndChar

StartChar: ccedilla
Encoding: 231 231 170
Width: 538
GlyphClass: 2
Flags: W
LayerCount: 2
Fore
SplineSet
46 262 m 0,0,1
 46 318 46 318 65 366.5 c 128,-1,2
 84 415 84 415 118 450.5 c 128,-1,3
 152 486 152 486 197.5 506.5 c 128,-1,4
 243 527 243 527 296 527 c 0,5,6
 362 527 362 527 413.5 496.5 c 128,-1,7
 465 466 465 466 491 411 c 1,8,-1
 471 404 l 1,9,10
 445 452 445 452 397.5 479.5 c 128,-1,11
 350 507 350 507 293 507 c 0,12,13
 245 507 245 507 204 488 c 128,-1,14
 163 469 163 469 132 436 c 128,-1,15
 101 403 101 403 83.5 358 c 128,-1,16
 66 313 66 313 66 262 c 256,17,18
 66 211 66 211 84 165 c 128,-1,19
 102 119 102 119 133.5 84.5 c 128,-1,20
 165 50 165 50 206 30 c 128,-1,21
 247 10 247 10 294 10 c 0,22,23
 324 10 324 10 354.5 19 c 128,-1,24
 385 28 385 28 410.5 43 c 128,-1,25
 436 58 436 58 454 78 c 128,-1,26
 472 98 472 98 478 119 c 1,27,-1
 498 113 l 1,28,29
 489 87 489 87 470 65 c 128,-1,30
 451 43 451 43 425 26.5 c 128,-1,31
 399 10 399 10 367.5 0.5 c 128,-1,32
 336 -9 336 -9 303 -10 c 1,33,-1
 276 -57 l 1,34,35
 286 -53 286 -53 298 -52 c 128,-1,36
 310 -51 310 -51 318 -51 c 0,37,38
 386 -51 386 -51 386 -105 c 0,39,40
 386 -135 386 -135 364.5 -148.5 c 128,-1,41
 343 -162 343 -162 305 -162 c 0,42,43
 279 -162 279 -162 254.5 -156.5 c 128,-1,44
 230 -151 230 -151 211 -143 c 1,45,-1
 221 -125 l 1,46,47
 236 -132 236 -132 259 -137.5 c 128,-1,48
 282 -143 282 -143 308 -143 c 0,49,50
 366 -143 366 -143 366 -105 c 0,51,52
 366 -84 366 -84 352.5 -75.5 c 128,-1,53
 339 -67 339 -67 318 -67 c 256,54,55
 297 -67 297 -67 274 -72.5 c 128,-1,56
 251 -78 251 -78 237 -83 c 1,57,-1
 279 -9 l 1,58,59
 231 -6 231 -6 188.5 17 c 128,-1,60
 146 40 146 40 114.5 76.5 c 128,-1,61
 83 113 83 113 64.5 160.5 c 128,-1,62
 46 208 46 208 46 262 c 0,0,1
EndSplineSet
EndChar

StartChar: egrave
Encoding: 232 232 171
Width: 576
GlyphClass: 2
Flags: W
LayerCount: 2
Fore
SplineSet
296 -10 m 0,0,1
 245 -10 245 -10 199.5 11.5 c 128,-1,2
 154 33 154 33 120 70.5 c 128,-1,3
 86 108 86 108 66 157.5 c 128,-1,4
 46 207 46 207 46 263 c 0,5,6
 46 318 46 318 65 366 c 128,-1,7
 84 414 84 414 117.5 450 c 128,-1,8
 151 486 151 486 195.5 506.5 c 128,-1,9
 240 527 240 527 291 527 c 0,10,11
 343 527 343 527 388.5 506 c 128,-1,12
 434 485 434 485 467.5 449 c 128,-1,13
 501 413 501 413 521 364 c 128,-1,14
 541 315 541 315 541 259 c 2,15,-1
 541 248 l 1,16,-1
 66 248 l 1,17,18
 70 198 70 198 89.5 154.5 c 128,-1,19
 109 111 109 111 140 79 c 128,-1,20
 171 47 171 47 211.5 28.5 c 128,-1,21
 252 10 252 10 297 10 c 0,22,23
 327 10 327 10 355.5 18 c 128,-1,24
 384 26 384 26 409 40.5 c 128,-1,25
 434 55 434 55 453 75 c 128,-1,26
 472 95 472 95 483 119 c 1,27,-1
 502 114 l 1,28,29
 491 87 491 87 470.5 64.5 c 128,-1,30
 450 42 450 42 422.5 25.5 c 128,-1,31
 395 9 395 9 362.5 -0.5 c 128,-1,32
 330 -10 330 -10 296 -10 c 0,0,1
520 268 m 1,33,34
 517 320 517 320 498 364 c 128,-1,35
 479 408 479 408 448.5 439.5 c 128,-1,36
 418 471 418 471 378 489 c 128,-1,37
 338 507 338 507 292 507 c 256,38,39
 246 507 246 507 206 489 c 128,-1,40
 166 471 166 471 135.5 439 c 128,-1,41
 105 407 105 407 87 363 c 128,-1,42
 69 319 69 319 66 268 c 1,43,-1
 520 268 l 1,33,34
224 730 m 1,44,-1
 257 730 l 1,45,-1
 322 657 l 1,46,-1
 306 645 l 1,47,-1
 224 730 l 1,44,-1
EndSplineSet
EndChar

StartChar: eacute
Encoding: 233 233 172
Width: 576
GlyphClass: 2
Flags: W
LayerCount: 2
Fore
SplineSet
296 -10 m 0,0,1
 245 -10 245 -10 199.5 11.5 c 128,-1,2
 154 33 154 33 120 70.5 c 128,-1,3
 86 108 86 108 66 157.5 c 128,-1,4
 46 207 46 207 46 263 c 0,5,6
 46 318 46 318 65 366 c 128,-1,7
 84 414 84 414 117.5 450 c 128,-1,8
 151 486 151 486 195.5 506.5 c 128,-1,9
 240 527 240 527 291 527 c 0,10,11
 343 527 343 527 388.5 506 c 128,-1,12
 434 485 434 485 467.5 449 c 128,-1,13
 501 413 501 413 521 364 c 128,-1,14
 541 315 541 315 541 259 c 2,15,-1
 541 248 l 1,16,-1
 66 248 l 1,17,18
 70 198 70 198 89.5 154.5 c 128,-1,19
 109 111 109 111 140 79 c 128,-1,20
 171 47 171 47 211.5 28.5 c 128,-1,21
 252 10 252 10 297 10 c 0,22,23
 327 10 327 10 355.5 18 c 128,-1,24
 384 26 384 26 409 40.5 c 128,-1,25
 434 55 434 55 453 75 c 128,-1,26
 472 95 472 95 483 119 c 1,27,-1
 502 114 l 1,28,29
 491 87 491 87 470.5 64.5 c 128,-1,30
 450 42 450 42 422.5 25.5 c 128,-1,31
 395 9 395 9 362.5 -0.5 c 128,-1,32
 330 -10 330 -10 296 -10 c 0,0,1
520 268 m 1,33,34
 517 320 517 320 498 364 c 128,-1,35
 479 408 479 408 448.5 439.5 c 128,-1,36
 418 471 418 471 378 489 c 128,-1,37
 338 507 338 507 292 507 c 256,38,39
 246 507 246 507 206 489 c 128,-1,40
 166 471 166 471 135.5 439 c 128,-1,41
 105 407 105 407 87 363 c 128,-1,42
 69 319 69 319 66 268 c 1,43,-1
 520 268 l 1,33,34
278 645 m 1,44,-1
 262 657 l 1,45,-1
 326 730 l 1,46,-1
 360 730 l 1,47,-1
 278 645 l 1,44,-1
EndSplineSet
EndChar

StartChar: ecircumflex
Encoding: 234 234 173
Width: 576
GlyphClass: 2
Flags: W
LayerCount: 2
Fore
SplineSet
296 -10 m 0,0,1
 245 -10 245 -10 199.5 11.5 c 128,-1,2
 154 33 154 33 120 70.5 c 128,-1,3
 86 108 86 108 66 157.5 c 128,-1,4
 46 207 46 207 46 263 c 0,5,6
 46 318 46 318 65 366 c 128,-1,7
 84 414 84 414 117.5 450 c 128,-1,8
 151 486 151 486 195.5 506.5 c 128,-1,9
 240 527 240 527 291 527 c 0,10,11
 343 527 343 527 388.5 506 c 128,-1,12
 434 485 434 485 467.5 449 c 128,-1,13
 501 413 501 413 521 364 c 128,-1,14
 541 315 541 315 541 259 c 2,15,-1
 541 248 l 1,16,-1
 66 248 l 1,17,18
 70 198 70 198 89.5 154.5 c 128,-1,19
 109 111 109 111 140 79 c 128,-1,20
 171 47 171 47 211.5 28.5 c 128,-1,21
 252 10 252 10 297 10 c 0,22,23
 327 10 327 10 355.5 18 c 128,-1,24
 384 26 384 26 409 40.5 c 128,-1,25
 434 55 434 55 453 75 c 128,-1,26
 472 95 472 95 483 119 c 1,27,-1
 502 114 l 1,28,29
 491 87 491 87 470.5 64.5 c 128,-1,30
 450 42 450 42 422.5 25.5 c 128,-1,31
 395 9 395 9 362.5 -0.5 c 128,-1,32
 330 -10 330 -10 296 -10 c 0,0,1
520 268 m 1,33,34
 517 320 517 320 498 364 c 128,-1,35
 479 408 479 408 448.5 439.5 c 128,-1,36
 418 471 418 471 378 489 c 128,-1,37
 338 507 338 507 292 507 c 256,38,39
 246 507 246 507 206 489 c 128,-1,40
 166 471 166 471 135.5 439 c 128,-1,41
 105 407 105 407 87 363 c 128,-1,42
 69 319 69 319 66 268 c 1,43,-1
 520 268 l 1,33,34
191 656 m 1,44,-1
 284 730 l 1,45,-1
 300 730 l 1,46,-1
 393 656 l 1,47,-1
 377 644 l 1,48,-1
 292 707 l 1,49,-1
 207 644 l 1,50,-1
 191 656 l 1,44,-1
EndSplineSet
EndChar

StartChar: edieresis
Encoding: 235 235 174
Width: 576
GlyphClass: 2
Flags: W
LayerCount: 2
Fore
SplineSet
296 -10 m 0,0,1
 245 -10 245 -10 199.5 11.5 c 128,-1,2
 154 33 154 33 120 70.5 c 128,-1,3
 86 108 86 108 66 157.5 c 128,-1,4
 46 207 46 207 46 263 c 0,5,6
 46 318 46 318 65 366 c 128,-1,7
 84 414 84 414 117.5 450 c 128,-1,8
 151 486 151 486 195.5 506.5 c 128,-1,9
 240 527 240 527 291 527 c 0,10,11
 343 527 343 527 388.5 506 c 128,-1,12
 434 485 434 485 467.5 449 c 128,-1,13
 501 413 501 413 521 364 c 128,-1,14
 541 315 541 315 541 259 c 2,15,-1
 541 248 l 1,16,-1
 66 248 l 1,17,18
 70 198 70 198 89.5 154.5 c 128,-1,19
 109 111 109 111 140 79 c 128,-1,20
 171 47 171 47 211.5 28.5 c 128,-1,21
 252 10 252 10 297 10 c 0,22,23
 327 10 327 10 355.5 18 c 128,-1,24
 384 26 384 26 409 40.5 c 128,-1,25
 434 55 434 55 453 75 c 128,-1,26
 472 95 472 95 483 119 c 1,27,-1
 502 114 l 1,28,29
 491 87 491 87 470.5 64.5 c 128,-1,30
 450 42 450 42 422.5 25.5 c 128,-1,31
 395 9 395 9 362.5 -0.5 c 128,-1,32
 330 -10 330 -10 296 -10 c 0,0,1
520 268 m 1,33,34
 517 320 517 320 498 364 c 128,-1,35
 479 408 479 408 448.5 439.5 c 128,-1,36
 418 471 418 471 378 489 c 128,-1,37
 338 507 338 507 292 507 c 256,38,39
 246 507 246 507 206 489 c 128,-1,40
 166 471 166 471 135.5 439 c 128,-1,41
 105 407 105 407 87 363 c 128,-1,42
 69 319 69 319 66 268 c 1,43,-1
 520 268 l 1,33,34
224 653 m 1,44,-1
 224 730 l 1,45,-1
 244 730 l 1,46,-1
 244 653 l 1,47,-1
 224 653 l 1,44,-1
340 653 m 1,48,-1
 340 730 l 1,49,-1
 360 730 l 1,50,-1
 360 653 l 1,51,-1
 340 653 l 1,48,-1
EndSplineSet
EndChar

StartChar: igrave
Encoding: 236 236 175
Width: 188
GlyphClass: 2
Flags: W
LayerCount: 2
Fore
SplineSet
84 0 m 1,0,-1
 84 519 l 1,1,-1
 104 519 l 1,2,-1
 104 0 l 1,3,-1
 84 0 l 1,0,-1
26 730 m 1,4,-1
 59 730 l 1,5,-1
 124 657 l 1,6,-1
 108 645 l 1,7,-1
 26 730 l 1,4,-1
EndSplineSet
EndChar

StartChar: iacute
Encoding: 237 237 176
Width: 188
GlyphClass: 2
Flags: W
LayerCount: 2
Fore
SplineSet
84 0 m 1,0,-1
 84 519 l 1,1,-1
 104 519 l 1,2,-1
 104 0 l 1,3,-1
 84 0 l 1,0,-1
80 645 m 1,4,-1
 64 657 l 1,5,-1
 128 730 l 1,6,-1
 162 730 l 1,7,-1
 80 645 l 1,4,-1
EndSplineSet
EndChar

StartChar: icircumflex
Encoding: 238 238 177
Width: 188
GlyphClass: 2
Flags: W
LayerCount: 2
Fore
SplineSet
84 0 m 1,0,-1
 84 519 l 1,1,-1
 104 519 l 1,2,-1
 104 0 l 1,3,-1
 84 0 l 1,0,-1
-7 656 m 1,4,-1
 86 730 l 1,5,-1
 102 730 l 1,6,-1
 195 656 l 1,7,-1
 179 644 l 1,8,-1
 94 707 l 1,9,-1
 9 644 l 1,10,-1
 -7 656 l 1,4,-1
EndSplineSet
EndChar

StartChar: idieresis
Encoding: 239 239 178
Width: 188
GlyphClass: 2
Flags: W
LayerCount: 2
Fore
SplineSet
84 0 m 1,0,-1
 84 519 l 1,1,-1
 104 519 l 1,2,-1
 104 0 l 1,3,-1
 84 0 l 1,0,-1
26 653 m 1,4,-1
 26 730 l 1,5,-1
 46 730 l 1,6,-1
 46 653 l 1,7,-1
 26 653 l 1,4,-1
142 653 m 1,8,-1
 142 730 l 1,9,-1
 162 730 l 1,10,-1
 162 653 l 1,11,-1
 142 653 l 1,8,-1
EndSplineSet
EndChar

StartChar: eth
Encoding: 240 240 179
Width: 593
GlyphClass: 2
Flags: W
LayerCount: 2
Fore
SplineSet
471 699 m 1,0,-1
 378 638 l 1,1,2
 432 591 432 591 464 543.5 c 128,-1,3
 496 496 496 496 513.5 447 c 128,-1,4
 531 398 531 398 536.5 348 c 128,-1,5
 542 298 542 298 542 246 c 256,6,7
 542 194 542 194 522.5 147.5 c 128,-1,8
 503 101 503 101 469.5 66 c 128,-1,9
 436 31 436 31 391 10.5 c 128,-1,10
 346 -10 346 -10 295 -10 c 256,11,12
 244 -10 244 -10 199 9.5 c 128,-1,13
 154 29 154 29 120.5 62 c 128,-1,14
 87 95 87 95 67.5 139 c 128,-1,15
 48 183 48 183 48 232 c 256,16,17
 48 281 48 281 67.5 325.5 c 128,-1,18
 87 370 87 370 121 403 c 128,-1,19
 155 436 155 436 200 455.5 c 128,-1,20
 245 475 245 475 295 475 c 0,21,22
 334 475 334 475 369.5 464.5 c 128,-1,23
 405 454 405 454 434.5 434.5 c 128,-1,24
 464 415 464 415 486.5 388.5 c 128,-1,25
 509 362 509 362 522 330 c 1,26,27
 518 366 518 366 509.5 402.5 c 128,-1,28
 501 439 501 439 483 476.5 c 128,-1,29
 465 514 465 514 436 552 c 128,-1,30
 407 590 407 590 364 629 c 1,31,-1
 240 547 l 1,32,-1
 230 561 l 1,33,-1
 350 640 l 1,34,35
 296 686 296 686 220 730 c 1,36,-1
 249 730 l 1,37,38
 315 691 315 691 364 649 c 1,39,-1
 461 713 l 1,40,-1
 471 699 l 1,0,-1
68 230 m 0,41,42
 68 185 68 185 86 145 c 128,-1,43
 104 105 104 105 134.5 75 c 128,-1,44
 165 45 165 45 206 27.5 c 128,-1,45
 247 10 247 10 294 10 c 0,46,47
 340 10 340 10 381.5 29 c 128,-1,48
 423 48 423 48 454.5 80.5 c 128,-1,49
 486 113 486 113 504 156 c 128,-1,50
 522 199 522 199 522 247 c 0,51,52
 522 289 522 289 504 327 c 128,-1,53
 486 365 486 365 455 393.5 c 128,-1,54
 424 422 424 422 382.5 438.5 c 128,-1,55
 341 455 341 455 295 455 c 256,56,57
 249 455 249 455 207.5 437 c 128,-1,58
 166 419 166 419 135 388 c 128,-1,59
 104 357 104 357 86 316.5 c 128,-1,60
 68 276 68 276 68 230 c 0,41,42
EndSplineSet
EndChar

StartChar: ntilde
Encoding: 241 241 180
Width: 565
GlyphClass: 2
Flags: W
LayerCount: 2
Fore
SplineSet
487 0 m 1,0,-1
 467 0 l 1,1,-1
 467 289 l 2,2,3
 467 403 467 403 435.5 455 c 128,-1,4
 404 507 404 507 334 507 c 0,5,6
 296 507 296 507 259.5 493.5 c 128,-1,7
 223 480 223 480 192 456 c 128,-1,8
 161 432 161 432 138 399 c 128,-1,9
 115 366 115 366 104 328 c 1,10,-1
 104 0 l 1,11,-1
 84 0 l 1,12,-1
 84 519 l 1,13,-1
 104 519 l 1,14,-1
 104 385 l 1,15,16
 120 416 120 416 145 442.5 c 128,-1,17
 170 469 170 469 200 487.5 c 128,-1,18
 230 506 230 506 264 516.5 c 128,-1,19
 298 527 298 527 333 527 c 0,20,21
 413 527 413 527 450 469.5 c 128,-1,22
 487 412 487 412 487 289 c 2,23,-1
 487 0 l 1,0,-1
341 663 m 0,24,25
 319 663 319 663 302.5 669 c 128,-1,26
 286 675 286 675 272 682 c 128,-1,27
 258 689 258 689 244.5 695 c 128,-1,28
 231 701 231 701 216 701 c 0,29,30
 200 701 200 701 190 694.5 c 128,-1,31
 180 688 180 688 174.5 679.5 c 128,-1,32
 169 671 169 671 167 663 c 128,-1,33
 165 655 165 655 165 653 c 2,34,-1
 145 653 l 2,35,36
 145 655 145 655 147 666 c 128,-1,37
 149 677 149 677 156.5 689 c 128,-1,38
 164 701 164 701 178.5 710.5 c 128,-1,39
 193 720 193 720 218 720 c 0,40,41
 237 720 237 720 252 714 c 128,-1,42
 267 708 267 708 281 701 c 128,-1,43
 295 694 295 694 309.5 688 c 128,-1,44
 324 682 324 682 343 682 c 0,45,46
 364 682 364 682 375.5 689 c 128,-1,47
 387 696 387 696 393 704.5 c 128,-1,48
 399 713 399 713 400.5 720.5 c 128,-1,49
 402 728 402 728 402 730 c 2,50,-1
 422 730 l 2,51,52
 422 727 422 727 419.5 716 c 128,-1,53
 417 705 417 705 409 693 c 128,-1,54
 401 681 401 681 384.5 672 c 128,-1,55
 368 663 368 663 341 663 c 0,24,25
EndSplineSet
EndChar

StartChar: ograve
Encoding: 242 242 181
Width: 586
GlyphClass: 2
Flags: W
LayerCount: 2
Fore
SplineSet
293 -10 m 256,0,1
 242 -10 242 -10 197 11.5 c 128,-1,2
 152 33 152 33 118.5 69.5 c 128,-1,3
 85 106 85 106 65.5 155 c 128,-1,4
 46 204 46 204 46 258 c 0,5,6
 46 313 46 313 65.5 361.5 c 128,-1,7
 85 410 85 410 119 447 c 128,-1,8
 153 484 153 484 198 505.5 c 128,-1,9
 243 527 243 527 293 527 c 256,10,11
 343 527 343 527 388 505.5 c 128,-1,12
 433 484 433 484 466.5 447 c 128,-1,13
 500 410 500 410 520 361.5 c 128,-1,14
 540 313 540 313 540 258 c 0,15,16
 540 204 540 204 520.5 155 c 128,-1,17
 501 106 501 106 467.5 69.5 c 128,-1,18
 434 33 434 33 389 11.5 c 128,-1,19
 344 -10 344 -10 293 -10 c 256,0,1
66 256 m 0,20,21
 66 206 66 206 84 161 c 128,-1,22
 102 116 102 116 132.5 82.5 c 128,-1,23
 163 49 163 49 204 29.5 c 128,-1,24
 245 10 245 10 292 10 c 0,25,26
 338 10 338 10 379.5 30 c 128,-1,27
 421 50 421 50 452.5 84 c 128,-1,28
 484 118 484 118 502 163 c 128,-1,29
 520 208 520 208 520 259 c 0,30,31
 520 309 520 309 502 354 c 128,-1,32
 484 399 484 399 453 433 c 128,-1,33
 422 467 422 467 380.5 487 c 128,-1,34
 339 507 339 507 293 507 c 256,35,36
 247 507 247 507 205.5 487 c 128,-1,37
 164 467 164 467 133 432.5 c 128,-1,38
 102 398 102 398 84 352.5 c 128,-1,39
 66 307 66 307 66 256 c 0,20,21
225 730 m 1,40,-1
 258 730 l 1,41,-1
 323 657 l 1,42,-1
 307 645 l 1,43,-1
 225 730 l 1,40,-1
EndSplineSet
EndChar

StartChar: oacute
Encoding: 243 243 182
Width: 586
GlyphClass: 2
Flags: W
LayerCount: 2
Fore
SplineSet
293 -10 m 256,0,1
 242 -10 242 -10 197 11.5 c 128,-1,2
 152 33 152 33 118.5 69.5 c 128,-1,3
 85 106 85 106 65.5 155 c 128,-1,4
 46 204 46 204 46 258 c 0,5,6
 46 313 46 313 65.5 361.5 c 128,-1,7
 85 410 85 410 119 447 c 128,-1,8
 153 484 153 484 198 505.5 c 128,-1,9
 243 527 243 527 293 527 c 256,10,11
 343 527 343 527 388 505.5 c 128,-1,12
 433 484 433 484 466.5 447 c 128,-1,13
 500 410 500 410 520 361.5 c 128,-1,14
 540 313 540 313 540 258 c 0,15,16
 540 204 540 204 520.5 155 c 128,-1,17
 501 106 501 106 467.5 69.5 c 128,-1,18
 434 33 434 33 389 11.5 c 128,-1,19
 344 -10 344 -10 293 -10 c 256,0,1
66 256 m 0,20,21
 66 206 66 206 84 161 c 128,-1,22
 102 116 102 116 132.5 82.5 c 128,-1,23
 163 49 163 49 204 29.5 c 128,-1,24
 245 10 245 10 292 10 c 0,25,26
 338 10 338 10 379.5 30 c 128,-1,27
 421 50 421 50 452.5 84 c 128,-1,28
 484 118 484 118 502 163 c 128,-1,29
 520 208 520 208 520 259 c 0,30,31
 520 309 520 309 502 354 c 128,-1,32
 484 399 484 399 453 433 c 128,-1,33
 422 467 422 467 380.5 487 c 128,-1,34
 339 507 339 507 293 507 c 256,35,36
 247 507 247 507 205.5 487 c 128,-1,37
 164 467 164 467 133 432.5 c 128,-1,38
 102 398 102 398 84 352.5 c 128,-1,39
 66 307 66 307 66 256 c 0,20,21
279 645 m 1,40,-1
 263 657 l 1,41,-1
 327 730 l 1,42,-1
 361 730 l 1,43,-1
 279 645 l 1,40,-1
EndSplineSet
EndChar

StartChar: ocircumflex
Encoding: 244 244 183
Width: 586
GlyphClass: 2
Flags: W
LayerCount: 2
Fore
SplineSet
293 -10 m 256,0,1
 242 -10 242 -10 197 11.5 c 128,-1,2
 152 33 152 33 118.5 69.5 c 128,-1,3
 85 106 85 106 65.5 155 c 128,-1,4
 46 204 46 204 46 258 c 0,5,6
 46 313 46 313 65.5 361.5 c 128,-1,7
 85 410 85 410 119 447 c 128,-1,8
 153 484 153 484 198 505.5 c 128,-1,9
 243 527 243 527 293 527 c 256,10,11
 343 527 343 527 388 505.5 c 128,-1,12
 433 484 433 484 466.5 447 c 128,-1,13
 500 410 500 410 520 361.5 c 128,-1,14
 540 313 540 313 540 258 c 0,15,16
 540 204 540 204 520.5 155 c 128,-1,17
 501 106 501 106 467.5 69.5 c 128,-1,18
 434 33 434 33 389 11.5 c 128,-1,19
 344 -10 344 -10 293 -10 c 256,0,1
66 256 m 0,20,21
 66 206 66 206 84 161 c 128,-1,22
 102 116 102 116 132.5 82.5 c 128,-1,23
 163 49 163 49 204 29.5 c 128,-1,24
 245 10 245 10 292 10 c 0,25,26
 338 10 338 10 379.5 30 c 128,-1,27
 421 50 421 50 452.5 84 c 128,-1,28
 484 118 484 118 502 163 c 128,-1,29
 520 208 520 208 520 259 c 0,30,31
 520 309 520 309 502 354 c 128,-1,32
 484 399 484 399 453 433 c 128,-1,33
 422 467 422 467 380.5 487 c 128,-1,34
 339 507 339 507 293 507 c 256,35,36
 247 507 247 507 205.5 487 c 128,-1,37
 164 467 164 467 133 432.5 c 128,-1,38
 102 398 102 398 84 352.5 c 128,-1,39
 66 307 66 307 66 256 c 0,20,21
192 656 m 1,40,-1
 285 730 l 1,41,-1
 301 730 l 1,42,-1
 394 656 l 1,43,-1
 378 644 l 1,44,-1
 293 707 l 1,45,-1
 208 644 l 1,46,-1
 192 656 l 1,40,-1
EndSplineSet
EndChar

StartChar: otilde
Encoding: 245 245 184
Width: 586
GlyphClass: 2
Flags: W
LayerCount: 2
Fore
SplineSet
293 -10 m 256,0,1
 242 -10 242 -10 197 11.5 c 128,-1,2
 152 33 152 33 118.5 69.5 c 128,-1,3
 85 106 85 106 65.5 155 c 128,-1,4
 46 204 46 204 46 258 c 0,5,6
 46 313 46 313 65.5 361.5 c 128,-1,7
 85 410 85 410 119 447 c 128,-1,8
 153 484 153 484 198 505.5 c 128,-1,9
 243 527 243 527 293 527 c 256,10,11
 343 527 343 527 388 505.5 c 128,-1,12
 433 484 433 484 466.5 447 c 128,-1,13
 500 410 500 410 520 361.5 c 128,-1,14
 540 313 540 313 540 258 c 0,15,16
 540 204 540 204 520.5 155 c 128,-1,17
 501 106 501 106 467.5 69.5 c 128,-1,18
 434 33 434 33 389 11.5 c 128,-1,19
 344 -10 344 -10 293 -10 c 256,0,1
66 256 m 0,20,21
 66 206 66 206 84 161 c 128,-1,22
 102 116 102 116 132.5 82.5 c 128,-1,23
 163 49 163 49 204 29.5 c 128,-1,24
 245 10 245 10 292 10 c 0,25,26
 338 10 338 10 379.5 30 c 128,-1,27
 421 50 421 50 452.5 84 c 128,-1,28
 484 118 484 118 502 163 c 128,-1,29
 520 208 520 208 520 259 c 0,30,31
 520 309 520 309 502 354 c 128,-1,32
 484 399 484 399 453 433 c 128,-1,33
 422 467 422 467 380.5 487 c 128,-1,34
 339 507 339 507 293 507 c 256,35,36
 247 507 247 507 205.5 487 c 128,-1,37
 164 467 164 467 133 432.5 c 128,-1,38
 102 398 102 398 84 352.5 c 128,-1,39
 66 307 66 307 66 256 c 0,20,21
354 663 m 0,40,41
 332 663 332 663 315.5 669 c 128,-1,42
 299 675 299 675 285 682 c 128,-1,43
 271 689 271 689 257.5 695 c 128,-1,44
 244 701 244 701 229 701 c 0,45,46
 213 701 213 701 203 694.5 c 128,-1,47
 193 688 193 688 187.5 679.5 c 128,-1,48
 182 671 182 671 180 663 c 128,-1,49
 178 655 178 655 178 653 c 2,50,-1
 158 653 l 2,51,52
 158 655 158 655 160 666 c 128,-1,53
 162 677 162 677 169.5 689 c 128,-1,54
 177 701 177 701 191.5 710.5 c 128,-1,55
 206 720 206 720 231 720 c 0,56,57
 250 720 250 720 265 714 c 128,-1,58
 280 708 280 708 294 701 c 128,-1,59
 308 694 308 694 322.5 688 c 128,-1,60
 337 682 337 682 356 682 c 0,61,62
 377 682 377 682 388.5 689 c 128,-1,63
 400 696 400 696 406 704.5 c 128,-1,64
 412 713 412 713 413.5 720.5 c 128,-1,65
 415 728 415 728 415 730 c 2,66,-1
 435 730 l 2,67,68
 435 727 435 727 432.5 716 c 128,-1,69
 430 705 430 705 422 693 c 128,-1,70
 414 681 414 681 397.5 672 c 128,-1,71
 381 663 381 663 354 663 c 0,40,41
EndSplineSet
EndChar

StartChar: odieresis
Encoding: 246 246 185
Width: 586
GlyphClass: 2
Flags: W
LayerCount: 2
Fore
SplineSet
293 -10 m 256,0,1
 242 -10 242 -10 197 11.5 c 128,-1,2
 152 33 152 33 118.5 69.5 c 128,-1,3
 85 106 85 106 65.5 155 c 128,-1,4
 46 204 46 204 46 258 c 0,5,6
 46 313 46 313 65.5 361.5 c 128,-1,7
 85 410 85 410 119 447 c 128,-1,8
 153 484 153 484 198 505.5 c 128,-1,9
 243 527 243 527 293 527 c 256,10,11
 343 527 343 527 388 505.5 c 128,-1,12
 433 484 433 484 466.5 447 c 128,-1,13
 500 410 500 410 520 361.5 c 128,-1,14
 540 313 540 313 540 258 c 0,15,16
 540 204 540 204 520.5 155 c 128,-1,17
 501 106 501 106 467.5 69.5 c 128,-1,18
 434 33 434 33 389 11.5 c 128,-1,19
 344 -10 344 -10 293 -10 c 256,0,1
66 256 m 0,20,21
 66 206 66 206 84 161 c 128,-1,22
 102 116 102 116 132.5 82.5 c 128,-1,23
 163 49 163 49 204 29.5 c 128,-1,24
 245 10 245 10 292 10 c 0,25,26
 338 10 338 10 379.5 30 c 128,-1,27
 421 50 421 50 452.5 84 c 128,-1,28
 484 118 484 118 502 163 c 128,-1,29
 520 208 520 208 520 259 c 0,30,31
 520 309 520 309 502 354 c 128,-1,32
 484 399 484 399 453 433 c 128,-1,33
 422 467 422 467 380.5 487 c 128,-1,34
 339 507 339 507 293 507 c 256,35,36
 247 507 247 507 205.5 487 c 128,-1,37
 164 467 164 467 133 432.5 c 128,-1,38
 102 398 102 398 84 352.5 c 128,-1,39
 66 307 66 307 66 256 c 0,20,21
225 653 m 1,40,-1
 225 730 l 1,41,-1
 245 730 l 1,42,-1
 245 653 l 1,43,-1
 225 653 l 1,40,-1
341 653 m 1,44,-1
 341 730 l 1,45,-1
 361 730 l 1,46,-1
 361 653 l 1,47,-1
 341 653 l 1,44,-1
EndSplineSet
EndChar

StartChar: divide
Encoding: 247 247 186
Width: 546
GlyphClass: 2
Flags: W
LayerCount: 2
Fore
SplineSet
263 385 m 1,0,-1
 263 449 l 1,1,-1
 283 449 l 1,2,-1
 283 385 l 1,3,-1
 263 385 l 1,0,-1
263 92 m 1,4,-1
 263 156 l 1,5,-1
 283 156 l 1,6,-1
 283 92 l 1,7,-1
 263 92 l 1,4,-1
72 261 m 1,8,-1
 72 281 l 1,9,-1
 475 281 l 1,10,-1
 475 261 l 1,11,-1
 72 261 l 1,8,-1
EndSplineSet
EndChar

StartChar: oslash
Encoding: 248 248 187
Width: 586
GlyphClass: 2
Flags: W
LayerCount: 2
Fore
SplineSet
123 0 m 1,0,-1
 148 41 l 1,1,2
 101 79 101 79 73.5 135.5 c 128,-1,3
 46 192 46 192 46 258 c 0,4,5
 46 313 46 313 65.5 361.5 c 128,-1,6
 85 410 85 410 119 447 c 128,-1,7
 153 484 153 484 198 505.5 c 128,-1,8
 243 527 243 527 293 527 c 0,9,10
 328 527 328 527 360 516.5 c 128,-1,11
 392 506 392 506 420 487 c 1,12,-1
 440 519 l 1,13,-1
 466 519 l 1,14,-1
 438 474 l 1,15,16
 484 436 484 436 512 380 c 128,-1,17
 540 324 540 324 540 258 c 0,18,19
 540 204 540 204 520.5 155 c 128,-1,20
 501 106 501 106 467.5 69.5 c 128,-1,21
 434 33 434 33 389 11.5 c 128,-1,22
 344 -10 344 -10 293 -10 c 0,23,24
 258 -10 258 -10 225.5 0 c 128,-1,25
 193 10 193 10 165 29 c 1,26,-1
 148 0 l 1,27,-1
 123 0 l 1,0,-1
66 256 m 0,28,29
 66 196 66 196 91 144 c 128,-1,30
 116 92 116 92 158 58 c 1,31,-1
 410 470 l 1,32,33
 384 487 384 487 354.5 497 c 128,-1,34
 325 507 325 507 293 507 c 0,35,36
 247 507 247 507 205.5 487 c 128,-1,37
 164 467 164 467 133 432.5 c 128,-1,38
 102 398 102 398 84 352.5 c 128,-1,39
 66 307 66 307 66 256 c 0,28,29
292 10 m 0,40,41
 338 10 338 10 379.5 30 c 128,-1,42
 421 50 421 50 452.5 84 c 128,-1,43
 484 118 484 118 502 163 c 128,-1,44
 520 208 520 208 520 259 c 0,45,46
 520 319 520 319 495 370 c 128,-1,47
 470 421 470 421 428 456 c 1,48,-1
 176 46 l 1,49,50
 229 10 229 10 292 10 c 0,40,41
EndSplineSet
EndChar

StartChar: ugrave
Encoding: 249 249 188
Width: 576
GlyphClass: 2
Flags: W
LayerCount: 2
Fore
SplineSet
245 -10 m 0,0,1
 78 -10 78 -10 78 228 c 2,2,-1
 78 519 l 1,3,-1
 98 519 l 1,4,-1
 98 228 l 2,5,6
 98 10 98 10 245 10 c 0,7,8
 282 10 282 10 318 23.5 c 128,-1,9
 354 37 354 37 384 60.5 c 128,-1,10
 414 84 414 84 436.5 117 c 128,-1,11
 459 150 459 150 471 189 c 1,12,-1
 471 519 l 1,13,-1
 491 519 l 1,14,-1
 491 40 l 2,15,16
 491 20 491 20 507 20 c 1,17,-1
 507 0 l 1,18,19
 496 0 496 0 493 2 c 0,20,21
 483 6 483 6 477 16.5 c 128,-1,22
 471 27 471 27 471 40 c 2,23,-1
 471 132 l 1,24,25
 437 66 437 66 376 28 c 128,-1,26
 315 -10 315 -10 245 -10 c 0,0,1
214 730 m 1,27,-1
 247 730 l 1,28,-1
 312 657 l 1,29,-1
 296 645 l 1,30,-1
 214 730 l 1,27,-1
EndSplineSet
EndChar

StartChar: uacute
Encoding: 250 250 189
Width: 576
GlyphClass: 2
Flags: W
LayerCount: 2
Fore
SplineSet
245 -10 m 0,0,1
 78 -10 78 -10 78 228 c 2,2,-1
 78 519 l 1,3,-1
 98 519 l 1,4,-1
 98 228 l 2,5,6
 98 10 98 10 245 10 c 0,7,8
 282 10 282 10 318 23.5 c 128,-1,9
 354 37 354 37 384 60.5 c 128,-1,10
 414 84 414 84 436.5 117 c 128,-1,11
 459 150 459 150 471 189 c 1,12,-1
 471 519 l 1,13,-1
 491 519 l 1,14,-1
 491 40 l 2,15,16
 491 20 491 20 507 20 c 1,17,-1
 507 0 l 1,18,19
 496 0 496 0 493 2 c 0,20,21
 483 6 483 6 477 16.5 c 128,-1,22
 471 27 471 27 471 40 c 2,23,-1
 471 132 l 1,24,25
 437 66 437 66 376 28 c 128,-1,26
 315 -10 315 -10 245 -10 c 0,0,1
268 645 m 1,27,-1
 252 657 l 1,28,-1
 316 730 l 1,29,-1
 350 730 l 1,30,-1
 268 645 l 1,27,-1
EndSplineSet
EndChar

StartChar: ucircumflex
Encoding: 251 251 190
Width: 576
GlyphClass: 2
Flags: W
LayerCount: 2
Fore
SplineSet
245 -10 m 0,0,1
 78 -10 78 -10 78 228 c 2,2,-1
 78 519 l 1,3,-1
 98 519 l 1,4,-1
 98 228 l 2,5,6
 98 10 98 10 245 10 c 0,7,8
 282 10 282 10 318 23.5 c 128,-1,9
 354 37 354 37 384 60.5 c 128,-1,10
 414 84 414 84 436.5 117 c 128,-1,11
 459 150 459 150 471 189 c 1,12,-1
 471 519 l 1,13,-1
 491 519 l 1,14,-1
 491 40 l 2,15,16
 491 20 491 20 507 20 c 1,17,-1
 507 0 l 1,18,19
 496 0 496 0 493 2 c 0,20,21
 483 6 483 6 477 16.5 c 128,-1,22
 471 27 471 27 471 40 c 2,23,-1
 471 132 l 1,24,25
 437 66 437 66 376 28 c 128,-1,26
 315 -10 315 -10 245 -10 c 0,0,1
181 656 m 1,27,-1
 274 730 l 1,28,-1
 290 730 l 1,29,-1
 383 656 l 1,30,-1
 367 644 l 1,31,-1
 282 707 l 1,32,-1
 197 644 l 1,33,-1
 181 656 l 1,27,-1
EndSplineSet
EndChar

StartChar: udieresis
Encoding: 252 252 191
Width: 576
GlyphClass: 2
Flags: W
LayerCount: 2
Fore
SplineSet
245 -10 m 0,0,1
 78 -10 78 -10 78 228 c 2,2,-1
 78 519 l 1,3,-1
 98 519 l 1,4,-1
 98 228 l 2,5,6
 98 10 98 10 245 10 c 0,7,8
 282 10 282 10 318 23.5 c 128,-1,9
 354 37 354 37 384 60.5 c 128,-1,10
 414 84 414 84 436.5 117 c 128,-1,11
 459 150 459 150 471 189 c 1,12,-1
 471 519 l 1,13,-1
 491 519 l 1,14,-1
 491 40 l 2,15,16
 491 20 491 20 507 20 c 1,17,-1
 507 0 l 1,18,19
 496 0 496 0 493 2 c 0,20,21
 483 6 483 6 477 16.5 c 128,-1,22
 471 27 471 27 471 40 c 2,23,-1
 471 132 l 1,24,25
 437 66 437 66 376 28 c 128,-1,26
 315 -10 315 -10 245 -10 c 0,0,1
214 653 m 1,27,-1
 214 730 l 1,28,-1
 234 730 l 1,29,-1
 234 653 l 1,30,-1
 214 653 l 1,27,-1
330 653 m 1,31,-1
 330 730 l 1,32,-1
 350 730 l 1,33,-1
 350 653 l 1,34,-1
 330 653 l 1,31,-1
EndSplineSet
EndChar

StartChar: yacute
Encoding: 253 253 192
Width: 536
GlyphClass: 2
Flags: W
LayerCount: 2
Fore
SplineSet
128 -203 m 1,0,1
 145 -203 145 -203 157.5 -201.5 c 128,-1,2
 170 -200 170 -200 175 -193 c 0,3,4
 178 -190 178 -190 182 -181.5 c 128,-1,5
 186 -173 186 -173 195 -152.5 c 128,-1,6
 204 -132 204 -132 220 -95.5 c 128,-1,7
 236 -59 236 -59 262 0 c 1,8,-1
 21 519 l 1,9,-1
 43 519 l 1,10,-1
 272 25 l 1,11,-1
 489 519 l 1,12,-1
 511 519 l 1,13,-1
 202 -186 l 2,14,15
 190 -212 190 -212 169 -218 c 0,16,17
 149 -223 149 -223 128 -223 c 1,18,-1
 128 -203 l 1,0,1
258 645 m 1,19,-1
 242 657 l 1,20,-1
 306 730 l 1,21,-1
 340 730 l 1,22,-1
 258 645 l 1,19,-1
EndSplineSet
EndChar

StartChar: thorn
Encoding: 254 254 193
Width: 603
GlyphClass: 2
Flags: W
LayerCount: 2
Fore
SplineSet
557 258 m 0,0,1
 555 205 555 205 536 156.5 c 128,-1,2
 517 108 517 108 483.5 71 c 128,-1,3
 450 34 450 34 405 12 c 128,-1,4
 360 -10 360 -10 307 -10 c 0,5,6
 276 -10 276 -10 246.5 -1 c 128,-1,7
 217 8 217 8 190.5 24 c 128,-1,8
 164 40 164 40 141.5 61.5 c 128,-1,9
 119 83 119 83 104 108 c 1,10,-1
 104 -213 l 1,11,-1
 84 -213 l 1,12,-1
 84 710 l 1,13,-1
 104 710 l 1,14,-1
 104 398 l 1,15,16
 144 454 144 454 196 490.5 c 128,-1,17
 248 527 248 527 316 527 c 0,18,19
 373 527 373 527 418 503 c 128,-1,20
 463 479 463 479 493.5 440.5 c 128,-1,21
 524 402 524 402 540.5 354 c 128,-1,22
 557 306 557 306 557 258 c 0,0,1
537 258 m 0,23,24
 537 306 537 306 521 351 c 128,-1,25
 505 396 505 396 475.5 430.5 c 128,-1,26
 446 465 446 465 405.5 486 c 128,-1,27
 365 507 365 507 316 507 c 0,28,29
 279 507 279 507 246.5 494.5 c 128,-1,30
 214 482 214 482 187.5 461 c 128,-1,31
 161 440 161 440 140 413 c 128,-1,32
 119 386 119 386 104 356 c 1,33,-1
 104 169 l 2,34,35
 104 137 104 137 124.5 108 c 128,-1,36
 145 79 145 79 175.5 57.5 c 128,-1,37
 206 36 206 36 241.5 23 c 128,-1,38
 277 10 277 10 307 10 c 0,39,40
 357 10 357 10 399.5 31.5 c 128,-1,41
 442 53 442 53 472.5 88 c 128,-1,42
 503 123 503 123 520 167.5 c 128,-1,43
 537 212 537 212 537 258 c 0,23,24
EndSplineSet
EndChar

StartChar: ydieresis
Encoding: 255 255 194
Width: 536
GlyphClass: 2
Flags: W
LayerCount: 2
Fore
SplineSet
128 -203 m 1,0,1
 145 -203 145 -203 157.5 -201.5 c 128,-1,2
 170 -200 170 -200 175 -193 c 0,3,4
 178 -190 178 -190 182 -181.5 c 128,-1,5
 186 -173 186 -173 195 -152.5 c 128,-1,6
 204 -132 204 -132 220 -95.5 c 128,-1,7
 236 -59 236 -59 262 0 c 1,8,-1
 21 519 l 1,9,-1
 43 519 l 1,10,-1
 272 25 l 1,11,-1
 489 519 l 1,12,-1
 511 519 l 1,13,-1
 202 -186 l 2,14,15
 190 -212 190 -212 169 -218 c 0,16,17
 149 -223 149 -223 128 -223 c 1,18,-1
 128 -203 l 1,0,1
204 653 m 1,19,-1
 204 730 l 1,20,-1
 224 730 l 1,21,-1
 224 653 l 1,22,-1
 204 653 l 1,19,-1
320 653 m 1,23,-1
 320 730 l 1,24,-1
 340 730 l 1,25,-1
 340 653 l 1,26,-1
 320 653 l 1,23,-1
EndSplineSet
EndChar

StartChar: Amacron
Encoding: 256 256 195
Width: 674
GlyphClass: 2
Flags: W
LayerCount: 2
Fore
SplineSet
328 710 m 1,0,-1
 346 710 l 1,1,-1
 655 0 l 1,2,-1
 633 0 l 1,3,-1
 522 254 l 1,4,-1
 151 254 l 1,5,-1
 40 0 l 1,6,-1
 18 0 l 1,7,-1
 328 710 l 1,0,-1
513 274 m 1,8,-1
 337 681 l 1,9,-1
 159 274 l 1,10,-1
 513 274 l 1,8,-1
197 874 m 1,11,-1
 197 894 l 1,12,-1
 477 894 l 1,13,-1
 477 874 l 1,14,-1
 197 874 l 1,11,-1
EndSplineSet
EndChar

StartChar: amacron
Encoding: 257 257 196
Width: 524
GlyphClass: 2
Flags: W
LayerCount: 2
Fore
SplineSet
207 -10 m 0,0,1
 172 -10 172 -10 141 2.5 c 128,-1,2
 110 15 110 15 87.5 36.5 c 128,-1,3
 65 58 65 58 52 87 c 128,-1,4
 39 116 39 116 39 149 c 256,5,6
 39 182 39 182 54.5 209 c 128,-1,7
 70 236 70 236 98.5 255.5 c 128,-1,8
 127 275 127 275 166.5 286 c 128,-1,9
 206 297 206 297 253 297 c 0,10,11
 298 297 298 297 344 289.5 c 128,-1,12
 390 282 390 282 427 268 c 1,13,-1
 427 327 l 2,14,15
 427 367 427 367 415 400.5 c 128,-1,16
 403 434 403 434 380.5 457.5 c 128,-1,17
 358 481 358 481 326.5 494 c 128,-1,18
 295 507 295 507 257 507 c 256,19,20
 219 507 219 507 176 490.5 c 128,-1,21
 133 474 133 474 89 443 c 1,22,-1
 77 459 l 1,23,24
 177 527 177 527 257 527 c 0,25,26
 300 527 300 527 335.5 513 c 128,-1,27
 371 499 371 499 395.5 473 c 128,-1,28
 420 447 420 447 433.5 410 c 128,-1,29
 447 373 447 373 447 327 c 2,30,-1
 447 40 l 2,31,32
 447 20 447 20 463 20 c 1,33,-1
 463 0 l 1,34,35
 452 0 452 0 449 2 c 0,36,37
 439 6 439 6 433 16.5 c 128,-1,38
 427 27 427 27 427 40 c 2,39,-1
 427 88 l 1,40,41
 391 41 391 41 333 15.5 c 128,-1,42
 275 -10 275 -10 207 -10 c 0,0,1
207 10 m 0,43,44
 274 10 274 10 329.5 35 c 128,-1,45
 385 60 385 60 412 102 c 0,46,47
 427 123 427 123 427 143 c 2,48,-1
 427 246 l 1,49,50
 347 277 347 277 253 277 c 0,51,52
 209 277 209 277 173.5 268 c 128,-1,53
 138 259 138 259 112.5 242 c 128,-1,54
 87 225 87 225 73 201.5 c 128,-1,55
 59 178 59 178 59 149 c 256,56,57
 59 120 59 120 70.5 94.5 c 128,-1,58
 82 69 82 69 102 50 c 128,-1,59
 122 31 122 31 149 20.5 c 128,-1,60
 176 10 176 10 207 10 c 0,43,44
117 686 m 1,61,-1
 117 706 l 1,62,-1
 397 706 l 1,63,-1
 397 686 l 1,64,-1
 117 686 l 1,61,-1
EndSplineSet
EndChar

StartChar: Abreve
Encoding: 258 258 197
Width: 674
GlyphClass: 2
Flags: W
LayerCount: 2
Fore
SplineSet
328 710 m 1,0,-1
 346 710 l 1,1,-1
 655 0 l 1,2,-1
 633 0 l 1,3,-1
 522 254 l 1,4,-1
 151 254 l 1,5,-1
 40 0 l 1,6,-1
 18 0 l 1,7,-1
 328 710 l 1,0,-1
513 274 m 1,8,-1
 337 681 l 1,9,-1
 159 274 l 1,10,-1
 513 274 l 1,8,-1
337 858 m 0,11,12
 357 858 357 858 373.5 875.5 c 128,-1,13
 390 893 390 893 393 918 c 1,14,-1
 411 918 l 1,15,16
 411 903 411 903 405 889 c 128,-1,17
 399 875 399 875 388.5 864.5 c 128,-1,18
 378 854 378 854 365 847.5 c 128,-1,19
 352 841 352 841 337 841 c 256,20,21
 322 841 322 841 309 847.5 c 128,-1,22
 296 854 296 854 285.5 864.5 c 128,-1,23
 275 875 275 875 269 889 c 128,-1,24
 263 903 263 903 263 918 c 1,25,-1
 282 918 l 1,26,27
 282 895 282 895 299 876.5 c 128,-1,28
 316 858 316 858 337 858 c 0,11,12
EndSplineSet
EndChar

StartChar: abreve
Encoding: 259 259 198
Width: 524
GlyphClass: 2
Flags: W
LayerCount: 2
Fore
SplineSet
207 -10 m 0,0,1
 172 -10 172 -10 141 2.5 c 128,-1,2
 110 15 110 15 87.5 36.5 c 128,-1,3
 65 58 65 58 52 87 c 128,-1,4
 39 116 39 116 39 149 c 256,5,6
 39 182 39 182 54.5 209 c 128,-1,7
 70 236 70 236 98.5 255.5 c 128,-1,8
 127 275 127 275 166.5 286 c 128,-1,9
 206 297 206 297 253 297 c 0,10,11
 298 297 298 297 344 289.5 c 128,-1,12
 390 282 390 282 427 268 c 1,13,-1
 427 327 l 2,14,15
 427 367 427 367 415 400.5 c 128,-1,16
 403 434 403 434 380.5 457.5 c 128,-1,17
 358 481 358 481 326.5 494 c 128,-1,18
 295 507 295 507 257 507 c 256,19,20
 219 507 219 507 176 490.5 c 128,-1,21
 133 474 133 474 89 443 c 1,22,-1
 77 459 l 1,23,24
 177 527 177 527 257 527 c 0,25,26
 300 527 300 527 335.5 513 c 128,-1,27
 371 499 371 499 395.5 473 c 128,-1,28
 420 447 420 447 433.5 410 c 128,-1,29
 447 373 447 373 447 327 c 2,30,-1
 447 40 l 2,31,32
 447 20 447 20 463 20 c 1,33,-1
 463 0 l 1,34,35
 452 0 452 0 449 2 c 0,36,37
 439 6 439 6 433 16.5 c 128,-1,38
 427 27 427 27 427 40 c 2,39,-1
 427 88 l 1,40,41
 391 41 391 41 333 15.5 c 128,-1,42
 275 -10 275 -10 207 -10 c 0,0,1
207 10 m 0,43,44
 274 10 274 10 329.5 35 c 128,-1,45
 385 60 385 60 412 102 c 0,46,47
 427 123 427 123 427 143 c 2,48,-1
 427 246 l 1,49,50
 347 277 347 277 253 277 c 0,51,52
 209 277 209 277 173.5 268 c 128,-1,53
 138 259 138 259 112.5 242 c 128,-1,54
 87 225 87 225 73 201.5 c 128,-1,55
 59 178 59 178 59 149 c 256,56,57
 59 120 59 120 70.5 94.5 c 128,-1,58
 82 69 82 69 102 50 c 128,-1,59
 122 31 122 31 149 20.5 c 128,-1,60
 176 10 176 10 207 10 c 0,43,44
257 670 m 0,61,62
 277 670 277 670 293.5 687.5 c 128,-1,63
 310 705 310 705 313 730 c 1,64,-1
 331 730 l 1,65,66
 331 715 331 715 325 701 c 128,-1,67
 319 687 319 687 308.5 676.5 c 128,-1,68
 298 666 298 666 285 659.5 c 128,-1,69
 272 653 272 653 257 653 c 256,70,71
 242 653 242 653 229 659.5 c 128,-1,72
 216 666 216 666 205.5 676.5 c 128,-1,73
 195 687 195 687 189 701 c 128,-1,74
 183 715 183 715 183 730 c 1,75,-1
 202 730 l 1,76,77
 202 707 202 707 219 688.5 c 128,-1,78
 236 670 236 670 257 670 c 0,61,62
EndSplineSet
EndChar

StartChar: Aogonek
Encoding: 260 260 199
Width: 673
GlyphClass: 2
Flags: W
LayerCount: 2
Fore
SplineSet
605 -159 m 1,0,1
 580 -153 580 -153 566.5 -137 c 128,-1,2
 553 -121 553 -121 553 -98 c 0,3,4
 553 -73 553 -73 570.5 -49.5 c 128,-1,5
 588 -26 588 -26 630 5 c 1,6,-1
 521 254 l 1,7,-1
 150 254 l 1,8,-1
 39 0 l 1,9,-1
 17 0 l 1,10,-1
 327 710 l 1,11,-1
 345 710 l 1,12,-1
 654 0 l 1,13,14
 609 -31 609 -31 591 -51.5 c 128,-1,15
 573 -72 573 -72 573 -95 c 0,16,17
 573 -133 573 -133 617 -142 c 1,18,-1
 605 -159 l 1,0,1
512 274 m 1,19,-1
 336 681 l 1,20,-1
 158 274 l 1,21,-1
 512 274 l 1,19,-1
EndSplineSet
EndChar

StartChar: aogonek
Encoding: 261 261 200
Width: 524
GlyphClass: 2
Flags: W
LayerCount: 2
Fore
SplineSet
414 -159 m 1,0,1
 389 -153 389 -153 375.5 -137 c 128,-1,2
 362 -121 362 -121 362 -98 c 0,3,4
 362 -73 362 -73 380 -49 c 128,-1,5
 398 -25 398 -25 441 6 c 1,6,7
 427 18 427 18 427 40 c 2,8,-1
 427 88 l 1,9,10
 391 41 391 41 333 15.5 c 128,-1,11
 275 -10 275 -10 207 -10 c 0,12,13
 172 -10 172 -10 141 2.5 c 128,-1,14
 110 15 110 15 87.5 36.5 c 128,-1,15
 65 58 65 58 52 87 c 128,-1,16
 39 116 39 116 39 149 c 256,17,18
 39 182 39 182 54.5 209 c 128,-1,19
 70 236 70 236 98.5 255.5 c 128,-1,20
 127 275 127 275 166.5 286 c 128,-1,21
 206 297 206 297 253 297 c 0,22,23
 298 297 298 297 344 289.5 c 128,-1,24
 390 282 390 282 427 268 c 1,25,-1
 427 327 l 2,26,27
 427 367 427 367 415 400.5 c 128,-1,28
 403 434 403 434 380.5 457.5 c 128,-1,29
 358 481 358 481 326.5 494 c 128,-1,30
 295 507 295 507 257 507 c 256,31,32
 219 507 219 507 176 490.5 c 128,-1,33
 133 474 133 474 89 443 c 1,34,-1
 77 459 l 1,35,36
 177 527 177 527 257 527 c 0,37,38
 300 527 300 527 335.5 513 c 128,-1,39
 371 499 371 499 395.5 473 c 128,-1,40
 420 447 420 447 433.5 410 c 128,-1,41
 447 373 447 373 447 327 c 2,42,-1
 447 40 l 2,43,44
 447 20 447 20 463 20 c 1,45,-1
 463 0 l 1,46,47
 418 -31 418 -31 400 -51.5 c 128,-1,48
 382 -72 382 -72 382 -95 c 0,49,50
 382 -133 382 -133 426 -142 c 1,51,-1
 414 -159 l 1,0,1
207 10 m 0,52,53
 274 10 274 10 329.5 35 c 128,-1,54
 385 60 385 60 412 102 c 0,55,56
 427 123 427 123 427 143 c 2,57,-1
 427 246 l 1,58,59
 347 277 347 277 253 277 c 0,60,61
 209 277 209 277 173.5 268 c 128,-1,62
 138 259 138 259 112.5 242 c 128,-1,63
 87 225 87 225 73 201.5 c 128,-1,64
 59 178 59 178 59 149 c 256,65,66
 59 120 59 120 70.5 94.5 c 128,-1,67
 82 69 82 69 102 50 c 128,-1,68
 122 31 122 31 149 20.5 c 128,-1,69
 176 10 176 10 207 10 c 0,52,53
EndSplineSet
EndChar

StartChar: Cacute
Encoding: 262 262 201
Width: 697
GlyphClass: 2
Flags: W
LayerCount: 2
Fore
SplineSet
48 360 m 0,0,1
 48 424 48 424 70.5 487 c 128,-1,2
 93 550 93 550 135.5 600.5 c 128,-1,3
 178 651 178 651 240.5 682.5 c 128,-1,4
 303 714 303 714 383 714 c 0,5,6
 478 714 478 714 544 670.5 c 128,-1,7
 610 627 610 627 642 559 c 1,8,-1
 623 553 l 1,9,10
 602 592 602 592 574.5 619 c 128,-1,11
 547 646 547 646 514.5 662.5 c 128,-1,12
 482 679 482 679 447.5 686.5 c 128,-1,13
 413 694 413 694 379 694 c 0,14,15
 305 694 305 694 247 664.5 c 128,-1,16
 189 635 189 635 149 587 c 128,-1,17
 109 539 109 539 88.5 478.5 c 128,-1,18
 68 418 68 418 68 357 c 0,19,20
 68 289 68 289 92.5 227 c 128,-1,21
 117 165 117 165 159.5 117.5 c 128,-1,22
 202 70 202 70 259 42 c 128,-1,23
 316 14 316 14 382 14 c 0,24,25
 417 14 417 14 454 23 c 128,-1,26
 491 32 491 32 525.5 50 c 128,-1,27
 560 68 560 68 589.5 96.5 c 128,-1,28
 619 125 619 125 640 164 c 1,29,-1
 659 159 l 1,30,31
 641 119 641 119 610 88 c 128,-1,32
 579 57 579 57 541 36 c 128,-1,33
 503 15 503 15 460.5 4.5 c 128,-1,34
 418 -6 418 -6 378 -6 c 0,35,36
 306 -6 306 -6 245 26 c 128,-1,37
 184 58 184 58 140.5 109.5 c 128,-1,38
 97 161 97 161 72.5 226.5 c 128,-1,39
 48 292 48 292 48 360 c 0,0,1
367 833 m 1,40,-1
 351 845 l 1,41,-1
 415 918 l 1,42,-1
 449 918 l 1,43,-1
 367 833 l 1,40,-1
EndSplineSet
EndChar

StartChar: cacute
Encoding: 263 263 202
Width: 538
GlyphClass: 2
Flags: W
LayerCount: 2
Fore
SplineSet
46 262 m 256,0,1
 46 318 46 318 65 366.5 c 128,-1,2
 84 415 84 415 118 450.5 c 128,-1,3
 152 486 152 486 197.5 506.5 c 128,-1,4
 243 527 243 527 296 527 c 0,5,6
 362 527 362 527 413.5 496.5 c 128,-1,7
 465 466 465 466 491 411 c 1,8,-1
 471 404 l 1,9,10
 445 452 445 452 397.5 479.5 c 128,-1,11
 350 507 350 507 293 507 c 0,12,13
 245 507 245 507 204 488 c 128,-1,14
 163 469 163 469 132 436 c 128,-1,15
 101 403 101 403 83.5 358 c 128,-1,16
 66 313 66 313 66 262 c 256,17,18
 66 211 66 211 84 165 c 128,-1,19
 102 119 102 119 133.5 84.5 c 128,-1,20
 165 50 165 50 206 30 c 128,-1,21
 247 10 247 10 294 10 c 0,22,23
 324 10 324 10 354.5 19 c 128,-1,24
 385 28 385 28 410.5 43 c 128,-1,25
 436 58 436 58 454 78 c 128,-1,26
 472 98 472 98 478 119 c 1,27,-1
 498 113 l 1,28,29
 489 87 489 87 469.5 64.5 c 128,-1,30
 450 42 450 42 423 25.5 c 128,-1,31
 396 9 396 9 363.5 -0.5 c 128,-1,32
 331 -10 331 -10 297 -10 c 0,33,34
 246 -10 246 -10 200 11.5 c 128,-1,35
 154 33 154 33 120 70 c 128,-1,36
 86 107 86 107 66 156.5 c 128,-1,37
 46 206 46 206 46 262 c 256,0,1
279 645 m 1,38,-1
 263 657 l 1,39,-1
 327 730 l 1,40,-1
 361 730 l 1,41,-1
 279 645 l 1,38,-1
EndSplineSet
EndChar

